<svg width="121" height="120" viewBox="0 0 121 120" fill="none" xmlns="http://www.w3.org/2000/svg">
<rect x="1" y="0.5" width="119" height="119" rx="59.5" stroke="#252940" stroke-dasharray="8 6"/>
<path d="M68.5 61.3307H61.8333V67.9973C61.8333 68.351 61.6928 68.6901 61.4428 68.9401C61.1927 69.1902 60.8536 69.3307 60.5 69.3307C60.1463 69.3307 59.8072 69.1902 59.5571 68.9401C59.3071 68.6901 59.1666 68.351 59.1666 67.9973V61.3307H52.5C52.1463 61.3307 51.8072 61.1902 51.5572 60.9401C51.3071 60.6901 51.1666 60.351 51.1666 59.9973C51.1666 59.6437 51.3071 59.3046 51.5572 59.0545C51.8072 58.8045 52.1463 58.664 52.5 58.664H59.1666V51.9973C59.1666 51.6437 59.3071 51.3046 59.5571 51.0545C59.8072 50.8045 60.1463 50.664 60.5 50.664C60.8536 50.664 61.1927 50.8045 61.4428 51.0545C61.6928 51.3046 61.8333 51.6437 61.8333 51.9973V58.664H68.5C68.8536 58.664 69.1927 58.8045 69.4428 59.0545C69.6928 59.3046 69.8333 59.6437 69.8333 59.9973C69.8333 60.351 69.6928 60.6901 69.4428 60.9401C69.1927 61.1902 68.8536 61.3307 68.5 61.3307Z" fill="#252940"/>
</svg>
