<svg width="206" height="205" viewBox="0 0 206 205" fill="none" xmlns="http://www.w3.org/2000/svg">
<path d="M44.0092 112.803C44.0092 112.803 40.2864 113.787 43.4188 121.823C46.5512 129.859 48.8718 133.918 48.8718 133.918C48.8718 133.918 49.3843 135.763 47.8632 135.886C46.3421 136.009 43.1031 135.157 42.2544 136.92C41.4057 138.683 42.5701 140.671 45.2064 142.52C47.8427 144.369 53.4638 148.637 53.9722 149.023C54.4806 149.408 54.9193 150.286 53.8943 150.536C52.8693 150.786 45.395 150.814 45.6205 154.361C45.846 157.907 54.0337 161.856 54.9193 162.307C55.8049 162.758 55.9853 163.168 55.8623 163.664C55.7393 164.16 53.2219 163.939 51.094 164.033C48.9661 164.127 46.5184 164.611 46.8218 166.645C47.1252 168.678 51.7418 173.36 63.8368 175.783L69.5194 176.542L73.1069 172.032C80.1917 161.925 80.3065 155.357 79.1216 153.676C77.9367 151.995 75.8416 153.332 74.2221 154.73C72.6026 156.128 70.9421 158.01 70.5321 157.756C70.1221 157.502 69.9417 157.055 70.2738 156.116C70.6059 155.177 73.8121 146.686 71.5284 143.951C69.2447 141.216 63.8122 146.366 62.8979 146.887C61.9836 147.407 61.7007 146.477 61.7991 145.845C61.8975 145.214 63.0291 138.248 63.6605 135.091C64.2919 131.934 63.8286 129.716 61.9303 128.998C60.1017 128.31 58.3469 131.163 57.1579 132.123C55.9689 133.082 55.071 131.393 55.071 131.393C55.071 131.393 53.9517 126.854 50.6758 118.875C47.3999 110.897 43.9477 112.816 43.9477 112.816" fill="#EBEBEB"/>
<path d="M69.6793 177.911C67.2972 172.044 63.23 161.54 59.6999 152.541C56.1698 143.541 52.9636 135.403 50.6102 129.523C49.4294 126.592 48.4782 124.193 47.814 122.553L47.0555 120.659L46.8628 120.167C46.8391 120.111 46.8186 120.053 46.8013 119.995C46.8013 119.995 46.83 120.048 46.8792 120.159C46.9284 120.27 46.9981 120.438 47.0883 120.647L47.8796 122.529C48.5602 124.169 49.5196 126.534 50.725 129.47C53.1071 135.337 56.3338 143.471 59.868 152.471C63.4022 161.47 67.4407 171.979 69.7982 177.858" fill="#E0E0E0"/>
<path d="M46.7357 138.297C46.8694 138.333 46.9986 138.384 47.1211 138.449C47.3671 138.555 47.7156 138.719 48.142 138.924C48.9989 139.334 50.1674 139.945 51.4466 140.638L54.7266 142.418L55.7188 142.947C55.8451 143.004 55.9647 143.076 56.0755 143.16C55.9418 143.121 55.8115 143.072 55.686 143.012C55.4441 142.906 55.0956 142.737 54.6692 142.528C53.8164 142.118 52.6561 141.483 51.3892 140.794L48.1092 139.039L47.117 138.51C46.9807 138.457 46.8524 138.385 46.7357 138.297Z" fill="#E0E0E0"/>
<path d="M56.4854 142.832C56.4403 142.811 57.5801 140.347 59.0315 137.33C60.4829 134.312 61.6924 131.881 61.7375 131.901C61.7826 131.922 60.6428 134.39 59.1914 137.408C57.74 140.425 56.5305 142.856 56.4854 142.832Z" fill="#E0E0E0"/>
<path d="M61.2866 156.895C61.3639 156.776 61.4532 156.667 61.5531 156.567L62.3239 155.71C62.9717 154.988 63.8614 153.984 64.7839 152.84C65.7064 151.696 66.5469 150.638 67.1332 149.863C67.412 149.502 67.6416 149.195 67.8302 148.949C67.9076 148.831 67.9984 148.722 68.1008 148.625C68.0449 148.755 67.9733 148.877 67.8876 148.99C67.7359 149.215 67.5186 149.543 67.2357 149.941C66.674 150.732 65.8704 151.811 64.9233 152.955C63.9762 154.098 63.0701 155.095 62.3977 155.796C62.0615 156.144 61.7868 156.427 61.5777 156.616C61.4909 156.719 61.3933 156.812 61.2866 156.895Z" fill="#E0E0E0"/>
<path d="M51.5654 154.734C51.7035 154.732 51.8413 154.747 51.9754 154.779L53.0209 154.968C53.9024 155.136 55.1201 155.378 56.4608 155.661C57.8015 155.944 59.011 156.206 59.8884 156.403L60.9216 156.649C61.0515 156.672 61.1782 156.71 61.2988 156.764C61.1608 156.766 61.023 156.751 60.8888 156.719L59.8433 156.526C58.9577 156.358 57.7441 156.116 56.4034 155.837C55.0627 155.558 53.8491 155.292 52.9758 155.091L51.9385 154.849C51.8098 154.827 51.6845 154.788 51.5654 154.734Z" fill="#E0E0E0"/>
<path d="M54.21 167.69C54.3784 167.697 54.5458 167.719 54.7102 167.756L56.0509 167.994C57.1825 168.203 58.7446 168.502 60.4625 168.842C62.1804 169.183 63.7425 169.506 64.87 169.748L66.1984 170.039C66.3634 170.068 66.5254 170.112 66.6822 170.171C66.5151 170.167 66.3489 170.146 66.1861 170.109L64.8454 169.871C63.7138 169.662 62.1517 169.363 60.4297 169.019C58.7077 168.674 57.1497 168.354 56.0263 168.117L54.6938 167.821C54.529 167.792 54.3672 167.748 54.21 167.69Z" fill="#E0E0E0"/>
<path d="M66.4198 170.023C66.5152 169.877 66.6236 169.74 66.7437 169.613L67.6785 168.494C68.4698 167.547 69.5522 166.235 70.7084 164.75C71.8646 163.266 72.8773 161.905 73.603 160.909L74.464 159.728C74.5637 159.583 74.6748 159.446 74.7961 159.318C74.72 159.48 74.628 159.634 74.5214 159.777C74.3328 160.068 74.0581 160.482 73.7014 161.007C73.0003 162.02 72.004 163.401 70.8314 164.886C69.6588 166.37 68.5723 167.67 67.7605 168.6C67.3505 169.059 67.0184 169.42 66.7806 169.683C66.6695 169.805 66.5488 169.919 66.4198 170.023Z" fill="#E0E0E0"/>
<path d="M157.48 120.534L128.69 137.928C127.229 138.811 126.76 140.712 127.643 142.173L156.112 189.291C156.994 190.753 158.895 191.221 160.356 190.339L189.146 172.944C190.607 172.061 191.076 170.161 190.193 168.7L161.725 121.581C160.842 120.12 158.941 119.651 157.48 120.534Z" fill="#EBEBEB"/>
<path d="M179.198 168.416C178.483 168.849 177.655 169.059 176.82 169.022C175.984 168.984 175.179 168.699 174.506 168.204C173.832 167.708 173.321 167.024 173.036 166.238C172.751 165.452 172.706 164.599 172.906 163.787C173.107 162.975 173.543 162.241 174.161 161.677C174.778 161.113 175.549 160.745 176.376 160.62C177.203 160.494 178.048 160.617 178.805 160.972C179.562 161.327 180.197 161.898 180.629 162.614C180.917 163.089 181.107 163.616 181.191 164.164C181.275 164.713 181.249 165.273 181.116 165.812C180.983 166.35 180.746 166.858 180.417 167.305C180.087 167.751 179.674 168.129 179.198 168.416Z" fill="white"/>
<path d="M179.67 173.59C179.311 173.591 178.952 173.547 178.604 173.459C177.518 173.187 176.577 172.512 175.972 171.571C175.367 170.629 175.144 169.492 175.349 168.392C175.553 167.292 176.17 166.311 177.072 165.649C177.975 164.988 179.096 164.696 180.207 164.832C181.317 164.969 182.334 165.524 183.05 166.385C183.765 167.246 184.125 168.347 184.057 169.464C183.988 170.581 183.496 171.63 182.681 172.396C181.866 173.163 180.789 173.59 179.67 173.59ZM179.67 165.136C178.958 165.137 178.259 165.327 177.645 165.687C177.03 166.047 176.522 166.564 176.173 167.184C175.824 167.805 175.645 168.507 175.656 169.219C175.667 169.931 175.866 170.627 176.234 171.237C176.785 172.14 177.669 172.79 178.696 173.047C179.722 173.304 180.808 173.147 181.72 172.61C182.401 172.198 182.944 171.594 183.281 170.874C183.619 170.153 183.735 169.349 183.615 168.563C183.495 167.776 183.145 167.043 182.608 166.455C182.072 165.868 181.373 165.453 180.601 165.263C180.287 165.181 179.965 165.138 179.641 165.136H179.67Z" fill="white"/>
<path d="M141.13 136.784L138.219 138.539L138.039 138.244L140.683 136.645L140.273 135.96L140.54 135.8L141.13 136.784Z" fill="white"/>
<path d="M140.31 141.372L140.043 141.532L138.813 139.482L139.023 139.351L140.937 139.847C141.09 139.911 141.255 139.939 141.42 139.932C141.585 139.924 141.747 139.88 141.893 139.802C142.229 139.597 142.303 139.236 142.028 138.793C141.945 138.638 141.828 138.504 141.686 138.4C141.544 138.297 141.381 138.226 141.208 138.195L141.261 137.871C141.481 137.917 141.687 138.01 141.867 138.145C142.046 138.28 142.193 138.452 142.298 138.65C142.655 139.24 142.581 139.798 142.098 140.089C141.915 140.19 141.713 140.249 141.505 140.261C141.297 140.274 141.089 140.24 140.896 140.163L139.326 139.753L140.31 141.372Z" fill="white"/>
<path d="M142.659 144.136L142.307 143.553L141.54 144.013L141.36 143.713L142.122 143.254L141.13 141.614L141.347 141.483L144.217 141.86L144.418 142.192L141.643 141.84L142.405 143.102L143.078 142.692L143.254 142.984L142.581 143.394L142.934 143.976L142.659 144.136Z" fill="white"/>
<path d="M145.353 148.592L145 148.01L144.238 148.473L144.057 148.174L144.82 147.711L143.828 146.071L144.045 145.94L146.915 146.317L147.116 146.649L144.34 146.296L145.103 147.559L145.779 147.149L145.952 147.44L145.279 147.85L145.64 148.42L145.353 148.592Z" fill="white"/>
<path d="M146.981 151.081C146.489 151.38 145.89 151.265 145.464 150.556C145.22 150.182 145.128 149.729 145.205 149.289H145.529C145.451 149.668 145.525 150.063 145.734 150.388C146.034 150.88 146.431 150.999 146.784 150.798C147.136 150.597 147.251 150.199 146.784 149.457L146.411 148.838L147.961 148.108L148.92 149.699L148.653 149.859L147.833 148.531L146.849 148.99L147.075 149.363C147.641 150.228 147.497 150.769 146.981 151.081Z" fill="white"/>
<path d="M148.731 153.947C148.605 154.022 148.465 154.069 148.319 154.087C148.174 154.105 148.026 154.092 147.886 154.05C147.746 154.007 147.616 153.936 147.504 153.841C147.393 153.745 147.303 153.628 147.239 153.496C146.772 152.721 147.054 151.979 147.973 151.421C148.961 150.827 149.801 151.056 150.277 151.831C150.433 152.066 150.524 152.337 150.539 152.619L150.224 152.643C150.22 152.412 150.149 152.187 150.019 151.995C149.642 151.368 148.994 151.208 148.207 151.684C148.127 151.731 148.051 151.783 147.977 151.84C148.188 151.826 148.399 151.874 148.582 151.979C148.766 152.084 148.915 152.241 149.01 152.43C149.101 152.544 149.166 152.677 149.201 152.819C149.237 152.96 149.241 153.108 149.215 153.252C149.188 153.395 149.132 153.532 149.048 153.652C148.965 153.771 148.857 153.872 148.731 153.947ZM148.543 153.66C148.634 153.604 148.712 153.53 148.772 153.441C148.832 153.353 148.873 153.253 148.89 153.147C148.908 153.042 148.903 152.934 148.876 152.831C148.848 152.728 148.799 152.631 148.731 152.549C148.694 152.443 148.633 152.348 148.553 152.269C148.474 152.19 148.377 152.131 148.272 152.094C148.166 152.058 148.053 152.046 147.942 152.059C147.831 152.072 147.724 152.11 147.629 152.169C147.535 152.229 147.455 152.31 147.396 152.405C147.336 152.5 147.299 152.607 147.287 152.718C147.275 152.829 147.288 152.942 147.325 153.047C147.362 153.153 147.422 153.249 147.501 153.328C147.545 153.421 147.607 153.504 147.684 153.572C147.761 153.64 147.851 153.691 147.949 153.723C148.047 153.754 148.15 153.764 148.253 153.754C148.355 153.743 148.454 153.711 148.543 153.66Z" fill="white"/>
<path d="M151.101 157.948C150.617 158.244 150.031 158.117 149.605 157.411C149.359 157.036 149.267 156.581 149.346 156.14H149.67C149.592 156.523 149.667 156.92 149.879 157.247C150.17 157.731 150.556 157.858 150.917 157.657C151.277 157.456 151.347 157.063 151.019 156.522L150.896 156.317L151.113 156.181L152.61 156.378L151.712 154.89L151.979 154.73L153.11 156.6L152.897 156.727L151.364 156.53C151.708 157.157 151.569 157.67 151.101 157.948Z" fill="white"/>
<path d="M152.897 160.847C152.771 160.922 152.63 160.969 152.484 160.987C152.339 161.004 152.191 160.991 152.051 160.948C151.91 160.905 151.78 160.834 151.669 160.738C151.558 160.642 151.468 160.525 151.405 160.392C150.937 159.621 151.22 158.875 152.138 158.322C153.127 157.723 153.971 157.953 154.447 158.732C154.601 158.965 154.69 159.236 154.705 159.515L154.393 159.539C154.387 159.308 154.316 159.084 154.188 158.892C153.807 158.264 153.163 158.104 152.372 158.584C152.307 158.621 152.225 158.678 152.143 158.736C152.354 158.724 152.564 158.773 152.748 158.878C152.932 158.983 153.082 159.138 153.18 159.326C153.27 159.441 153.335 159.574 153.37 159.717C153.405 159.859 153.41 160.007 153.383 160.151C153.356 160.295 153.299 160.431 153.215 160.552C153.131 160.672 153.023 160.772 152.897 160.847ZM152.712 160.556C152.803 160.5 152.881 160.426 152.941 160.337C153.001 160.248 153.04 160.148 153.058 160.043C153.075 159.937 153.07 159.83 153.042 159.726C153.015 159.623 152.965 159.527 152.897 159.445C152.86 159.338 152.8 159.24 152.72 159.159C152.64 159.078 152.543 159.017 152.435 158.979C152.328 158.942 152.214 158.929 152.101 158.942C151.988 158.955 151.88 158.993 151.784 159.054C151.688 159.115 151.607 159.197 151.548 159.294C151.488 159.391 151.451 159.5 151.44 159.613C151.429 159.726 151.444 159.84 151.483 159.947C151.522 160.053 151.585 160.149 151.667 160.228C151.711 160.321 151.774 160.404 151.851 160.472C151.929 160.539 152.02 160.59 152.118 160.621C152.216 160.652 152.32 160.662 152.422 160.651C152.524 160.64 152.623 160.607 152.712 160.556Z" fill="white"/>
<path d="M156.554 162.29L156.345 162.418L152.909 162.828L152.717 162.504L156.083 162.094L155.177 160.597L154.635 160.925L154.455 160.63L155.275 160.142L156.554 162.29Z" fill="white"/>
<path d="M159.067 166.46L158.858 166.587L155.423 166.997L155.23 166.673L158.596 166.263L157.69 164.767L157.145 165.099L156.968 164.804L157.788 164.312L159.067 166.46Z" fill="white"/>
<path d="M158.699 170.581C158.186 170.892 157.6 170.646 157.182 169.953C156.763 169.26 156.825 168.637 157.337 168.313C157.502 168.212 157.697 168.169 157.889 168.193C158.081 168.217 158.26 168.306 158.395 168.445C158.355 168.284 158.369 168.114 158.434 167.962C158.499 167.809 158.612 167.682 158.756 167.6C159.232 167.313 159.769 167.538 160.142 168.153C160.515 168.768 160.466 169.359 159.994 169.646C159.852 169.733 159.686 169.773 159.52 169.759C159.354 169.745 159.197 169.678 159.072 169.568C159.134 169.754 159.131 169.956 159.063 170.14C158.996 170.324 158.867 170.48 158.699 170.581ZM158.518 170.269C158.875 170.052 158.928 169.609 158.604 169.096C158.28 168.584 157.883 168.412 157.526 168.629C157.169 168.846 157.116 169.285 157.436 169.802C157.756 170.318 158.157 170.486 158.518 170.269ZM158.838 168.953C159.113 169.404 159.482 169.552 159.797 169.363C160.113 169.174 160.15 168.756 159.888 168.317C159.625 167.879 159.252 167.723 158.928 167.907C158.604 168.092 158.567 168.51 158.838 168.953Z" fill="white"/>
<path d="M161.076 173.02C160.088 173.619 159.244 173.389 158.768 172.61C158.615 172.375 158.526 172.103 158.51 171.823L158.821 171.798C158.828 172.029 158.899 172.254 159.026 172.446C159.408 173.073 160.051 173.233 160.843 172.758C160.908 172.717 160.99 172.663 161.072 172.602C160.861 172.614 160.65 172.565 160.466 172.46C160.282 172.356 160.132 172.2 160.035 172.011C159.947 171.897 159.884 171.765 159.85 171.625C159.816 171.484 159.812 171.338 159.839 171.196C159.866 171.054 159.922 170.919 160.005 170.8C160.087 170.681 160.194 170.581 160.318 170.507C160.444 170.431 160.584 170.383 160.73 170.365C160.876 170.347 161.023 170.36 161.164 170.402C161.304 170.445 161.434 170.516 161.546 170.612C161.657 170.707 161.747 170.825 161.81 170.958C162.278 171.704 161.995 172.446 161.076 173.02ZM161.404 172.262C161.494 172.199 161.569 172.119 161.626 172.026C161.682 171.934 161.72 171.83 161.735 171.722C161.75 171.615 161.742 171.505 161.713 171.4C161.684 171.295 161.633 171.198 161.564 171.114C161.524 171.012 161.462 170.921 161.382 170.846C161.302 170.772 161.207 170.716 161.103 170.682C160.999 170.649 160.889 170.638 160.781 170.652C160.672 170.666 160.569 170.704 160.476 170.762C160.384 170.821 160.306 170.899 160.248 170.991C160.19 171.084 160.152 171.188 160.139 171.296C160.125 171.404 160.136 171.514 160.169 171.618C160.203 171.722 160.26 171.817 160.334 171.897C160.381 171.991 160.446 172.074 160.525 172.143C160.604 172.211 160.697 172.263 160.797 172.295C160.896 172.327 161.002 172.339 161.106 172.33C161.21 172.32 161.312 172.29 161.404 172.241V172.262Z" fill="white"/>
<path d="M164.287 175.07L161.38 176.829L161.199 176.53L163.84 174.931L163.43 174.246L163.696 174.086L164.287 175.07Z" fill="white"/>
<path d="M163.455 179.674L163.188 179.838L161.958 177.788L162.171 177.661L164.086 178.153C164.239 178.216 164.403 178.245 164.569 178.237C164.734 178.23 164.895 178.186 165.041 178.108C165.377 177.907 165.451 177.542 165.172 177.1C165.091 176.944 164.974 176.809 164.832 176.705C164.69 176.601 164.526 176.531 164.352 176.501L164.406 176.181C164.626 176.226 164.834 176.319 165.014 176.454C165.194 176.588 165.342 176.761 165.447 176.96C165.804 177.551 165.73 178.104 165.242 178.399C165.06 178.499 164.859 178.557 164.651 178.569C164.444 178.581 164.237 178.547 164.045 178.469L162.475 178.059L163.455 179.674Z" fill="white"/>
<path d="M165.599 181.942C165.111 182.237 164.525 182.11 164.102 181.405C163.857 181.03 163.764 180.575 163.844 180.134H164.168C164.09 180.516 164.165 180.913 164.377 181.241C164.668 181.72 165.054 181.851 165.414 181.651C165.775 181.45 165.824 181.056 165.517 180.515L165.39 180.306L165.611 180.175L167.108 180.371L166.21 178.883L166.476 178.723L167.604 180.593L167.395 180.72L165.861 180.523C166.206 181.15 166.066 181.659 165.599 181.942Z" fill="white"/>
<path d="M150.187 161.599L148.918 162.366L163.077 185.782L164.346 185.015L150.187 161.599Z" fill="white"/>
<path d="M153.423 174.26L152.159 175.023L159.381 186.976L160.644 186.212L153.423 174.26Z" fill="white"/>
<path d="M154.728 137.091L150.924 130.796C150.343 129.834 149.093 129.526 148.132 130.107L144.307 132.418C143.345 132.998 143.037 134.249 143.618 135.21L147.421 141.505C148.002 142.467 149.252 142.775 150.214 142.194L154.039 139.883C155 139.302 155.308 138.052 154.728 137.091Z" fill="#E0E0E0"/>
<path d="M144.586 132.242L145.054 131.959L148.1 136.993C148.183 137.132 148.293 137.252 148.423 137.348C148.553 137.444 148.701 137.514 148.858 137.552C149.015 137.591 149.178 137.599 149.338 137.575C149.497 137.551 149.651 137.495 149.789 137.412C149.928 137.328 150.048 137.218 150.144 137.088C150.24 136.958 150.309 136.811 150.348 136.654C150.387 136.497 150.395 136.334 150.37 136.174C150.346 136.014 150.291 135.861 150.207 135.722L147.165 130.688L147.633 130.405L150.675 135.44C150.918 135.843 150.992 136.327 150.879 136.784C150.766 137.242 150.476 137.636 150.072 137.879C149.669 138.123 149.185 138.196 148.728 138.083C148.27 137.97 147.876 137.68 147.633 137.276L144.586 132.242Z" fill="#EBEBEB"/>
<path d="M151.212 137.451L150.739 137.736L152.839 141.209L153.312 140.924L151.212 137.451Z" fill="#EBEBEB"/>
<path d="M171.78 151.726L156.587 126.579L154.428 127.883L169.622 153.03L171.78 151.726Z" fill="white"/>
<path d="M96.6696 25.4201L96.1202 24.4074C96.0437 24.4132 95.967 24.4132 95.8906 24.4074L95.1116 24.3131L94.9968 25.2315L94.6934 25.1946L95.0501 22.2959L96.1325 22.4312C96.8705 22.5214 97.2682 22.9519 97.1944 23.571C97.1769 23.7752 97.0908 23.9674 96.9501 24.1163C96.8094 24.2652 96.6223 24.3621 96.4195 24.391L97.0017 25.4693L96.6696 25.4201ZM96.8869 23.5177C96.9443 23.0544 96.6696 22.751 96.0915 22.6977L95.3207 22.6034L95.1444 24.0548L95.9111 24.1491C96.4933 24.1901 96.85 23.9769 96.8869 23.5218V23.5177Z" fill="#E0E0E0"/>
<path d="M99.761 25.539L99.7282 25.8014L97.6782 25.5513L98.0349 22.6567L100.019 22.8986L99.9865 23.1651L98.3137 22.9601L98.1866 23.9933L99.6831 24.1778L99.6503 24.4361L98.1538 24.2516L98.0185 25.3258L99.761 25.539Z" fill="#E0E0E0"/>
<path d="M100.351 24.4116C100.373 24.213 100.435 24.021 100.534 23.8473C100.632 23.6736 100.765 23.5218 100.925 23.4013C101.084 23.2808 101.266 23.194 101.46 23.1464C101.654 23.0987 101.856 23.0912 102.053 23.1242C102.25 23.1412 102.441 23.1992 102.614 23.2945C102.787 23.3899 102.938 23.5204 103.057 23.6777L102.84 23.8499C102.743 23.7211 102.62 23.6144 102.478 23.5367C102.337 23.4589 102.181 23.412 102.02 23.3989C101.859 23.3723 101.695 23.3785 101.537 23.417C101.378 23.4556 101.23 23.5256 101.099 23.6231C100.969 23.7206 100.859 23.8434 100.777 23.9841C100.695 24.1249 100.643 24.2808 100.623 24.4424C100.602 24.604 100.615 24.7681 100.66 24.9246C100.705 25.0812 100.781 25.2272 100.883 25.3537C100.986 25.4802 101.113 25.5848 101.257 25.661C101.401 25.7372 101.558 25.7836 101.721 25.7974C101.88 25.823 102.042 25.8147 102.198 25.773C102.353 25.7313 102.498 25.6572 102.623 25.5555L102.791 25.7769C102.635 25.9003 102.456 25.9899 102.264 26.04C102.072 26.0902 101.872 26.0997 101.676 26.068C101.478 26.0503 101.286 25.9929 101.112 25.8992C100.937 25.8055 100.783 25.6773 100.66 25.5226C100.536 25.3678 100.445 25.1896 100.392 24.9986C100.339 24.8077 100.325 24.608 100.351 24.4116Z" fill="#E0E0E0"/>
<path d="M105.485 26.2401L105.452 26.5066L103.41 26.2401L103.767 23.3455L105.751 23.5915L105.718 23.8539L104.037 23.6489L103.91 24.678L105.407 24.8625L105.378 25.1249L103.881 24.9404L103.746 26.0146L105.485 26.2401Z" fill="#E0E0E0"/>
<path d="M106.53 23.7021L106.834 23.7431L106.477 26.65L106.169 26.609L106.53 23.7021Z" fill="#E0E0E0"/>
<path d="M109.921 25.1289C109.843 25.748 109.351 26.0637 108.617 25.9735L107.838 25.8751L107.727 26.7894L107.42 26.7525L107.776 23.8579L108.859 23.9932C109.597 24.0834 109.999 24.5098 109.921 25.1289ZM109.613 25.092C109.671 24.6287 109.4 24.3294 108.818 24.272L108.051 24.1777L107.871 25.625L108.642 25.7193C109.22 25.7767 109.56 25.5471 109.613 25.092Z" fill="#E0E0E0"/>
<path d="M111.139 24.5428L110.122 24.4157L110.155 24.1533L112.496 24.4403L112.463 24.7068L111.446 24.6002L111.122 27.2324L110.815 27.1914L111.139 24.5428Z" fill="#E0E0E0"/>
<path d="M106.559 32.4926C106.559 32.5541 102.684 32.0826 97.9282 31.4266C93.1722 30.7706 89.3182 30.1966 89.3182 30.1474C89.3182 30.0982 93.1886 30.5574 97.9282 31.2134C102.668 31.8694 106.563 32.4352 106.559 32.4926Z" fill="#E0E0E0"/>
<path d="M106.091 35.9448C106.091 36.0063 102.221 35.5348 97.4813 34.8788C92.7417 34.2228 88.8713 33.6488 88.8713 33.5996C88.8713 33.5504 92.7417 34.0096 97.4813 34.6656C102.221 35.3216 106.1 35.8874 106.091 35.9448Z" fill="#E0E0E0"/>
<path d="M104.513 39.4668C104.513 39.5242 100.642 39.0568 95.9028 38.4008C91.1632 37.7448 87.2928 37.1708 87.2928 37.1175C87.2928 37.0642 91.1591 37.5275 95.9028 38.1876C100.647 38.8477 104.521 39.4094 104.513 39.4668Z" fill="#E0E0E0"/>
<path d="M101.639 43.0173C101.639 43.0788 97.7684 42.6073 93.0083 41.9513C88.2482 41.2953 84.3983 40.7213 84.3983 40.6721C84.3983 40.6229 88.2687 41.0821 93.0288 41.7381C97.7889 42.3941 101.647 42.9599 101.639 43.0173Z" fill="#E0E0E0"/>
<path d="M97.0591 46.5638C97.0591 46.6212 93.1887 46.1538 88.4491 45.4937C83.7095 44.8336 79.8391 44.2637 79.8391 44.2145C79.8391 44.1653 83.7095 44.6245 88.4491 45.2846C93.1887 45.9447 97.0673 46.5023 97.0591 46.5638Z" fill="#E0E0E0"/>
<path d="M114.279 33.6447C112.858 33.5563 111.449 33.3269 110.073 32.96C110.787 32.9695 111.498 33.0492 112.196 33.1978C112.904 33.277 113.601 33.4267 114.279 33.6447Z" fill="#E0E0E0"/>
<path d="M114.131 36.7238C113.422 36.7148 112.714 36.6365 112.02 36.4901C111.313 36.4109 110.615 36.2612 109.937 36.0432C110.65 36.0481 111.361 36.1278 112.057 36.281C112.761 36.3606 113.456 36.5089 114.131 36.7238Z" fill="#E0E0E0"/>
<path d="M113.086 41C112.372 40.9873 111.66 40.9049 110.962 40.754C110.257 40.6649 109.561 40.5182 108.879 40.3153C108.879 40.2415 109.839 40.3522 110.999 40.5408C111.708 40.6236 112.408 40.7774 113.086 41Z" fill="#E0E0E0"/>
<path d="M111.577 44.5877C110.863 44.5749 110.152 44.4926 109.453 44.3417C108.748 44.2519 108.052 44.1052 107.371 43.903C107.371 43.8292 108.33 43.9399 109.49 44.1285C110.2 44.2107 110.899 44.3645 111.577 44.5877Z" fill="#E0E0E0"/>
<path d="M108.33 48.0112C107.616 47.9987 106.904 47.9163 106.206 47.7652C105.501 47.6784 104.804 47.5317 104.123 47.3265C104.123 47.2527 105.083 47.3634 106.239 47.5561C106.949 47.6385 107.65 47.791 108.33 48.0112Z" fill="#E0E0E0"/>
<path d="M93.16 50.8933C93.16 50.9507 87.3544 50.1799 80.2122 49.1672C73.07 48.1545 67.2807 47.2894 67.2889 47.232C67.2971 47.1746 73.0946 47.9454 80.2409 48.9581C87.3872 49.9708 93.16 50.84 93.16 50.8933Z" fill="#E0E0E0"/>
<path d="M90.1506 54.5301C90.0545 54.5274 89.9587 54.5192 89.8636 54.5055L89.0436 54.3989L86.0506 53.9602L76.186 52.4432C72.3361 51.8364 68.8552 51.2706 66.346 50.8483L63.3653 50.3358C63.0127 50.2702 62.7421 50.221 62.5453 50.18C62.4498 50.1661 62.3563 50.1413 62.2665 50.1062C62.3629 50.1095 62.4588 50.1205 62.5535 50.139L63.3735 50.2538L66.3665 50.7007L76.2311 52.23L86.0711 53.8126L89.0518 54.3169L89.8718 54.4645C89.9671 54.4746 90.0608 54.4967 90.1506 54.5301Z" fill="#E0E0E0"/>
<path d="M84.7386 57.8348C84.3808 57.8431 84.0233 57.8114 83.6726 57.7405C82.9797 57.6503 81.9752 57.5109 80.7329 57.3305C78.2524 56.9738 74.8289 56.4531 71.0528 55.8627C67.2767 55.2723 63.8532 54.7188 61.3809 54.3088L58.4535 53.8168L57.6622 53.6692C57.5684 53.6577 57.4762 53.6357 57.3875 53.6036C57.481 53.6007 57.5746 53.609 57.6662 53.6282L58.4658 53.7307L61.4055 54.1407L71.0856 55.629L80.7575 57.1624L84.7386 57.8348Z" fill="#E0E0E0"/>
<path d="M102.914 52.8901C102.2 52.8774 101.488 52.795 100.79 52.6441C100.085 52.5544 99.3886 52.4077 98.7073 52.2054C98.7073 52.1316 99.6667 52.2423 100.827 52.4309C101.536 52.5125 102.236 52.6664 102.914 52.8901Z" fill="#E0E0E0"/>
<path d="M98.736 55.2107C98.0218 55.198 97.3105 55.1156 96.6122 54.9647C95.9072 54.875 95.2107 54.7283 94.5294 54.526C94.5294 54.4522 95.4888 54.5629 96.6491 54.7515C97.3586 54.8331 98.0578 54.987 98.736 55.2107Z" fill="#E0E0E0"/>
<path d="M93.1108 59.1262C92.3965 59.1135 91.6852 59.0311 90.987 58.8802C90.2816 58.7929 89.5849 58.6461 88.9042 58.4415C88.9042 58.3677 89.8636 58.4784 91.0239 58.6711C91.733 58.7525 92.4321 58.905 93.1108 59.1262Z" fill="#E0E0E0"/>
<path d="M82.3606 65.309C82.3606 65.3705 75.1815 64.3127 66.3706 62.9556C57.5597 61.5985 50.3806 60.4464 50.3806 60.389C50.3806 60.3316 57.5556 61.3853 66.3706 62.7465C75.1856 64.1077 82.3688 65.2516 82.3606 65.309Z" fill="#E0E0E0"/>
<path d="M78.0678 73.0704C78.0678 73.1278 75.7062 72.7957 72.8198 72.3283C69.9334 71.8609 67.5964 71.4345 67.6046 71.3771C67.6128 71.3197 69.9662 71.6518 72.8526 72.1192C75.739 72.5866 78.076 73.0089 78.0678 73.0704Z" fill="#E0E0E0"/>
<path d="M191.318 190.138C191.318 190.199 151.774 190.244 103.004 190.244C54.2346 190.244 14.6819 190.199 14.6819 190.138C14.6819 190.076 54.2182 190.031 103.004 190.031C151.79 190.031 191.318 190.08 191.318 190.138Z" fill="#263238"/>
<path d="M163.038 94.55C163.038 136.547 131.273 170.713 92.29 170.713C53.3074 170.713 21.5421 136.547 21.5421 94.55C21.5421 52.5534 53.3074 18.3873 92.29 18.3873C116.35 18.3873 138.446 31.315 151.58 53.004L146.409 56.4834L159.98 60.6646L162.299 45.8901L157.446 49.1331C143.048 25.2353 118.736 11 92.29 11C49.4955 11 14.6793 48.483 14.6793 94.55C14.6793 140.617 49.4955 178.1 92.29 178.1C135.084 178.1 169.901 140.624 169.901 94.55H163.038Z" fill="#DFDFDF"/>
<path opacity="0.7" d="M163.038 94.55C163.038 136.547 131.273 170.713 92.29 170.713C53.3074 170.713 21.5421 136.547 21.5421 94.55C21.5421 52.5534 53.3074 18.3873 92.29 18.3873C116.35 18.3873 138.446 31.315 151.58 53.004L146.409 56.4834L159.98 60.6646L162.299 45.8901L157.446 49.1331C143.048 25.2353 118.736 11 92.29 11C49.4955 11 14.6793 48.483 14.6793 94.55C14.6793 140.617 49.4955 178.1 92.29 178.1C135.084 178.1 169.901 140.624 169.901 94.55H163.038Z" fill="white"/>
<path d="M102.743 78.7708V68.7315L97.9338 68.2439C97.3084 64.9628 96.0946 61.8219 94.351 58.9729L97.4389 54.9542L90.842 47.8551L87.1484 51.1793C84.5614 49.3354 81.6334 48.0246 78.5349 47.3232L78.0768 42.1521H68.7246L68.2665 47.3232C65.168 48.0246 62.24 49.3354 59.653 51.1793L55.9594 47.8551L49.3625 54.9542L52.443 58.9729C50.7057 61.825 49.4923 64.9647 48.8602 68.2439L44.0585 68.7315V78.7708L48.8602 79.2584C49.4927 82.5398 50.706 85.6819 52.443 88.5368L49.3625 92.548L55.9594 99.6472L59.653 96.3303C62.2417 98.1714 65.1691 99.4819 68.2665 100.186L68.7246 105.358H78.0399L78.4979 100.186C81.5954 99.4819 84.5228 98.1714 87.1115 96.3303L90.8051 99.6472L97.4019 92.548L94.3141 88.5368C96.0576 85.6851 97.2714 82.5418 97.8969 79.2584L102.743 78.7708ZM73.3859 87.3474C66.4124 87.3474 60.7611 81.2603 60.7611 73.7548C60.7611 66.2494 66.4124 60.1623 73.3859 60.1623C80.3595 60.1623 86.0108 66.242 86.0108 73.7548C86.0108 81.2677 80.3595 87.3474 73.3859 87.3474Z" fill="#DFDFDF"/>
<path d="M140.544 107.108V99.2483L136.784 98.8716C136.29 96.3 135.34 93.838 133.976 91.6025L136.392 88.4555L131.221 82.8929L128.273 85.4932C126.244 84.0499 123.95 83.023 121.521 82.4718L121.167 78.4236H113.861L113.506 82.4718C111.078 83.023 108.783 84.0499 106.754 85.4932L103.799 82.8929L98.6283 88.4555L101.044 91.6025C99.6807 93.838 98.7299 96.3 98.2368 98.8716L94.4767 99.2483V107.108L98.2368 107.492C98.7311 110.064 99.6819 112.526 101.044 114.762L98.7244 117.909L103.895 123.479L106.85 120.871C108.878 122.317 111.173 123.344 113.602 123.892L113.957 127.948H121.263L121.618 123.892C124.047 123.344 126.342 122.317 128.369 120.871L131.287 123.479L136.459 117.909L134.043 114.769C135.405 112.533 136.356 110.071 136.85 107.5L140.544 107.108ZM117.54 113.831C112.081 113.831 107.648 109.059 107.648 103.178C107.648 97.2981 112.081 92.5259 117.54 92.5259C122.999 92.5259 127.439 97.2907 127.439 103.178C127.439 109.066 123.006 113.838 117.54 113.838V113.831Z" fill="#DFDFDF"/>
<path d="M102.743 129.462V122.851L99.5812 122.526C99.1616 120.368 98.3611 118.301 97.2172 116.424L99.2487 113.787L94.9124 109.11L92.4598 111.327C90.757 110.11 88.828 109.246 86.7864 108.785L86.4909 105.387H80.3521L80.0492 108.785C78.0103 109.247 76.0841 110.111 74.3832 111.327L71.9306 109.11L67.5869 113.757L69.6184 116.394C68.4768 118.272 67.6788 120.338 67.2618 122.496L64.1001 122.821V129.433L67.2618 129.75C67.6652 131.933 68.4638 134.023 69.6184 135.919L67.5869 138.563L71.9306 143.232L74.3832 141.016C76.0841 142.231 78.0103 143.095 80.0492 143.557L80.3521 146.963H86.4909L86.7864 143.557C88.828 143.097 90.757 142.233 92.4598 141.016L94.9124 143.232L99.2487 138.563L97.2468 135.919C98.3931 134.042 99.1938 131.976 99.6107 129.817L102.743 129.462ZM83.4178 135.099C78.8303 135.099 75.1071 131.095 75.1071 126.153C75.1071 121.211 78.8008 117.207 83.4178 117.207C88.0348 117.207 91.7285 121.211 91.7285 126.153C91.7285 131.095 88.0127 135.099 83.4178 135.099Z" fill="#DFDFDF"/>
<path opacity="0.7" d="M102.743 78.7708V68.7315L97.9338 68.2439C97.3084 64.9628 96.0946 61.8219 94.351 58.9729L97.4389 54.9542L90.842 47.8551L87.1484 51.1793C84.5614 49.3354 81.6334 48.0246 78.5349 47.3232L78.0768 42.1521H68.7246L68.2665 47.3232C65.168 48.0246 62.24 49.3354 59.653 51.1793L55.9594 47.8551L49.3625 54.9542L52.443 58.9729C50.7057 61.825 49.4923 64.9647 48.8602 68.2439L44.0585 68.7315V78.7708L48.8602 79.2584C49.4927 82.5398 50.706 85.6819 52.443 88.5368L49.3625 92.548L55.9594 99.6472L59.653 96.3303C62.2417 98.1714 65.1691 99.4819 68.2665 100.186L68.7246 105.358H78.0399L78.4979 100.186C81.5954 99.4819 84.5228 98.1714 87.1115 96.3303L90.8051 99.6472L97.4019 92.548L94.3141 88.5368C96.0576 85.6851 97.2714 82.5418 97.8969 79.2584L102.743 78.7708ZM73.3859 87.3474C66.4124 87.3474 60.7611 81.2603 60.7611 73.7548C60.7611 66.2494 66.4124 60.1623 73.3859 60.1623C80.3595 60.1623 86.0108 66.242 86.0108 73.7548C86.0108 81.2677 80.3595 87.3474 73.3859 87.3474Z" fill="white"/>
<path opacity="0.5" d="M140.544 107.108V99.2483L136.784 98.8716C136.29 96.3 135.34 93.838 133.976 91.6025L136.392 88.4555L131.221 82.8929L128.273 85.4932C126.244 84.0499 123.95 83.023 121.521 82.4718L121.167 78.4236H113.861L113.506 82.4718C111.078 83.023 108.783 84.0499 106.754 85.4932L103.799 82.8929L98.6283 88.4555L101.044 91.6025C99.6807 93.838 98.7299 96.3 98.2368 98.8716L94.4767 99.2483V107.108L98.2368 107.492C98.7311 110.064 99.6819 112.526 101.044 114.762L98.7244 117.909L103.895 123.479L106.85 120.871C108.878 122.317 111.173 123.344 113.602 123.892L113.957 127.948H121.263L121.618 123.892C124.047 123.344 126.342 122.317 128.369 120.871L131.287 123.479L136.459 117.909L134.043 114.769C135.405 112.533 136.356 110.071 136.85 107.5L140.544 107.108ZM117.54 113.831C112.081 113.831 107.648 109.059 107.648 103.178C107.648 97.2981 112.081 92.5259 117.54 92.5259C122.999 92.5259 127.439 97.2907 127.439 103.178C127.439 109.066 123.006 113.838 117.54 113.838V113.831Z" fill="white"/>
<path opacity="0.3" d="M102.743 129.462V122.851L99.5812 122.526C99.1616 120.368 98.3611 118.301 97.2172 116.424L99.2487 113.787L94.9124 109.11L92.4598 111.327C90.757 110.11 88.828 109.246 86.7864 108.785L86.4909 105.387H80.3521L80.0492 108.785C78.0103 109.247 76.0841 110.111 74.3832 111.327L71.9306 109.11L67.5869 113.757L69.6184 116.394C68.4768 118.272 67.6788 120.338 67.2618 122.496L64.1001 122.821V129.433L67.2618 129.75C67.6652 131.933 68.4638 134.023 69.6184 135.919L67.5869 138.563L71.9306 143.232L74.3832 141.016C76.0841 142.231 78.0103 143.095 80.0492 143.557L80.3521 146.963H86.4909L86.7864 143.557C88.828 143.097 90.757 142.233 92.4598 141.016L94.9124 143.232L99.2487 138.563L97.2468 135.919C98.3931 134.042 99.1938 131.976 99.6107 129.817L102.743 129.462ZM83.4178 135.099C78.8303 135.099 75.1071 131.095 75.1071 126.153C75.1071 121.211 78.8008 117.207 83.4178 117.207C88.0348 117.207 91.7285 121.211 91.7285 126.153C91.7285 131.095 88.0127 135.099 83.4178 135.099Z" fill="white"/>
<path d="M173.705 163.102C174.322 163.397 174.874 163.813 175.327 164.326C175.78 164.839 176.125 165.438 176.341 166.087C176.766 167.391 176.885 168.776 176.689 170.134C176.394 172.758 174.902 175.406 173.299 177.514C171.089 175.587 170.58 172.22 170.429 170.498C170.191 167.776 171.413 162.708 173.709 163.118" fill="#F2F2F2"/>
<path d="M175.865 181.835C175.714 181.085 175.765 180.308 176.011 179.584C176.257 178.859 176.691 178.213 177.267 177.71C177.851 177.217 178.528 176.846 179.257 176.618C179.987 176.39 180.754 176.309 181.515 176.382C182.22 176.435 182.979 176.64 183.381 177.202C183.553 177.484 183.647 177.808 183.652 178.139C183.657 178.47 183.573 178.796 183.409 179.084C183.075 179.655 182.596 180.128 182.019 180.453C180.105 181.654 178.03 182.466 175.869 181.818" fill="#F2F2F2"/>
<path d="M173.032 189.879C173.042 189.698 173.069 189.518 173.11 189.342C173.18 188.961 173.27 188.473 173.377 187.882C173.624 186.26 174.133 184.689 174.881 183.229C175.661 181.77 176.814 180.545 178.223 179.678C178.651 179.425 179.108 179.223 179.584 179.076C179.752 179.018 179.887 178.998 179.994 178.973C180.101 178.948 180.133 178.948 180.133 178.973C179.041 179.327 178.03 179.895 177.16 180.644C176.29 181.393 175.578 182.308 175.066 183.335C174.328 184.781 173.81 186.329 173.528 187.927C173.393 188.538 173.282 189.034 173.2 189.371C173.159 189.545 173.103 189.715 173.032 189.879Z" fill="#263238"/>
<path d="M173.11 167.042C173.129 167.12 173.139 167.2 173.139 167.28C173.139 167.452 173.163 167.69 173.18 167.956C173.208 168.543 173.245 169.391 173.278 170.445C173.344 172.548 173.397 175.455 173.385 178.645C173.372 181.835 173.295 184.762 173.204 186.865C173.163 187.919 173.122 188.768 173.085 189.354C173.065 189.633 173.053 189.854 173.04 190.031C173.069 189.797 172.999 190.182 172.999 190.031C172.999 189.879 172.999 189.621 172.999 189.35C172.999 188.739 173.032 187.895 173.057 186.861C173.11 184.758 173.167 181.855 173.184 178.661C173.2 175.467 173.163 172.548 173.131 170.461C173.131 169.428 173.102 168.579 173.09 167.969C173.09 167.69 173.09 167.468 173.09 167.292C173.091 167.208 173.097 167.125 173.11 167.042Z" fill="#263238"/>
<path d="M172.044 183.43C171.776 181.84 171.134 180.337 170.17 179.044C169.206 177.751 167.948 176.707 166.501 175.997C165.763 175.644 164.799 175.41 164.193 175.96C163.586 176.509 163.717 177.497 164.016 178.264C164.666 179.848 165.77 181.204 167.189 182.162C168.608 183.12 170.279 183.637 171.991 183.647" fill="#F2F2F2"/>
<path d="M166.858 178.485C167.021 178.537 167.179 178.606 167.329 178.69C167.511 178.773 167.688 178.867 167.858 178.973C168.089 179.097 168.314 179.234 168.53 179.383C168.799 179.562 169.058 179.757 169.305 179.965C169.593 180.198 169.867 180.447 170.125 180.711C170.72 181.319 171.244 181.991 171.687 182.716C172.117 183.449 172.461 184.229 172.712 185.041C172.821 185.395 172.909 185.755 172.975 186.119C173.037 186.435 173.081 186.754 173.106 187.075C173.147 187.37 173.131 187.636 173.143 187.87C173.156 188.071 173.156 188.272 173.143 188.473C173.14 188.644 173.12 188.814 173.085 188.981C173.04 188.981 173.114 188.251 172.987 187.091C172.953 186.774 172.902 186.459 172.835 186.148C172.774 185.812 172.667 185.459 172.561 185.09C172.304 184.296 171.961 183.533 171.536 182.815C171.102 182.102 170.592 181.438 170.015 180.834C169.763 180.57 169.497 180.32 169.219 180.084C168.965 179.855 168.703 179.674 168.469 179.494C167.505 178.825 166.837 178.522 166.858 178.485Z" fill="#263238"/>
<path d="M15.4902 190.804C15.2905 184.621 54.9722 178.321 104.122 176.734C153.271 175.146 193.277 178.872 193.477 185.055C193.676 191.238 153.995 197.538 104.845 199.125C55.6955 200.713 15.69 196.987 15.4902 190.804Z" fill="#AFAFAF" stroke="#AFAFAF" stroke-miterlimit="10"/>
<path d="M191.23 168.711C191.23 168.711 190.148 171.054 189.374 171.854C188.6 172.653 174.64 176.109 174.64 176.109L129.397 186.014L123.917 185.424L104.759 186.039C104.759 186.039 100.934 176.688 105.107 167.476C109.28 158.263 130.156 154.659 136.057 156.535C141.958 158.412 155.779 164.451 165.709 161.149C175.64 157.848 183.56 151.362 186.872 152.224C190.184 153.085 191.763 158.417 191.763 160.719C191.763 163.02 191.23 168.711 191.23 168.711Z" fill="#AFAFAF" stroke="#AFAFAF" stroke-miterlimit="10"/>
<path d="M93.9774 181.522C94.3721 172.012 100.734 164.292 108.183 164.271H116.263L116.119 167.675C119.277 170.808 121.195 175.811 120.964 181.451C120.733 187.09 118.401 192.109 114.976 195.257L114.833 198.707H106.758C99.304 198.722 93.5826 191.032 93.9774 181.522Z" fill="#AFAFAF" stroke="#AFAFAF" stroke-miterlimit="10"/>
<path d="M113.643 198.631C106.256 197.813 101.118 189.471 102.167 179.998C103.217 170.526 110.056 163.51 117.443 164.328C124.83 165.147 129.968 173.489 128.919 182.961C127.87 192.434 121.031 199.449 113.643 198.631Z" fill="#878787" stroke="#AFAFAF" stroke-miterlimit="10"/>
<path d="M105.107 187.346C104.979 186.921 104.861 186.485 104.764 186.039C104.668 185.588 104.586 185.132 104.518 184.67C104.379 183.626 104.331 182.571 104.374 181.517C104.454 179.306 104.943 177.128 105.815 175.094L105.84 175.043C106.025 174.617 106.23 174.202 106.451 173.802L106.492 173.725C106.712 173.33 106.943 172.946 107.189 172.577L107.23 172.515C109.414 169.301 112.618 167.235 116.119 167.229C119.118 167.229 121.759 168.721 123.676 171.167C123.804 171.326 123.927 171.495 124.045 171.679C124.163 171.849 124.281 172.023 124.394 172.192C124.507 172.366 124.614 172.546 124.717 172.705C124.819 172.884 124.917 173.064 125.009 173.248V173.279C125.101 173.458 125.188 173.638 125.276 173.828V173.869C125.358 174.048 125.435 174.233 125.511 174.417C125.511 174.417 125.511 174.458 125.537 174.484C125.609 174.663 125.675 174.843 125.742 175.027L125.773 175.114C125.834 175.289 125.891 175.468 125.947 175.653C125.947 175.688 125.973 175.724 125.983 175.76C126.034 175.935 126.08 176.114 126.132 176.273C126.141 176.32 126.153 176.366 126.168 176.411C126.209 176.581 126.25 176.755 126.286 176.924C126.286 176.975 126.311 177.032 126.321 177.083C126.357 177.252 126.388 177.421 126.419 177.596L126.45 177.785C126.48 177.944 126.501 178.113 126.521 178.298L126.552 178.508C126.552 178.667 126.588 178.831 126.603 178.995C126.603 179.072 126.603 179.149 126.603 179.226C126.603 179.385 126.603 179.549 126.634 179.708V179.954C126.634 180.123 126.634 180.297 126.634 180.467C126.634 180.543 126.634 180.615 126.634 180.687C126.634 180.933 126.634 181.2 126.634 181.435C126.634 181.671 126.603 182.035 126.573 182.333C126.573 182.404 126.573 182.476 126.573 182.548C126.547 182.804 126.516 183.061 126.48 183.312V183.43C126.383 184.055 126.255 184.665 126.101 185.265C125.428 188.068 123.998 190.632 121.969 192.678L121.897 192.745C121.661 192.97 121.42 193.181 121.169 193.386L121.118 193.422C119.391 194.871 117.22 195.686 114.966 195.729C112.75 195.716 110.614 194.898 108.957 193.427C107.135 191.796 105.802 189.691 105.107 187.346Z" fill="white" stroke="#AFAFAF" stroke-miterlimit="10"/>
<path d="M105.651 181.948C105.715 180.349 106.033 178.771 106.594 177.272L111.034 180.056C110.832 180.664 110.716 181.298 110.69 181.938C110.69 182.035 110.69 182.127 110.69 182.22L105.646 183.04C105.635 182.681 105.635 182.317 105.651 181.948Z" fill="#AFAFAF" stroke="#AFAFAF" stroke-miterlimit="10"/>
<path d="M113.505 176.847C113.029 177.112 112.604 177.46 112.249 177.872L109.121 173.064C110.15 171.909 111.44 171.017 112.884 170.464L113.505 176.847Z" fill="#AFAFAF" stroke="#AFAFAF" stroke-miterlimit="10"/>
<path d="M111.326 185.07C111.542 185.509 111.822 185.913 112.156 186.27L109.593 192.017C108.303 190.905 107.301 189.498 106.671 187.915L111.326 185.07Z" fill="#AFAFAF" stroke="#AFAFAF" stroke-miterlimit="10"/>
<path d="M118.878 178.949L123.404 175.801C124.102 177.453 124.47 179.226 124.486 181.02L119.426 181.164C119.381 180.398 119.195 179.647 118.878 178.949Z" fill="#AFAFAF" stroke="#AFAFAF" stroke-miterlimit="10"/>
<path d="M117.34 177.032C116.973 176.775 116.563 176.588 116.13 176.478L116.868 170.121C118.484 170.42 119.967 171.214 121.113 172.392L117.34 177.032Z" fill="#AFAFAF" stroke="#AFAFAF" stroke-miterlimit="10"/>
<path d="M114.356 187.454C114.516 187.475 114.677 187.485 114.838 187.485C115.295 187.483 115.747 187.395 116.171 187.223L118.631 192.724C117.403 193.472 115.994 193.873 114.556 193.883C114.166 193.885 113.777 193.856 113.392 193.796L114.356 187.454Z" fill="#AFAFAF" stroke="#AFAFAF" stroke-miterlimit="10"/>
<path d="M118.913 184.306L123.922 185.424C123.438 187.176 122.606 188.813 121.477 190.238L118.267 185.496C118.527 185.125 118.744 184.726 118.913 184.306Z" fill="#AFAFAF" stroke="#AFAFAF" stroke-miterlimit="10"/>
<path d="M169.744 171.91C169.929 163.943 172.912 157.468 176.409 157.453H184.468L183.796 186.306H175.737C172.241 186.321 169.56 179.861 169.744 171.91Z" fill="#AFAFAF" stroke="#AFAFAF" stroke-miterlimit="10"/>
<path d="M177.803 171.91C177.619 179.877 180.3 186.321 183.796 186.306C187.293 186.29 190.276 179.82 190.461 171.849C190.646 163.877 187.964 157.438 184.468 157.453C180.972 157.468 177.988 163.969 177.803 171.91Z" fill="#878787" stroke="#AFAFAF" stroke-miterlimit="10"/>
<path d="M179.234 176.785C179.172 176.427 179.116 176.063 179.07 175.688C179.023 175.314 178.988 174.93 178.957 174.54C178.895 173.689 178.87 172.807 178.89 171.9C178.924 170.086 179.154 168.281 179.577 166.517V166.476C179.664 166.117 179.762 165.768 179.864 165.45V165.384C179.972 165.056 180.08 164.733 180.197 164.425V164.374C181.223 161.677 182.725 159.949 184.371 159.939C185.775 159.939 187.021 161.19 187.913 163.241C187.975 163.379 188.031 163.518 188.087 163.656C188.144 163.8 188.2 163.943 188.251 164.092C188.303 164.24 188.354 164.389 188.4 164.538C188.446 164.686 188.492 164.835 188.538 164.994C188.586 165.144 188.627 165.298 188.662 165.455V165.491C188.703 165.64 188.738 165.794 188.774 165.953C188.772 165.97 188.772 165.987 188.774 166.004C188.81 166.153 188.841 166.306 188.872 166.46C188.874 166.484 188.874 166.508 188.872 166.532C188.902 166.681 188.928 166.835 188.959 166.983V167.075C188.959 167.224 189.005 167.373 189.026 167.522V167.634C189.026 167.778 189.067 167.921 189.082 168.065C189.084 168.111 189.084 168.157 189.082 168.203C189.082 168.342 189.113 168.485 189.123 168.624C189.123 168.68 189.123 168.731 189.123 168.783L189.154 169.198V169.372C189.154 169.511 189.154 169.644 189.154 169.782C189.154 169.921 189.154 169.911 189.154 169.972C189.154 170.11 189.154 170.244 189.154 170.382C189.154 170.521 189.154 170.515 189.154 170.582C189.154 170.726 189.154 170.869 189.154 171.018C189.154 171.079 189.154 171.141 189.154 171.202C189.154 171.408 189.154 171.618 189.154 171.823C189.154 172.028 189.154 172.335 189.154 172.582C189.154 172.638 189.154 172.699 189.154 172.761L189.108 173.397C189.108 173.433 189.108 173.463 189.108 173.499C189.061 174.012 189 174.525 188.928 175.037C188.663 177.209 187.997 179.312 186.965 181.24L186.934 181.302C186.821 181.487 186.708 181.666 186.59 181.815V181.845C185.744 183.06 184.75 183.773 183.699 183.778C182.648 183.783 181.679 183.071 180.884 181.851C180.014 180.284 179.453 178.564 179.234 176.785Z" fill="white" stroke="#AFAFAF" stroke-miterlimit="10"/>
<path d="M16.1753 176.011C16.5701 166.501 22.9322 158.781 30.3813 158.76H38.4609C45.915 158.76 51.6364 166.45 51.2416 175.945C50.8469 185.439 44.4847 193.191 37.0305 193.191H28.9561C21.5019 193.216 15.7806 185.501 16.1753 176.011Z" fill="#AFAFAF" stroke="#AFAFAF" stroke-miterlimit="10"/>
<path d="M167.16 116.66C167.16 116.66 170.749 117.716 171.226 118.767C171.703 119.818 171.974 120.572 171.974 120.572L182.807 136.367C182.807 136.367 186.718 136.07 187.933 139.376C189.149 142.683 188.682 147.2 188.682 147.2C188.682 147.2 191.543 154.269 191.691 159.534C191.793 162.6 191.642 165.67 191.24 168.711C191.24 168.711 191.994 159.083 189.738 156.074C187.482 153.064 182.817 155.325 181.023 160.739C179.228 166.153 177.075 176.232 177.075 176.232L129.397 186.013C129.397 186.013 131.807 173.376 128.644 166.153C125.481 158.929 110.747 159.386 108.035 172.474C105.323 185.562 106.23 187.967 106.23 187.967C106.23 187.967 96.1511 190.074 65.4629 189.623C34.7748 189.171 17.9286 185.562 13.412 184.358C13.412 184.358 12.3867 178.79 12.0586 175.483C11.8593 173.58 12.1707 171.658 12.9609 169.916C12.9609 169.916 13.2634 163.897 14.017 161.79C14.7706 159.683 17.0263 156.525 17.0263 156.525C17.0263 156.525 19.2821 151.26 23.0399 147.953C26.7977 144.647 32.9702 141.335 34.4774 140.581C35.9847 139.827 37.9328 139.376 40.7935 137.423C43.6542 135.47 61.4026 123.13 66.9702 119.823C72.5377 116.517 84.57 114.856 86.9641 114.404C89.3582 113.953 117.052 112 126.68 112C136.308 112 156.179 112.451 167.16 116.66Z" fill="#F2F2F2" stroke="#AFAFAF" stroke-miterlimit="10"/>
<path opacity="0.15" d="M12.0637 175.483C11.8643 173.58 12.1758 171.659 12.966 169.916C12.966 169.916 13.0634 167.988 13.2838 165.938C32.1089 171.49 65.7859 171.864 75.1779 171.033C85.9695 170.085 105.112 167.476 105.938 164.369C106.763 161.262 114.187 154.213 119.267 152.306C123.62 150.675 174.122 143.683 188.477 141.714C188.741 143.529 188.797 145.367 188.646 147.195C188.646 147.195 191.507 154.264 191.655 159.529C191.757 162.595 191.606 165.665 191.204 168.706C191.204 168.706 191.958 159.078 189.702 156.069C187.446 153.059 182.781 155.32 180.987 160.734C179.193 166.148 177.075 176.232 177.075 176.232L129.397 186.014C129.397 186.014 131.807 173.376 128.644 166.153C125.481 158.929 110.747 159.386 108.035 172.474C105.323 185.562 106.23 187.967 106.23 187.967C106.23 187.967 96.151 190.074 65.4629 189.623C34.7748 189.172 17.9286 185.562 13.412 184.358C13.4171 184.358 12.3662 178.79 12.0637 175.483Z" fill="black"/>
<path d="M134.216 121.474C140.271 117.137 145.495 116.476 147.946 116.276C150.278 120.464 154.098 128.39 154.861 136.608C142.045 138.607 127.747 140.884 127.747 140.884C127.747 140.884 124.44 142.083 123.235 140.884C122.84 140.562 122.53 140.148 122.333 139.679C122.03 138.925 127.295 126.442 134.216 121.474Z" fill="white" stroke="#AFAFAF" stroke-miterlimit="10"/>
<path d="M152.062 116.291C155.517 116.476 158.954 116.91 162.346 117.588C165.807 118.342 167.012 118.49 167.611 119.095C168.211 119.7 174.081 127.057 176.188 132.307C176.102 132.684 175.892 133.022 175.592 133.267C175.293 133.512 174.92 133.651 174.532 133.66C174.02 133.66 167.724 134.614 159.88 135.829C158.568 131.158 155.933 122.956 152.062 116.291Z" fill="white" stroke="#AFAFAF" stroke-miterlimit="10"/>
<path d="M171.174 133.896C171.174 133.896 168.611 124.017 163.433 118.142" stroke="#AFAFAF" stroke-miterlimit="10"/>
<path d="M154.723 143.708L159.004 142.95C159.143 142.991 159.273 143.06 159.385 143.152C159.497 143.244 159.59 143.358 159.659 143.486C159.727 143.614 159.769 143.755 159.782 143.9C159.796 144.044 159.78 144.19 159.737 144.329C159.419 145.38 158.85 145.262 158.85 145.262L155.287 145.836C155.053 145.86 154.819 145.796 154.629 145.657C154.44 145.517 154.309 145.313 154.262 145.082C154.077 144.221 153.836 144.113 154.723 143.708Z" stroke="#AFAFAF" stroke-miterlimit="10"/>
<path d="M176.363 139.976L179.639 139.361C179.861 139.437 180.044 139.598 180.149 139.808C180.253 140.018 180.271 140.261 180.197 140.484C179.956 141.335 179.521 141.243 179.521 141.243L176.798 141.709C176.614 141.727 176.429 141.673 176.283 141.558C176.137 141.444 176.041 141.278 176.014 141.094C175.865 140.386 175.681 140.31 176.363 139.976Z" stroke="#AFAFAF" stroke-miterlimit="10"/>
<path d="M150.186 115.778C150.186 115.778 156.287 127.124 157.363 136.541" stroke="#AFAFAF" stroke-miterlimit="10"/>
<path d="M158.747 138.49C158.747 138.49 161.531 143.196 161.639 144.8C161.747 146.405 161.424 165.671 160.89 169.203" stroke="#AFAFAF" stroke-miterlimit="10"/>
<path d="M128.459 128C128.459 128 130.602 134.209 131.243 137.526" stroke="#AFAFAF" stroke-miterlimit="10"/>
<path d="M129.315 145.231C129.315 145.231 131.674 153.044 131.776 158.929C131.879 164.815 131.991 175.847 131.991 175.847" stroke="#AFAFAF" stroke-miterlimit="10"/>
<path d="M176.516 134.419C176.516 134.419 181.546 139.033 181.971 140.519C182.397 142.006 181.869 154.874 181.869 154.874" stroke="#AFAFAF" stroke-miterlimit="10"/>
<path d="M175.537 169.418C175.537 169.418 174.789 171.561 173.184 172.095C171.579 172.628 132.617 180.123 132.617 180.123" stroke="#AFAFAF" stroke-miterlimit="10"/>
<path d="M62.6946 176.211C62.6946 176.211 32.8626 176.621 21.7788 173.202C21.7788 173.202 22.8708 180.589 24.9265 182.097C26.9823 183.604 41.8957 185.137 49.1448 185.378C57.3475 185.655 62.0127 184.834 62.0127 184.834L62.6946 176.211Z" fill="#AFAFAF" stroke="#AFAFAF" stroke-miterlimit="10"/>
<path d="M68.0314 157.596L65.022 163.748C65.022 163.748 48.1912 164.159 46.2739 164.292C44.3565 164.425 42.3058 165.389 40.1219 164.292C37.9379 163.195 28.4895 161.97 27.3924 161.97C26.2953 161.97 24.9316 162.928 24.9316 162.928C24.9316 162.928 27.3924 156.776 28.3511 156.223C29.0693 155.859 29.8788 155.714 30.6786 155.807C31.0836 155.818 51.0622 154.315 68.0314 157.596Z" fill="#AFAFAF" stroke="#AFAFAF" stroke-miterlimit="10"/>
<path d="M99.7551 145.308C99.7551 145.308 106.932 144.206 109.665 145.169C112.397 146.133 111.044 149.85 106.363 153.29C101.683 156.73 97.8274 160.032 93.034 160.585C88.2406 161.139 79.9354 162.943 79.5253 161.405C79.1152 159.867 80.6275 154.387 86.1335 150.393C91.6396 146.4 99.7551 145.308 99.7551 145.308Z" fill="white" stroke="#AFAFAF" stroke-miterlimit="10"/>
<path d="M42.2443 137.459L43.6183 137.874L50.2829 138.064C53.7844 138.166 58.4087 138.295 63.5199 138.428C70.5742 138.617 78.5513 138.812 85.7542 138.94C96.7663 139.171 105.984 139.289 107.368 139.084C110.15 138.726 112.763 137.552 114.879 135.711C116.472 134.285 117.797 132.585 118.79 130.692C122.056 124.658 130.423 117.229 130.423 117.229C117.211 115.691 85.6927 116.265 82.1143 116.404C81.0041 116.46 79.8993 116.594 78.8076 116.804C74.9883 117.48 70.0052 118.982 67.1137 120.946C66.6011 121.295 65.7757 121.843 64.7401 122.535C62.3203 124.15 58.7316 126.529 55.1276 128.918L48.8423 133.076L42.2443 137.459Z" fill="white" stroke="#AFAFAF" stroke-miterlimit="10"/>
<path d="M67.1393 120.946C66.6266 121.295 65.8012 121.843 64.7656 122.535L85.7131 138.941C96.7252 139.171 105.943 139.289 107.327 139.084C110.109 138.726 112.722 137.553 114.838 135.711L78.8332 116.804C75.0138 117.48 70.0307 118.983 67.1393 120.946Z" fill="#AFAFAF" stroke="#AFAFAF" stroke-miterlimit="10"/>
<path d="M48.8679 133.076L50.2419 138.064C53.7434 138.166 58.3676 138.295 63.4789 138.428L55.1532 128.918L48.8679 133.076Z" fill="#AFAFAF" stroke="#AFAFAF" stroke-miterlimit="10"/>
<path d="M71.8917 153.48C71.0561 154.331 70.2461 155.228 69.4771 156.181" stroke="#AFAFAF" stroke-miterlimit="10"/>
<path d="M92.1882 141.314C92.1882 141.314 81.7709 144.39 73.3375 152.08" stroke="#AFAFAF" stroke-miterlimit="10"/>
<path d="M25.4648 155.935C24.3643 158.003 23.5666 160.218 23.0963 162.513" stroke="#AFAFAF" stroke-miterlimit="10"/>
<path d="M41.3984 141.868C41.3984 141.868 32.1705 145.457 26.6388 153.946" stroke="#AFAFAF" stroke-miterlimit="10"/>
<path d="M83.9291 178.887C83.9291 180.487 85.4671 181.779 87.3691 181.779C89.2711 181.779 90.8091 180.487 90.8091 178.887C90.8091 177.288 89.2711 175.996 87.3691 175.996C85.4671 175.996 83.9291 177.298 83.9291 178.887Z" fill="white" stroke="#AFAFAF" stroke-miterlimit="10"/>
<path d="M12.6686 174.191C12.9609 175.57 13.8888 176.539 14.7449 176.355C15.6011 176.17 16.0574 174.914 15.7703 173.535C15.4832 172.156 14.5501 171.192 13.7196 171.372C12.8891 171.551 12.3764 172.817 12.6686 174.191Z" fill="white" stroke="#AFAFAF" stroke-miterlimit="10"/>
<path d="M130.91 139.361C130.91 139.361 133.765 134.547 135.57 134.234C137.374 133.921 145.049 133.634 146.705 134.69C148.361 135.747 147.905 139.202 147.305 140.104C146.705 141.006 144.295 141.458 142.178 141.309C140.061 141.16 133.001 141.76 133.001 141.76C133.001 141.76 128.792 144.769 127.285 144.467C125.778 144.165 123.825 140.878 125.183 139.048C126.542 137.218 128.649 137.72 130.91 139.361Z" fill="#AFAFAF" stroke="#AFAFAF" stroke-miterlimit="10"/>
<path d="M130.91 139.376L125.942 140.432" stroke="#AFAFAF" stroke-miterlimit="10"/>
<path d="M167.16 116.66C167.16 116.66 170.749 117.716 171.226 118.767C171.703 119.818 171.974 120.572 171.974 120.572L182.807 136.367C182.807 136.367 186.718 136.07 187.933 139.376C189.149 142.683 188.682 147.2 188.682 147.2C188.682 147.2 191.543 154.269 191.691 159.534C191.793 162.6 191.642 165.67 191.24 168.711C191.24 168.711 191.994 159.083 189.738 156.074C187.482 153.064 182.817 155.325 181.023 160.739C179.228 166.153 177.075 176.232 177.075 176.232L129.397 186.013C129.397 186.013 131.807 173.376 128.644 166.153C125.481 158.929 110.747 159.386 108.035 172.474C105.323 185.562 106.23 187.967 106.23 187.967C106.23 187.967 96.1511 190.074 65.4629 189.623C34.7748 189.171 17.9286 185.562 13.412 184.358C13.412 184.358 12.3867 178.79 12.0586 175.483C11.8593 173.58 12.1707 171.658 12.9609 169.916C12.9609 169.916 13.2634 163.897 14.017 161.79C14.7706 159.683 17.0263 156.525 17.0263 156.525C17.0263 156.525 19.2821 151.26 23.0399 147.953C26.7977 144.647 32.9702 141.335 34.4775 140.581C35.9847 139.827 37.9328 139.376 40.7935 137.423C43.6542 135.47 61.4026 123.13 66.9702 119.823C72.5377 116.517 84.57 114.856 86.9641 114.404C89.3582 113.953 117.052 112 126.68 112C136.308 112 156.179 112.451 167.16 116.66Z" stroke="#AFAFAF" stroke-miterlimit="10"/>
<path d="M28.4639 144.067C28.4639 144.067 31.4886 145.17 30.6632 146.272C29.8378 147.374 25.2956 150.26 23.2347 153.839C21.1738 157.417 20.7534 159.206 19.7947 159.206C18.836 159.206 16.7444 157.422 17.0315 156.525C17.3185 155.628 18.8309 147.507 28.4639 144.067Z" fill="white" stroke="#AFAFAF" stroke-miterlimit="10"/>
<path d="M179.9 171.659C179.927 170.26 180.071 168.866 180.331 167.491L182.381 169.972C182.28 170.529 182.22 171.093 182.202 171.659C182.202 171.746 182.202 171.828 182.202 171.91L179.89 172.643C179.895 172.3 179.895 171.971 179.9 171.659Z" fill="#AFAFAF" stroke="#AFAFAF" stroke-miterlimit="10"/>
<path d="M183.509 167.096C183.27 167.367 183.075 167.673 182.93 168.004L181.5 163.713C181.877 162.813 182.47 162.021 183.227 161.406L183.509 167.096Z" fill="#AFAFAF" stroke="#AFAFAF" stroke-miterlimit="10"/>
<path d="M182.504 174.427C182.595 174.796 182.722 175.155 182.884 175.499L181.705 180.625C181.058 179.488 180.605 178.251 180.367 176.965L182.504 174.427Z" fill="#AFAFAF" stroke="#AFAFAF" stroke-miterlimit="10"/>
<path d="M185.965 168.967L188.016 166.158C188.345 167.688 188.516 169.248 188.528 170.813L186.211 170.941C186.193 170.277 186.111 169.616 185.965 168.967Z" fill="#AFAFAF" stroke="#AFAFAF" stroke-miterlimit="10"/>
<path d="M185.278 167.26C185.139 167.046 184.949 166.87 184.724 166.747L185.063 161.057C185.796 161.308 186.462 162.026 187.011 163.082L185.278 167.26Z" fill="#AFAFAF" stroke="#AFAFAF" stroke-miterlimit="10"/>
<path d="M183.894 176.55C183.965 176.57 184.04 176.581 184.114 176.58C184.338 176.574 184.554 176.49 184.724 176.344L185.862 181.256C185.642 181.551 185.361 181.795 185.038 181.972C184.716 182.149 184.358 182.255 183.991 182.281C183.817 182.277 183.645 182.25 183.478 182.199L183.894 176.55Z" fill="#AFAFAF" stroke="#AFAFAF" stroke-miterlimit="10"/>
<path d="M185.98 173.745L188.277 174.735C188.078 176.205 187.701 177.646 187.154 179.026L185.683 174.796C185.807 174.453 185.906 174.102 185.98 173.745Z" fill="#AFAFAF" stroke="#AFAFAF" stroke-miterlimit="10"/>
</svg>
