<svg width="332" height="107" viewBox="0 0 332 107" fill="none" xmlns="http://www.w3.org/2000/svg">
<path d="M34.4 5.64287C34.6691 5.64399 34.9382 5.64511 35.2155 5.64627C42.5874 5.74482 49.1624 8.63178 54.4571 13.7143C55.2435 13.3745 55.7583 12.9219 56.3714 12.3286C62.3533 6.87941 70.1373 5.35634 78 5.7143C83.6073 6.13275 88.8026 8.58114 93.0857 12.1143C93.2516 12.2425 93.4175 12.3706 93.5884 12.5027C97.7196 15.8294 100.442 21.3329 101.086 26.5143C101.199 28.0611 101.173 29.6131 101.164 31.1629C101.163 31.6205 101.163 32.0782 101.164 32.5358C101.164 33.7677 101.16 34.9996 101.155 36.2314C101.151 37.5227 101.151 38.814 101.15 40.1053C101.148 42.5459 101.142 44.9864 101.135 47.427C101.127 50.2074 101.124 52.9879 101.12 55.7684C101.113 61.4837 101.101 67.199 101.086 72.9143C97.088 72.9143 93.0903 72.9143 88.9714 72.9143C88.9714 54.736 88.9714 36.5577 88.9714 17.8286C79.6183 17.8286 70.2651 17.8286 60.6286 17.8286C60.6286 36.0069 60.6286 54.1852 60.6286 72.9143C56.7063 72.9143 52.784 72.9143 48.7429 72.9143C48.7429 54.736 48.7429 36.5577 48.7429 17.8286C39.3897 17.8286 30.0366 17.8286 20.4 17.8286C20.4 36.0069 20.4 54.1852 20.4 72.9143C16.4023 72.9143 12.4046 72.9143 8.28572 72.9143C8.26504 66.9018 8.24822 60.8893 8.23835 54.8768C8.23364 52.0848 8.22724 49.2928 8.21675 46.5007C8.2076 44.0658 8.20173 41.6309 8.1997 39.1959C8.19851 37.9079 8.19574 36.62 8.18905 35.332C8.18279 34.1168 8.18094 32.9017 8.18231 31.6866C8.18206 31.2433 8.18027 30.8001 8.17673 30.3568C8.12557 23.6124 10.3978 17.8635 15.1429 13.0286C18.2988 9.93764 22.2793 7.95801 26.4714 6.68572C26.6195 6.64028 26.7675 6.59483 26.92 6.548C29.3732 5.84224 31.8565 5.63015 34.4 5.64287Z" fill="#00C977"/>
<path d="M267.714 5.71426C272.602 5.69875 277.49 5.68613 282.378 5.67874C284.648 5.67521 286.918 5.6704 289.188 5.66253C291.167 5.65567 293.147 5.65127 295.127 5.64975C296.174 5.64886 297.221 5.64678 298.268 5.64176C299.256 5.63706 300.244 5.63568 301.232 5.6367C301.592 5.63652 301.952 5.63518 302.313 5.63252C308.044 5.59235 313.227 7.31347 317.543 11.2C317.721 11.357 317.9 11.5141 318.084 11.6759C321.355 14.726 323.557 19.2955 323.797 23.7642C323.837 25.0628 323.828 26.3608 323.818 27.6598C323.818 28.1558 323.818 28.6517 323.818 29.1477C323.819 30.483 323.813 31.8182 323.807 33.1535C323.801 34.5531 323.801 35.9527 323.8 37.3523C323.797 39.9976 323.789 42.643 323.78 45.2883C323.77 48.3021 323.765 51.3158 323.76 54.3295C323.751 60.5245 323.734 66.7194 323.714 72.9143C319.717 72.9143 315.719 72.9143 311.6 72.9143C311.525 72.2354 311.449 71.5565 311.371 70.8571C311.18 70.9759 310.989 71.0946 310.792 71.2169C307.434 73.2492 303.927 74.353 299.98 74.3557C299.743 74.3576 299.507 74.3595 299.263 74.3615C298.488 74.367 297.712 74.369 296.937 74.3705C296.392 74.3726 295.847 74.3747 295.302 74.3768C294.161 74.3805 293.02 74.3823 291.879 74.383C290.428 74.3842 288.977 74.3928 287.526 74.4032C286.401 74.4101 285.275 74.4117 284.149 74.4119C283.615 74.4129 283.08 74.4157 282.546 74.4205C276.654 74.4694 271.462 73.3581 267.029 69.2571C266.854 69.103 266.679 68.9489 266.498 68.7902C262.737 65.2979 260.576 60.1564 260.371 55.0607C260.273 49.509 261.917 44.3252 265.802 40.2997C266.131 39.968 266.465 39.641 266.8 39.3143C266.955 39.1575 267.109 39.0008 267.269 38.8393C270.961 35.3293 276.263 33.9383 281.214 33.9793C281.548 33.9795 281.882 33.9794 282.215 33.979C283.111 33.9788 284.008 33.9828 284.904 33.9876C285.844 33.9919 286.784 33.9923 287.724 33.9931C289.5 33.9952 291.276 34.0008 293.052 34.0077C295.455 34.0169 297.858 34.0205 300.261 34.0245C304.041 34.031 307.82 34.0446 311.6 34.0571C311.6 28.7017 311.6 23.3463 311.6 17.8285C297.118 17.8285 282.635 17.8285 267.714 17.8285C267.714 13.8308 267.714 9.83312 267.714 5.71426ZM274.286 49.2C272.969 50.8649 272.605 52.6372 272.654 54.716C272.655 54.931 272.656 55.1459 272.657 55.3673C272.663 56.045 272.674 56.7224 272.686 57.4C272.69 57.8631 272.694 58.3262 272.698 58.7893C272.708 59.9168 272.724 61.044 272.743 62.1714C276.842 62.1928 280.941 62.2089 285.04 62.2188C286.943 62.2235 288.847 62.2299 290.75 62.2404C292.41 62.2495 294.07 62.2554 295.73 62.2574C296.608 62.2586 297.486 62.2614 298.365 62.2681C299.193 62.2743 300.021 62.2762 300.849 62.2748C301.295 62.2752 301.74 62.2801 302.185 62.2852C304.759 62.2732 307.122 61.6196 309.086 59.8857C311.691 56.9881 311.696 54.186 311.643 50.4857C311.639 50.0667 311.636 49.6476 311.633 49.2285C311.626 48.2094 311.614 47.1905 311.6 46.1714C307.441 46.15 303.283 46.1339 299.124 46.124C297.193 46.1193 295.262 46.1129 293.331 46.1024C291.647 46.0933 289.963 46.0874 288.279 46.0854C287.388 46.0842 286.497 46.0814 285.606 46.0747C284.766 46.0685 283.925 46.0666 283.085 46.068C282.633 46.0676 282.181 46.0627 281.73 46.0577C278.686 46.0716 276.378 46.9821 274.286 49.2Z" fill="#00C977"/>
<path d="M134.98 5.6105C135.431 5.61076 135.882 5.61061 136.333 5.6101C137.545 5.60984 138.756 5.61517 139.968 5.62159C141.239 5.62735 142.51 5.62785 143.78 5.62893C146.181 5.63176 148.582 5.63925 150.983 5.64845C153.719 5.65871 156.454 5.66371 159.19 5.66829C164.813 5.67782 170.435 5.69457 176.057 5.7143C176.057 9.71201 176.057 13.7097 176.057 17.8286C159.237 17.8286 142.416 17.8286 125.086 17.8286C125.086 23.1086 125.086 28.3886 125.086 33.8286C139.493 33.8286 153.899 33.8286 168.743 33.8286C168.743 37.9017 168.743 41.9749 168.743 46.1714C154.336 46.1714 139.929 46.1714 125.086 46.1714C124.53 53.666 124.53 53.666 127.359 59.6902C129.172 61.3276 131.163 62.0129 133.59 62.0065C133.864 62.0085 133.864 62.0085 134.143 62.0105C134.751 62.0144 135.359 62.0151 135.966 62.0157C136.404 62.0179 136.841 62.0202 137.278 62.0227C138.462 62.0289 139.646 62.0324 140.831 62.0354C142.069 62.039 143.308 62.0451 144.546 62.0509C146.89 62.0616 149.235 62.07 151.579 62.0776C154.248 62.0863 156.918 62.0976 159.587 62.1091C165.077 62.1327 170.567 62.1528 176.057 62.1714C176.057 66.1692 176.057 70.1669 176.057 74.2857C170.164 74.3064 164.271 74.3232 158.377 74.3331C155.641 74.3378 152.904 74.3442 150.167 74.3547C147.781 74.3638 145.394 74.3697 143.007 74.3717C141.745 74.3729 140.482 74.3757 139.22 74.3824C138.029 74.3886 136.838 74.3905 135.646 74.3891C135.212 74.3894 134.778 74.3912 134.343 74.3947C130.807 74.4221 127.455 74.0429 124.243 72.4429C124.064 72.3557 123.884 72.2685 123.699 72.1787C121.916 71.2753 120.407 70.1202 118.914 68.8C118.677 68.5967 118.677 68.5967 118.435 68.3893C115.117 65.3356 113.121 60.6559 112.743 56.2286C112.708 55.1868 112.707 54.1455 112.706 53.1032C112.705 52.7895 112.704 52.4757 112.703 52.162C112.7 51.3137 112.698 50.4654 112.697 49.6171C112.696 49.0852 112.695 48.5532 112.694 48.0213C112.691 46.3514 112.689 44.6815 112.688 43.0116C112.687 41.0945 112.683 39.1775 112.677 37.2604C112.672 35.7718 112.669 34.2833 112.669 32.7947C112.669 31.9089 112.668 31.0231 112.663 30.1373C112.624 21.0664 112.624 21.0664 114.571 17.1429C114.673 16.9322 114.774 16.7215 114.878 16.5045C117.285 11.7769 121.578 8.5112 126.457 6.62858C129.304 5.73675 132.015 5.58633 134.98 5.6105Z" fill="#00C977"/>
<path d="M208.592 5.67379C208.849 5.67229 209.106 5.67079 209.37 5.66924C210.217 5.66475 211.064 5.66207 211.912 5.65979C212.348 5.65839 212.348 5.65839 212.793 5.65696C214.176 5.65269 215.559 5.64936 216.942 5.64745C218.527 5.64523 220.112 5.63923 221.697 5.62997C223.078 5.62217 224.46 5.61953 225.842 5.61861C226.425 5.6175 227.007 5.61487 227.59 5.6106C234.543 5.56285 240.268 6.90292 245.451 11.775C250.033 16.5139 251.029 21.532 251.029 28.1143C247.031 28.1143 243.033 28.1143 238.914 28.1143C238.914 24.72 238.914 21.3257 238.914 17.8285C226.091 17.8285 213.269 17.8285 200.057 17.8285C200.057 32.4617 200.057 47.0948 200.057 62.1714C212.88 62.1714 225.703 62.1714 238.914 62.1714C238.914 58.8525 238.914 55.5337 238.914 52.1142C242.912 52.1142 246.91 52.1142 251.029 52.1142C251.029 58.9287 249.886 63.6883 245.086 68.5714C244.932 68.7284 244.778 68.8855 244.619 69.0473C240.906 72.5786 235.853 74.399 230.776 74.378C230.37 74.3804 230.37 74.3804 229.955 74.3828C229.068 74.3869 228.182 74.3861 227.296 74.3848C226.831 74.3854 226.366 74.3863 225.901 74.3874C224.442 74.3906 222.983 74.3902 221.524 74.3876C220.03 74.385 218.535 74.3882 217.041 74.3943C215.748 74.3994 214.455 74.4009 213.163 74.3996C212.395 74.3988 211.627 74.3997 210.859 74.4033C204.023 74.4307 198.249 73.001 193.2 68.1142C189.086 63.8043 187.64 58.6415 187.652 52.7868C187.651 52.4774 187.649 52.168 187.648 51.8586C187.645 51.0274 187.645 50.1961 187.645 49.3649C187.646 48.6664 187.644 47.9679 187.643 47.2694C187.641 45.6187 187.641 43.968 187.642 42.3174C187.644 40.6252 187.641 38.9331 187.636 37.2409C187.632 35.7785 187.63 34.3162 187.631 32.8538C187.632 31.9846 187.631 31.1154 187.628 30.2462C187.604 23.0568 188.256 17.3002 193.429 11.8857C193.552 11.7451 193.675 11.6046 193.803 11.4598C195.052 10.091 196.648 9.16646 198.229 8.22854C198.419 8.1148 198.61 8.00107 198.807 7.88389C201.832 6.23704 205.195 5.68249 208.592 5.67379Z" fill="#00C977"/>
<path d="M172.314 103V89.14H181.674V91.76H175.434V94.48H180.974V97.04H175.434V100.38H182.134V103H172.314ZM187.263 100.86C187.81 100.86 188.197 100.807 188.423 100.7C188.65 100.593 188.763 100.387 188.763 100.08C188.763 99.84 188.617 99.6333 188.323 99.46C188.03 99.2733 187.583 99.0667 186.983 98.84C186.517 98.6667 186.09 98.4867 185.703 98.3C185.33 98.1133 185.01 97.8933 184.743 97.64C184.477 97.3733 184.27 97.06 184.123 96.7C183.977 96.34 183.903 95.9067 183.903 95.4C183.903 94.4133 184.27 93.6333 185.003 93.06C185.737 92.4867 186.743 92.2 188.023 92.2C188.663 92.2 189.277 92.26 189.863 92.38C190.45 92.4867 190.917 92.6067 191.263 92.74L190.743 95.06C190.397 94.94 190.017 94.8333 189.603 94.74C189.203 94.6467 188.75 94.6 188.243 94.6C187.31 94.6 186.843 94.86 186.843 95.38C186.843 95.5 186.863 95.6067 186.903 95.7C186.943 95.7933 187.023 95.8867 187.143 95.98C187.263 96.06 187.423 96.1533 187.623 96.26C187.837 96.3533 188.103 96.46 188.423 96.58C189.077 96.82 189.617 97.06 190.043 97.3C190.47 97.5267 190.803 97.78 191.043 98.06C191.297 98.3267 191.47 98.6267 191.563 98.96C191.67 99.2933 191.723 99.68 191.723 100.12C191.723 101.16 191.33 101.947 190.543 102.48C189.77 103.013 188.67 103.28 187.243 103.28C186.31 103.28 185.53 103.2 184.903 103.04C184.29 102.88 183.863 102.747 183.623 102.64L184.123 100.22C184.63 100.42 185.15 100.58 185.683 100.7C186.217 100.807 186.743 100.86 187.263 100.86ZM193.85 89.86L196.83 89.38V92.48H200.41V94.96H196.83V98.66C196.83 99.2867 196.937 99.7867 197.15 100.16C197.377 100.533 197.824 100.72 198.49 100.72C198.81 100.72 199.137 100.693 199.47 100.64C199.817 100.573 200.13 100.487 200.41 100.38L200.83 102.7C200.47 102.847 200.07 102.973 199.63 103.08C199.19 103.187 198.65 103.24 198.01 103.24C197.197 103.24 196.524 103.133 195.99 102.92C195.457 102.693 195.03 102.387 194.71 102C194.39 101.6 194.164 101.12 194.03 100.56C193.91 100 193.85 99.38 193.85 98.7V89.86ZM206.466 100.92C206.76 100.92 207.04 100.913 207.306 100.9C207.573 100.887 207.786 100.867 207.946 100.84V98.58C207.826 98.5533 207.646 98.5267 207.406 98.5C207.166 98.4733 206.946 98.46 206.746 98.46C206.466 98.46 206.2 98.48 205.946 98.52C205.706 98.5467 205.493 98.6067 205.306 98.7C205.12 98.7933 204.973 98.92 204.866 99.08C204.76 99.24 204.706 99.44 204.706 99.68C204.706 100.147 204.86 100.473 205.166 100.66C205.486 100.833 205.92 100.92 206.466 100.92ZM206.226 92.2C207.106 92.2 207.84 92.3 208.426 92.5C209.013 92.7 209.48 92.9867 209.826 93.36C210.186 93.7333 210.44 94.1867 210.586 94.72C210.733 95.2533 210.806 95.8467 210.806 96.5V102.7C210.38 102.793 209.786 102.9 209.026 103.02C208.266 103.153 207.346 103.22 206.266 103.22C205.586 103.22 204.966 103.16 204.406 103.04C203.86 102.92 203.386 102.727 202.986 102.46C202.586 102.18 202.28 101.82 202.066 101.38C201.853 100.94 201.746 100.4 201.746 99.76C201.746 99.1467 201.866 98.6267 202.106 98.2C202.36 97.7733 202.693 97.4333 203.106 97.18C203.52 96.9267 203.993 96.7467 204.526 96.64C205.06 96.52 205.613 96.46 206.186 96.46C206.573 96.46 206.913 96.48 207.206 96.52C207.513 96.5467 207.76 96.5867 207.946 96.64V96.36C207.946 95.8533 207.793 95.4467 207.486 95.14C207.18 94.8333 206.646 94.68 205.886 94.68C205.38 94.68 204.88 94.72 204.386 94.8C203.893 94.8667 203.466 94.9667 203.106 95.1L202.726 92.7C202.9 92.6467 203.113 92.5933 203.366 92.54C203.633 92.4733 203.92 92.42 204.226 92.38C204.533 92.3267 204.853 92.2867 205.186 92.26C205.533 92.22 205.88 92.2 206.226 92.2ZM220.241 97.66C220.241 95.74 219.534 94.78 218.121 94.78C217.814 94.78 217.508 94.82 217.201 94.9C216.908 94.98 216.668 95.08 216.481 95.2V100.62C216.628 100.647 216.814 100.673 217.041 100.7C217.268 100.713 217.514 100.72 217.781 100.72C218.594 100.72 219.208 100.44 219.621 99.88C220.034 99.32 220.241 98.58 220.241 97.66ZM223.281 97.74C223.281 98.58 223.154 99.34 222.901 100.02C222.661 100.7 222.308 101.28 221.841 101.76C221.374 102.24 220.801 102.613 220.121 102.88C219.441 103.133 218.668 103.26 217.801 103.26C217.441 103.26 217.061 103.24 216.661 103.2C216.274 103.173 215.888 103.133 215.501 103.08C215.128 103.027 214.768 102.967 214.421 102.9C214.074 102.82 213.768 102.74 213.501 102.66V87.96L216.481 87.48V92.72C216.814 92.5733 217.161 92.46 217.521 92.38C217.881 92.3 218.268 92.26 218.681 92.26C219.428 92.26 220.088 92.3933 220.661 92.66C221.234 92.9133 221.714 93.28 222.101 93.76C222.488 94.24 222.781 94.82 222.981 95.5C223.181 96.1667 223.281 96.9133 223.281 97.74ZM225.071 97.82C225.071 96.8867 225.211 96.0733 225.491 95.38C225.785 94.6733 226.165 94.0867 226.631 93.62C227.098 93.1533 227.631 92.8 228.231 92.56C228.845 92.32 229.471 92.2 230.111 92.2C231.605 92.2 232.785 92.66 233.651 93.58C234.518 94.4867 234.951 95.8267 234.951 97.6C234.951 97.7733 234.945 97.9667 234.931 98.18C234.918 98.38 234.905 98.56 234.891 98.72H228.131C228.198 99.3333 228.485 99.82 228.991 100.18C229.498 100.54 230.178 100.72 231.031 100.72C231.578 100.72 232.111 100.673 232.631 100.58C233.165 100.473 233.598 100.347 233.931 100.2L234.331 102.62C234.171 102.7 233.958 102.78 233.691 102.86C233.425 102.94 233.125 103.007 232.791 103.06C232.471 103.127 232.125 103.18 231.751 103.22C231.378 103.26 231.005 103.28 230.631 103.28C229.685 103.28 228.858 103.14 228.151 102.86C227.458 102.58 226.878 102.2 226.411 101.72C225.958 101.227 225.618 100.647 225.391 99.98C225.178 99.3133 225.071 98.5933 225.071 97.82ZM232.071 96.68C232.058 96.4267 232.011 96.18 231.931 95.94C231.865 95.7 231.751 95.4867 231.591 95.3C231.445 95.1133 231.251 94.96 231.011 94.84C230.785 94.72 230.498 94.66 230.151 94.66C229.818 94.66 229.531 94.72 229.291 94.84C229.051 94.9467 228.851 95.0933 228.691 95.28C228.531 95.4667 228.405 95.6867 228.311 95.94C228.231 96.18 228.171 96.4267 228.131 96.68H232.071ZM241.451 103.2C240.584 103.187 239.878 103.093 239.331 102.92C238.798 102.747 238.371 102.507 238.051 102.2C237.744 101.88 237.531 101.5 237.411 101.06C237.304 100.607 237.251 100.1 237.251 99.54V87.96L240.231 87.48V98.94C240.231 99.2067 240.251 99.4467 240.291 99.66C240.331 99.8733 240.404 100.053 240.511 100.2C240.631 100.347 240.798 100.467 241.011 100.56C241.224 100.653 241.511 100.713 241.871 100.74L241.451 103.2ZM243.079 97.82C243.079 96.8867 243.219 96.0733 243.499 95.38C243.792 94.6733 244.172 94.0867 244.639 93.62C245.106 93.1533 245.639 92.8 246.239 92.56C246.852 92.32 247.479 92.2 248.119 92.2C249.612 92.2 250.792 92.66 251.659 93.58C252.526 94.4867 252.959 95.8267 252.959 97.6C252.959 97.7733 252.952 97.9667 252.939 98.18C252.926 98.38 252.912 98.56 252.899 98.72H246.139C246.206 99.3333 246.492 99.82 246.999 100.18C247.506 100.54 248.186 100.72 249.039 100.72C249.586 100.72 250.119 100.673 250.639 100.58C251.172 100.473 251.606 100.347 251.939 100.2L252.339 102.62C252.179 102.7 251.966 102.78 251.699 102.86C251.432 102.94 251.132 103.007 250.799 103.06C250.479 103.127 250.132 103.18 249.759 103.22C249.386 103.26 249.012 103.28 248.639 103.28C247.692 103.28 246.866 103.14 246.159 102.86C245.466 102.58 244.886 102.2 244.419 101.72C243.966 101.227 243.626 100.647 243.399 99.98C243.186 99.3133 243.079 98.5933 243.079 97.82ZM250.079 96.68C250.066 96.4267 250.019 96.18 249.939 95.94C249.872 95.7 249.759 95.4867 249.599 95.3C249.452 95.1133 249.259 94.96 249.019 94.84C248.792 94.72 248.506 94.66 248.159 94.66C247.826 94.66 247.539 94.72 247.299 94.84C247.059 94.9467 246.859 95.0933 246.699 95.28C246.539 95.4667 246.412 95.6867 246.319 95.94C246.239 96.18 246.179 96.4267 246.139 96.68H250.079ZM254.759 97.74C254.759 96.98 254.879 96.2667 255.119 95.6C255.372 94.92 255.732 94.3333 256.199 93.84C256.665 93.3333 257.232 92.9333 257.899 92.64C258.565 92.3467 259.325 92.2 260.179 92.2C260.739 92.2 261.252 92.2533 261.719 92.36C262.185 92.4533 262.639 92.5933 263.079 92.78L262.459 95.16C262.179 95.0533 261.872 94.96 261.539 94.88C261.205 94.8 260.832 94.76 260.419 94.76C259.539 94.76 258.879 95.0333 258.439 95.58C258.012 96.1267 257.799 96.8467 257.799 97.74C257.799 98.6867 257.999 99.42 258.399 99.94C258.812 100.46 259.525 100.72 260.539 100.72C260.899 100.72 261.285 100.687 261.699 100.62C262.112 100.553 262.492 100.447 262.839 100.3L263.259 102.74C262.912 102.887 262.479 103.013 261.959 103.12C261.439 103.227 260.865 103.28 260.239 103.28C259.279 103.28 258.452 103.14 257.759 102.86C257.065 102.567 256.492 102.173 256.039 101.68C255.599 101.187 255.272 100.607 255.059 99.94C254.859 99.26 254.759 98.5267 254.759 97.74ZM268.239 103H265.259V92.48H268.239V103ZM268.519 89.44C268.519 89.9867 268.339 90.42 267.979 90.74C267.632 91.0467 267.219 91.2 266.739 91.2C266.259 91.2 265.839 91.0467 265.479 90.74C265.132 90.42 264.959 89.9867 264.959 89.44C264.959 88.8933 265.132 88.4667 265.479 88.16C265.839 87.84 266.259 87.68 266.739 87.68C267.219 87.68 267.632 87.84 267.979 88.16C268.339 88.4667 268.519 88.8933 268.519 89.44ZM276.82 97.42C276.82 96.46 276.693 95.78 276.44 95.38C276.2 94.98 275.78 94.78 275.18 94.78C274.993 94.78 274.8 94.7933 274.6 94.82C274.4 94.8333 274.207 94.8533 274.02 94.88V103H271.04V92.84C271.293 92.7733 271.587 92.7067 271.92 92.64C272.267 92.56 272.627 92.4933 273 92.44C273.387 92.3733 273.78 92.3267 274.18 92.3C274.58 92.26 274.973 92.24 275.36 92.24C276.12 92.24 276.733 92.34 277.2 92.54C277.68 92.7267 278.073 92.9533 278.38 93.22C278.807 92.9133 279.293 92.6733 279.84 92.5C280.4 92.3267 280.913 92.24 281.38 92.24C282.22 92.24 282.907 92.36 283.44 92.6C283.987 92.8267 284.42 93.1533 284.74 93.58C285.06 94.0067 285.28 94.5133 285.4 95.1C285.52 95.6867 285.58 96.34 285.58 97.06V103H282.6V97.42C282.6 96.46 282.473 95.78 282.22 95.38C281.98 94.98 281.56 94.78 280.96 94.78C280.8 94.78 280.573 94.82 280.28 94.9C280 94.98 279.767 95.08 279.58 95.2C279.673 95.5067 279.733 95.8333 279.76 96.18C279.787 96.5133 279.8 96.8733 279.8 97.26V103H276.82V97.42ZM287.786 97.82C287.786 96.8867 287.926 96.0733 288.206 95.38C288.499 94.6733 288.879 94.0867 289.346 93.62C289.813 93.1533 290.346 92.8 290.946 92.56C291.559 92.32 292.186 92.2 292.826 92.2C294.319 92.2 295.499 92.66 296.366 93.58C297.233 94.4867 297.666 95.8267 297.666 97.6C297.666 97.7733 297.659 97.9667 297.646 98.18C297.633 98.38 297.619 98.56 297.606 98.72H290.846C290.913 99.3333 291.199 99.82 291.706 100.18C292.213 100.54 292.893 100.72 293.746 100.72C294.293 100.72 294.826 100.673 295.346 100.58C295.879 100.473 296.313 100.347 296.646 100.2L297.046 102.62C296.886 102.7 296.673 102.78 296.406 102.86C296.139 102.94 295.839 103.007 295.506 103.06C295.186 103.127 294.839 103.18 294.466 103.22C294.093 103.26 293.719 103.28 293.346 103.28C292.399 103.28 291.573 103.14 290.866 102.86C290.173 102.58 289.593 102.2 289.126 101.72C288.673 101.227 288.333 100.647 288.106 99.98C287.893 99.3133 287.786 98.5933 287.786 97.82ZM294.786 96.68C294.773 96.4267 294.726 96.18 294.646 95.94C294.579 95.7 294.466 95.4867 294.306 95.3C294.159 95.1133 293.966 94.96 293.726 94.84C293.499 94.72 293.213 94.66 292.866 94.66C292.533 94.66 292.246 94.72 292.006 94.84C291.766 94.9467 291.566 95.0933 291.406 95.28C291.246 95.4667 291.119 95.6867 291.026 95.94C290.946 96.18 290.886 96.4267 290.846 96.68H294.786ZM299.966 92.84C300.473 92.6933 301.126 92.56 301.926 92.44C302.726 92.3067 303.566 92.24 304.446 92.24C305.339 92.24 306.079 92.36 306.666 92.6C307.266 92.8267 307.739 93.1533 308.086 93.58C308.433 94.0067 308.679 94.5133 308.826 95.1C308.973 95.6867 309.046 96.34 309.046 97.06V103H306.066V97.42C306.066 96.46 305.939 95.78 305.686 95.38C305.433 94.98 304.959 94.78 304.266 94.78C304.053 94.78 303.826 94.7933 303.586 94.82C303.346 94.8333 303.133 94.8533 302.946 94.88V103H299.966V92.84ZM311.643 89.86L314.623 89.38V92.48H318.203V94.96H314.623V98.66C314.623 99.2867 314.73 99.7867 314.943 100.16C315.17 100.533 315.617 100.72 316.283 100.72C316.603 100.72 316.93 100.693 317.263 100.64C317.61 100.573 317.923 100.487 318.203 100.38L318.623 102.7C318.263 102.847 317.863 102.973 317.423 103.08C316.983 103.187 316.443 103.24 315.803 103.24C314.99 103.24 314.317 103.133 313.783 102.92C313.25 102.693 312.823 102.387 312.503 102C312.183 101.6 311.957 101.12 311.823 100.56C311.703 100 311.643 99.38 311.643 98.7V89.86ZM330.079 97.72C330.079 98.5467 329.959 99.3067 329.719 100C329.479 100.68 329.133 101.267 328.679 101.76C328.226 102.24 327.679 102.613 327.039 102.88C326.413 103.147 325.706 103.28 324.919 103.28C324.146 103.28 323.439 103.147 322.799 102.88C322.173 102.613 321.633 102.24 321.179 101.76C320.726 101.267 320.373 100.68 320.119 100C319.866 99.3067 319.739 98.5467 319.739 97.72C319.739 96.8933 319.866 96.14 320.119 95.46C320.386 94.78 320.746 94.2 321.199 93.72C321.666 93.24 322.213 92.8667 322.839 92.6C323.479 92.3333 324.173 92.2 324.919 92.2C325.679 92.2 326.373 92.3333 326.999 92.6C327.639 92.8667 328.186 93.24 328.639 93.72C329.093 94.2 329.446 94.78 329.699 95.46C329.953 96.14 330.079 96.8933 330.079 97.72ZM327.039 97.72C327.039 96.8 326.853 96.08 326.479 95.56C326.119 95.0267 325.599 94.76 324.919 94.76C324.239 94.76 323.713 95.0267 323.339 95.56C322.966 96.08 322.779 96.8 322.779 97.72C322.779 98.64 322.966 99.3733 323.339 99.92C323.713 100.453 324.239 100.72 324.919 100.72C325.599 100.72 326.119 100.453 326.479 99.92C326.853 99.3733 327.039 98.64 327.039 97.72Z" fill="#00C977"/>
</svg>
