<svg width="206" height="205" viewBox="0 0 206 205" fill="none" xmlns="http://www.w3.org/2000/svg">
<g clip-path="url(#clip0_1148_29226)">
<path d="M44.0092 112.803C44.0092 112.803 40.2864 113.787 43.4188 121.823C46.5512 129.859 48.8718 133.918 48.8718 133.918C48.8718 133.918 49.3843 135.763 47.8632 135.886C46.3421 136.009 43.1031 135.157 42.2544 136.92C41.4057 138.683 42.5701 140.671 45.2064 142.52C47.8427 144.369 53.4638 148.637 53.9722 149.023C54.4806 149.408 54.9193 150.286 53.8943 150.536C52.8693 150.786 45.395 150.814 45.6205 154.361C45.846 157.907 54.0337 161.856 54.9193 162.307C55.8049 162.758 55.9853 163.168 55.8623 163.664C55.7393 164.16 53.2219 163.939 51.094 164.033C48.9661 164.127 46.5184 164.611 46.8218 166.645C47.1252 168.678 51.7418 173.36 63.8368 175.783L69.5194 176.542L73.1069 172.032C80.1917 161.925 80.3065 155.357 79.1216 153.676C77.9367 151.995 75.8416 153.332 74.2221 154.73C72.6026 156.128 70.9421 158.01 70.5321 157.756C70.1221 157.502 69.9417 157.055 70.2738 156.116C70.6059 155.177 73.8121 146.686 71.5284 143.951C69.2447 141.216 63.8122 146.366 62.8979 146.887C61.9836 147.407 61.7007 146.477 61.7991 145.845C61.8975 145.214 63.0291 138.248 63.6605 135.091C64.2919 131.934 63.8286 129.716 61.9303 128.998C60.1017 128.31 58.3469 131.163 57.1579 132.123C55.9689 133.082 55.071 131.393 55.071 131.393C55.071 131.393 53.9517 126.854 50.6758 118.875C47.3999 110.897 43.9477 112.816 43.9477 112.816" fill="#EBEBEB"/>
<path d="M69.6793 177.911C67.2972 172.044 63.23 161.54 59.6999 152.54C56.1698 143.541 52.9636 135.402 50.6102 129.523C49.4294 126.592 48.4782 124.193 47.814 122.553L47.0555 120.659L46.8628 120.167C46.8391 120.111 46.8186 120.053 46.8013 119.995C46.8013 119.995 46.83 120.048 46.8792 120.159C46.9284 120.269 46.9981 120.437 47.0883 120.647L47.8796 122.528C48.5602 124.168 49.5196 126.534 50.725 129.47C53.1071 135.337 56.3338 143.471 59.868 152.471C63.4022 161.47 67.4407 171.979 69.7982 177.858" fill="#E0E0E0"/>
<path d="M46.7357 138.297C46.8694 138.334 46.9986 138.384 47.1211 138.449C47.3671 138.556 47.7156 138.72 48.142 138.925C48.9989 139.335 50.1674 139.946 51.4466 140.638L54.7266 142.418L55.7188 142.947C55.8451 143.005 55.9647 143.076 56.0755 143.16C55.9418 143.122 55.8115 143.072 55.686 143.012C55.4441 142.906 55.0956 142.738 54.6692 142.529C53.8164 142.119 52.6561 141.483 51.3892 140.794L48.1092 139.039L47.117 138.511C46.9807 138.457 46.8524 138.386 46.7357 138.297Z" fill="#E0E0E0"/>
<path d="M56.4854 142.832C56.4403 142.811 57.5801 140.347 59.0315 137.329C60.4829 134.312 61.6924 131.881 61.7375 131.901C61.7826 131.922 60.6428 134.39 59.1914 137.407C57.74 140.425 56.5305 142.856 56.4854 142.832Z" fill="#E0E0E0"/>
<path d="M61.2866 156.895C61.3639 156.776 61.4532 156.667 61.5531 156.567L62.3239 155.71C62.9717 154.988 63.8614 153.984 64.7839 152.84C65.7064 151.696 66.5469 150.638 67.1332 149.863C67.412 149.502 67.6416 149.195 67.8302 148.949C67.9076 148.831 67.9984 148.722 68.1008 148.625C68.0449 148.755 67.9733 148.877 67.8876 148.99C67.7359 149.215 67.5186 149.543 67.2357 149.941C66.674 150.732 65.8704 151.811 64.9233 152.955C63.9762 154.098 63.0701 155.095 62.3977 155.796C62.0615 156.144 61.7868 156.427 61.5777 156.616C61.4909 156.719 61.3933 156.812 61.2866 156.895Z" fill="#E0E0E0"/>
<path d="M51.5654 154.734C51.7035 154.732 51.8413 154.747 51.9754 154.779L53.0209 154.968C53.9024 155.136 55.1201 155.378 56.4608 155.661C57.8015 155.944 59.011 156.206 59.8884 156.403L60.9216 156.649C61.0515 156.672 61.1782 156.71 61.2988 156.764C61.1608 156.766 61.023 156.751 60.8888 156.719L59.8433 156.526C58.9577 156.358 57.7441 156.116 56.4034 155.837C55.0627 155.558 53.8491 155.292 52.9758 155.091L51.9385 154.849C51.8098 154.827 51.6845 154.788 51.5654 154.734Z" fill="#E0E0E0"/>
<path d="M54.21 167.69C54.3784 167.696 54.5458 167.718 54.7102 167.756L56.0509 167.993C57.1825 168.202 58.7446 168.502 60.4625 168.842C62.1804 169.182 63.7425 169.506 64.87 169.748L66.1984 170.039C66.3634 170.068 66.5254 170.111 66.6822 170.17C66.5151 170.167 66.3489 170.146 66.1861 170.109L64.8454 169.871C63.7138 169.662 62.1517 169.363 60.4297 169.018C58.7077 168.674 57.1497 168.354 56.0263 168.116L54.6938 167.821C54.529 167.791 54.3672 167.747 54.21 167.69Z" fill="#E0E0E0"/>
<path d="M66.4198 170.023C66.5152 169.877 66.6236 169.74 66.7437 169.613L67.6785 168.494C68.4698 167.547 69.5522 166.235 70.7084 164.75C71.8646 163.266 72.8773 161.905 73.603 160.909L74.464 159.728C74.5637 159.583 74.6748 159.446 74.7961 159.318C74.72 159.48 74.628 159.634 74.5214 159.777C74.3328 160.068 74.0581 160.482 73.7014 161.007C73.0003 162.02 72.004 163.401 70.8314 164.886C69.6588 166.37 68.5723 167.67 67.7605 168.6C67.3505 169.059 67.0184 169.42 66.7806 169.683C66.6695 169.805 66.5488 169.919 66.4198 170.023Z" fill="#E0E0E0"/>
<path d="M157.48 120.534L128.69 137.929C127.229 138.812 126.76 140.712 127.643 142.173L156.112 189.292C156.994 190.753 158.895 191.222 160.356 190.339L189.146 172.944C190.607 172.061 191.076 170.161 190.193 168.7L161.725 121.582C160.842 120.12 158.941 119.651 157.48 120.534Z" fill="#EBEBEB"/>
<path d="M179.198 168.416C178.483 168.849 177.655 169.059 176.82 169.022C175.984 168.984 175.179 168.699 174.506 168.204C173.832 167.708 173.321 167.024 173.036 166.238C172.751 165.452 172.706 164.599 172.906 163.787C173.107 162.975 173.543 162.241 174.161 161.677C174.778 161.113 175.549 160.745 176.376 160.62C177.203 160.494 178.048 160.617 178.805 160.972C179.562 161.327 180.197 161.898 180.629 162.614C180.917 163.089 181.107 163.616 181.191 164.164C181.275 164.713 181.249 165.273 181.116 165.812C180.983 166.35 180.746 166.858 180.417 167.305C180.087 167.751 179.674 168.129 179.198 168.416Z" fill="white"/>
<path d="M179.67 173.59C179.311 173.591 178.952 173.547 178.604 173.459C177.518 173.188 176.577 172.512 175.972 171.571C175.367 170.629 175.144 169.492 175.349 168.392C175.553 167.292 176.17 166.311 177.072 165.65C177.975 164.988 179.096 164.696 180.207 164.833C181.317 164.969 182.334 165.525 183.05 166.385C183.765 167.246 184.125 168.347 184.057 169.464C183.988 170.581 183.496 171.63 182.681 172.397C181.866 173.163 180.789 173.59 179.67 173.59ZM179.67 165.136C178.958 165.137 178.259 165.328 177.645 165.688C177.03 166.047 176.522 166.564 176.173 167.184C175.824 167.805 175.645 168.507 175.656 169.219C175.667 169.931 175.866 170.627 176.234 171.237C176.785 172.14 177.669 172.79 178.696 173.047C179.722 173.304 180.808 173.147 181.72 172.61C182.401 172.199 182.944 171.594 183.281 170.874C183.619 170.154 183.735 169.349 183.615 168.563C183.495 167.776 183.145 167.043 182.608 166.456C182.072 165.868 181.373 165.453 180.601 165.263C180.287 165.181 179.965 165.138 179.641 165.136H179.67Z" fill="white"/>
<path d="M141.13 136.784L138.219 138.539L138.039 138.244L140.683 136.645L140.273 135.96L140.54 135.8L141.13 136.784Z" fill="white"/>
<path d="M140.31 141.372L140.043 141.532L138.813 139.482L139.023 139.351L140.937 139.847C141.09 139.91 141.255 139.939 141.42 139.931C141.585 139.924 141.747 139.879 141.893 139.802C142.229 139.597 142.303 139.236 142.028 138.793C141.945 138.638 141.828 138.504 141.686 138.4C141.544 138.296 141.381 138.226 141.208 138.195L141.261 137.871C141.481 137.916 141.687 138.01 141.867 138.145C142.046 138.279 142.193 138.452 142.298 138.65C142.655 139.24 142.581 139.798 142.098 140.089C141.915 140.189 141.713 140.248 141.505 140.261C141.297 140.274 141.089 140.24 140.896 140.163L139.326 139.753L140.31 141.372Z" fill="white"/>
<path d="M142.659 144.136L142.307 143.553L141.54 144.013L141.36 143.713L142.122 143.254L141.13 141.614L141.347 141.483L144.217 141.86L144.418 142.192L141.643 141.84L142.405 143.102L143.078 142.692L143.254 142.984L142.581 143.394L142.934 143.976L142.659 144.136Z" fill="white"/>
<path d="M145.353 148.592L145 148.01L144.238 148.473L144.057 148.174L144.82 147.711L143.828 146.071L144.045 145.939L146.915 146.317L147.116 146.649L144.34 146.296L145.103 147.559L145.779 147.149L145.952 147.44L145.279 147.85L145.64 148.42L145.353 148.592Z" fill="white"/>
<path d="M146.981 151.081C146.489 151.38 145.89 151.265 145.464 150.556C145.22 150.182 145.128 149.729 145.205 149.289H145.529C145.451 149.668 145.525 150.063 145.734 150.388C146.034 150.88 146.431 150.999 146.784 150.798C147.136 150.597 147.251 150.199 146.784 149.457L146.411 148.838L147.961 148.108L148.92 149.699L148.653 149.859L147.833 148.531L146.849 148.99L147.075 149.363C147.641 150.228 147.497 150.769 146.981 151.081Z" fill="white"/>
<path d="M148.731 153.947C148.605 154.021 148.465 154.069 148.319 154.087C148.174 154.104 148.026 154.092 147.886 154.049C147.746 154.007 147.616 153.936 147.504 153.84C147.393 153.745 147.303 153.628 147.239 153.496C146.772 152.721 147.054 151.979 147.973 151.421C148.961 150.827 149.801 151.056 150.277 151.831C150.433 152.065 150.524 152.337 150.539 152.618L150.224 152.643C150.22 152.412 150.149 152.186 150.019 151.995C149.642 151.368 148.994 151.208 148.207 151.683C148.127 151.731 148.051 151.783 147.977 151.839C148.188 151.825 148.399 151.874 148.582 151.979C148.766 152.084 148.915 152.241 149.01 152.43C149.101 152.544 149.166 152.677 149.201 152.818C149.237 152.96 149.241 153.108 149.215 153.251C149.188 153.395 149.132 153.531 149.048 153.651C148.965 153.771 148.857 153.872 148.731 153.947ZM148.543 153.66C148.634 153.604 148.712 153.53 148.772 153.441C148.832 153.353 148.873 153.252 148.89 153.147C148.908 153.042 148.903 152.934 148.876 152.831C148.848 152.727 148.799 152.631 148.731 152.549C148.694 152.443 148.633 152.348 148.553 152.269C148.474 152.19 148.377 152.13 148.272 152.094C148.166 152.058 148.053 152.045 147.942 152.058C147.831 152.071 147.724 152.109 147.629 152.169C147.535 152.229 147.455 152.309 147.396 152.404C147.336 152.499 147.299 152.606 147.287 152.718C147.275 152.829 147.288 152.941 147.325 153.047C147.362 153.153 147.422 153.248 147.501 153.328C147.545 153.421 147.607 153.504 147.684 153.572C147.761 153.64 147.851 153.691 147.949 153.722C148.047 153.754 148.15 153.764 148.253 153.753C148.355 153.743 148.454 153.711 148.543 153.66Z" fill="white"/>
<path d="M151.101 157.948C150.617 158.244 150.031 158.117 149.605 157.411C149.359 157.036 149.267 156.581 149.346 156.14H149.67C149.592 156.523 149.667 156.92 149.879 157.247C150.17 157.731 150.556 157.858 150.917 157.657C151.277 157.456 151.347 157.063 151.019 156.522L150.896 156.317L151.113 156.181L152.61 156.378L151.712 154.89L151.979 154.73L153.11 156.6L152.897 156.727L151.364 156.53C151.708 157.157 151.569 157.67 151.101 157.948Z" fill="white"/>
<path d="M152.897 160.847C152.771 160.922 152.63 160.969 152.484 160.987C152.339 161.004 152.191 160.991 152.051 160.948C151.91 160.905 151.78 160.834 151.669 160.738C151.558 160.642 151.468 160.524 151.405 160.392C150.937 159.621 151.22 158.875 152.138 158.321C153.127 157.723 153.971 157.952 154.447 158.731C154.601 158.965 154.69 159.235 154.705 159.515L154.393 159.539C154.387 159.308 154.316 159.084 154.188 158.891C153.807 158.264 153.163 158.104 152.372 158.584C152.307 158.621 152.225 158.678 152.143 158.736C152.354 158.724 152.564 158.773 152.748 158.878C152.932 158.982 153.082 159.138 153.18 159.326C153.27 159.441 153.335 159.574 153.37 159.716C153.405 159.859 153.41 160.007 153.383 160.151C153.356 160.295 153.299 160.431 153.215 160.551C153.131 160.671 153.023 160.772 152.897 160.847ZM152.712 160.556C152.803 160.5 152.881 160.425 152.941 160.337C153.001 160.248 153.04 160.148 153.058 160.042C153.075 159.937 153.07 159.829 153.042 159.726C153.015 159.623 152.965 159.527 152.897 159.445C152.86 159.337 152.8 159.239 152.72 159.159C152.64 159.078 152.543 159.017 152.435 158.979C152.328 158.941 152.214 158.929 152.101 158.942C151.988 158.955 151.88 158.993 151.784 159.054C151.688 159.115 151.607 159.197 151.548 159.294C151.488 159.39 151.451 159.5 151.44 159.613C151.429 159.726 151.444 159.84 151.483 159.946C151.522 160.053 151.585 160.149 151.667 160.228C151.711 160.321 151.774 160.404 151.851 160.471C151.929 160.539 152.02 160.59 152.118 160.621C152.216 160.651 152.32 160.662 152.422 160.65C152.524 160.639 152.623 160.607 152.712 160.556Z" fill="white"/>
<path d="M156.554 162.29L156.345 162.418L152.909 162.828L152.717 162.504L156.083 162.094L155.177 160.597L154.635 160.925L154.455 160.63L155.275 160.142L156.554 162.29Z" fill="white"/>
<path d="M159.067 166.46L158.858 166.587L155.423 166.997L155.23 166.673L158.596 166.263L157.69 164.767L157.145 165.099L156.968 164.804L157.788 164.312L159.067 166.46Z" fill="white"/>
<path d="M158.699 170.581C158.186 170.892 157.6 170.646 157.182 169.953C156.763 169.26 156.825 168.637 157.337 168.313C157.502 168.212 157.697 168.169 157.889 168.193C158.081 168.217 158.26 168.306 158.395 168.445C158.355 168.284 158.369 168.114 158.434 167.962C158.499 167.809 158.612 167.682 158.756 167.6C159.232 167.313 159.769 167.538 160.142 168.153C160.515 168.768 160.466 169.359 159.994 169.646C159.852 169.733 159.686 169.773 159.52 169.759C159.354 169.745 159.197 169.678 159.072 169.568C159.134 169.754 159.131 169.956 159.063 170.14C158.996 170.324 158.867 170.48 158.699 170.581ZM158.518 170.269C158.875 170.052 158.928 169.609 158.604 169.096C158.28 168.584 157.883 168.412 157.526 168.629C157.169 168.846 157.116 169.285 157.436 169.802C157.756 170.318 158.157 170.486 158.518 170.269ZM158.838 168.953C159.113 169.404 159.482 169.552 159.797 169.363C160.113 169.174 160.15 168.756 159.888 168.317C159.625 167.879 159.252 167.723 158.928 167.907C158.604 168.092 158.567 168.51 158.838 168.953Z" fill="white"/>
<path d="M161.076 173.02C160.088 173.619 159.244 173.389 158.768 172.61C158.615 172.375 158.526 172.104 158.51 171.823L158.821 171.798C158.828 172.029 158.899 172.254 159.026 172.446C159.408 173.074 160.051 173.233 160.843 172.758C160.908 172.717 160.99 172.664 161.072 172.602C160.861 172.615 160.65 172.565 160.466 172.461C160.282 172.356 160.132 172.2 160.035 172.012C159.947 171.897 159.884 171.765 159.85 171.625C159.816 171.484 159.812 171.338 159.839 171.196C159.866 171.054 159.922 170.919 160.005 170.8C160.087 170.681 160.194 170.582 160.318 170.507C160.444 170.432 160.584 170.383 160.73 170.365C160.876 170.347 161.023 170.36 161.164 170.402C161.304 170.445 161.434 170.516 161.546 170.612C161.657 170.708 161.747 170.825 161.81 170.958C162.278 171.704 161.995 172.446 161.076 173.02ZM161.404 172.262C161.494 172.199 161.569 172.119 161.626 172.027C161.682 171.934 161.72 171.83 161.735 171.723C161.75 171.615 161.742 171.505 161.713 171.4C161.684 171.296 161.633 171.198 161.564 171.114C161.524 171.012 161.462 170.921 161.382 170.847C161.302 170.772 161.207 170.716 161.103 170.682C160.999 170.649 160.889 170.639 160.781 170.652C160.672 170.666 160.569 170.704 160.476 170.763C160.384 170.821 160.306 170.899 160.248 170.992C160.19 171.084 160.152 171.188 160.139 171.296C160.125 171.405 160.136 171.515 160.169 171.618C160.203 171.722 160.26 171.817 160.334 171.897C160.381 171.991 160.446 172.075 160.525 172.143C160.604 172.212 160.697 172.263 160.797 172.295C160.896 172.328 161.002 172.339 161.106 172.33C161.21 172.321 161.312 172.291 161.404 172.241V172.262Z" fill="white"/>
<path d="M164.287 175.07L161.38 176.829L161.199 176.53L163.84 174.931L163.43 174.246L163.696 174.086L164.287 175.07Z" fill="white"/>
<path d="M163.455 179.674L163.188 179.838L161.958 177.788L162.171 177.661L164.086 178.153C164.239 178.216 164.403 178.245 164.569 178.237C164.734 178.23 164.895 178.186 165.041 178.108C165.377 177.907 165.451 177.542 165.172 177.1C165.091 176.944 164.974 176.809 164.832 176.705C164.69 176.601 164.526 176.531 164.352 176.501L164.406 176.181C164.626 176.226 164.834 176.319 165.014 176.454C165.194 176.588 165.342 176.761 165.447 176.96C165.804 177.551 165.73 178.104 165.242 178.399C165.06 178.499 164.859 178.557 164.651 178.569C164.444 178.581 164.237 178.547 164.045 178.469L162.475 178.059L163.455 179.674Z" fill="white"/>
<path d="M165.599 181.942C165.111 182.237 164.525 182.11 164.102 181.405C163.857 181.03 163.764 180.575 163.844 180.134H164.168C164.09 180.516 164.165 180.913 164.377 181.241C164.668 181.72 165.054 181.851 165.414 181.651C165.775 181.45 165.824 181.056 165.517 180.515L165.39 180.306L165.611 180.175L167.108 180.371L166.21 178.883L166.476 178.723L167.604 180.593L167.395 180.72L165.861 180.523C166.206 181.15 166.066 181.659 165.599 181.942Z" fill="white"/>
<path d="M150.187 161.599L148.918 162.366L163.077 185.782L164.346 185.015L150.187 161.599Z" fill="white"/>
<path d="M153.423 174.26L152.159 175.023L159.381 186.976L160.644 186.213L153.423 174.26Z" fill="white"/>
<path d="M154.728 137.091L150.924 130.795C150.343 129.834 149.093 129.526 148.132 130.106L144.307 132.417C143.345 132.998 143.037 134.248 143.618 135.21L147.421 141.505C148.002 142.466 149.252 142.775 150.214 142.194L154.039 139.883C155 139.302 155.308 138.052 154.728 137.091Z" fill="#E0E0E0"/>
<path d="M144.586 132.242L145.054 131.959L148.1 136.993C148.183 137.132 148.293 137.252 148.423 137.348C148.553 137.444 148.701 137.514 148.858 137.552C149.015 137.591 149.178 137.599 149.338 137.575C149.497 137.551 149.651 137.495 149.789 137.412C149.928 137.328 150.048 137.218 150.144 137.088C150.24 136.958 150.309 136.811 150.348 136.654C150.387 136.497 150.395 136.334 150.37 136.174C150.346 136.014 150.291 135.861 150.207 135.722L147.165 130.688L147.633 130.405L150.675 135.44C150.918 135.843 150.992 136.327 150.879 136.784C150.766 137.242 150.476 137.636 150.072 137.879C149.669 138.123 149.185 138.196 148.728 138.083C148.27 137.97 147.876 137.68 147.633 137.276L144.586 132.242Z" fill="#EBEBEB"/>
<path d="M151.212 137.451L150.739 137.736L152.839 141.209L153.312 140.924L151.212 137.451Z" fill="#EBEBEB"/>
<path d="M171.78 151.726L156.587 126.579L154.428 127.883L169.622 153.03L171.78 151.726Z" fill="white"/>
<path d="M96.6696 25.4201L96.1202 24.4074C96.0437 24.4132 95.967 24.4132 95.8906 24.4074L95.1116 24.3131L94.9968 25.2315L94.6934 25.1946L95.0501 22.2959L96.1325 22.4312C96.8705 22.5214 97.2682 22.9519 97.1944 23.571C97.1769 23.7752 97.0908 23.9674 96.9501 24.1163C96.8094 24.2652 96.6223 24.3621 96.4195 24.391L97.0017 25.4693L96.6696 25.4201ZM96.8869 23.5177C96.9443 23.0544 96.6696 22.751 96.0915 22.6977L95.3207 22.6034L95.1444 24.0548L95.9111 24.1491C96.4933 24.1901 96.85 23.9769 96.8869 23.5218V23.5177Z" fill="#E0E0E0"/>
<path d="M99.761 25.539L99.7282 25.8014L97.6782 25.5513L98.0349 22.6567L100.019 22.8986L99.9865 23.1651L98.3137 22.9601L98.1866 23.9933L99.6831 24.1778L99.6503 24.4361L98.1538 24.2516L98.0185 25.3258L99.761 25.539Z" fill="#E0E0E0"/>
<path d="M100.351 24.4116C100.373 24.213 100.435 24.021 100.534 23.8473C100.632 23.6736 100.765 23.5218 100.925 23.4013C101.084 23.2808 101.266 23.194 101.46 23.1464C101.654 23.0987 101.856 23.0912 102.053 23.1242C102.25 23.1412 102.441 23.1992 102.614 23.2945C102.787 23.3899 102.938 23.5204 103.057 23.6777L102.84 23.8499C102.743 23.7211 102.62 23.6144 102.478 23.5367C102.337 23.4589 102.181 23.412 102.02 23.3989C101.859 23.3723 101.695 23.3785 101.537 23.417C101.378 23.4556 101.23 23.5256 101.099 23.6231C100.969 23.7206 100.859 23.8434 100.777 23.9841C100.695 24.1249 100.643 24.2808 100.623 24.4424C100.602 24.604 100.615 24.7681 100.66 24.9246C100.705 25.0812 100.781 25.2272 100.883 25.3537C100.986 25.4802 101.113 25.5848 101.257 25.661C101.401 25.7372 101.558 25.7836 101.721 25.7974C101.88 25.823 102.042 25.8147 102.198 25.773C102.353 25.7313 102.498 25.6572 102.623 25.5555L102.791 25.7769C102.635 25.9003 102.456 25.9899 102.264 26.04C102.072 26.0902 101.872 26.0997 101.676 26.068C101.478 26.0503 101.286 25.9929 101.112 25.8992C100.937 25.8055 100.783 25.6773 100.66 25.5226C100.536 25.3678 100.445 25.1896 100.392 24.9986C100.339 24.8077 100.325 24.608 100.351 24.4116Z" fill="#E0E0E0"/>
<path d="M105.485 26.2403L105.452 26.5068L103.41 26.2403L103.767 23.3457L105.751 23.5917L105.718 23.8541L104.037 23.6491L103.91 24.6782L105.407 24.8627L105.378 25.1251L103.881 24.9406L103.746 26.0148L105.485 26.2403Z" fill="#E0E0E0"/>
<path d="M106.53 23.7021L106.834 23.7431L106.477 26.65L106.169 26.609L106.53 23.7021Z" fill="#E0E0E0"/>
<path d="M109.921 25.1289C109.843 25.748 109.351 26.0637 108.617 25.9735L107.838 25.8751L107.727 26.7894L107.42 26.7525L107.776 23.8579L108.859 23.9932C109.597 24.0834 109.999 24.5098 109.921 25.1289ZM109.613 25.092C109.671 24.6287 109.4 24.3294 108.818 24.272L108.051 24.1777L107.871 25.625L108.642 25.7193C109.22 25.7767 109.56 25.5471 109.613 25.092Z" fill="#E0E0E0"/>
<path d="M111.139 24.5428L110.122 24.4157L110.155 24.1533L112.496 24.4403L112.463 24.7068L111.446 24.6002L111.122 27.2324L110.815 27.1914L111.139 24.5428Z" fill="#E0E0E0"/>
<path d="M106.559 32.4924C106.559 32.5539 102.684 32.0824 97.9282 31.4264C93.1722 30.7704 89.3182 30.1964 89.3182 30.1472C89.3182 30.098 93.1886 30.5572 97.9282 31.2132C102.668 31.8692 106.563 32.435 106.559 32.4924Z" fill="#E0E0E0"/>
<path d="M106.091 35.945C106.091 36.0065 102.221 35.535 97.4813 34.879C92.7417 34.223 88.8713 33.649 88.8713 33.5998C88.8713 33.5506 92.7417 34.0098 97.4813 34.6658C102.221 35.3218 106.1 35.8876 106.091 35.945Z" fill="#E0E0E0"/>
<path d="M104.513 39.4668C104.513 39.5242 100.642 39.0568 95.9028 38.4008C91.1632 37.7448 87.2928 37.1708 87.2928 37.1175C87.2928 37.0642 91.1591 37.5275 95.9028 38.1876C100.647 38.8477 104.521 39.4094 104.513 39.4668Z" fill="#E0E0E0"/>
<path d="M101.639 43.0173C101.639 43.0788 97.7684 42.6073 93.0083 41.9513C88.2482 41.2953 84.3983 40.7213 84.3983 40.6721C84.3983 40.6229 88.2687 41.0821 93.0288 41.7381C97.7889 42.3941 101.647 42.9599 101.639 43.0173Z" fill="#E0E0E0"/>
<path d="M97.0591 46.5638C97.0591 46.6212 93.1887 46.1538 88.4491 45.4937C83.7095 44.8336 79.8391 44.2637 79.8391 44.2145C79.8391 44.1653 83.7095 44.6245 88.4491 45.2846C93.1887 45.9447 97.0673 46.5023 97.0591 46.5638Z" fill="#E0E0E0"/>
<path d="M114.279 33.6447C112.858 33.5563 111.449 33.3269 110.073 32.96C110.787 32.9695 111.498 33.0492 112.196 33.1978C112.904 33.277 113.601 33.4267 114.279 33.6447Z" fill="#E0E0E0"/>
<path d="M114.131 36.7236C113.422 36.7146 112.714 36.6363 112.02 36.4899C111.313 36.4107 110.615 36.2609 109.937 36.043C110.65 36.0479 111.361 36.1276 112.057 36.2808C112.761 36.3604 113.456 36.5087 114.131 36.7236Z" fill="#E0E0E0"/>
<path d="M113.086 41.0003C112.372 40.9875 111.66 40.9052 110.962 40.7543C110.257 40.6651 109.561 40.5184 108.879 40.3156C108.879 40.2418 109.839 40.3525 110.999 40.5411C111.708 40.6238 112.408 40.7777 113.086 41.0003Z" fill="#E0E0E0"/>
<path d="M111.577 44.5877C110.863 44.5749 110.152 44.4926 109.453 44.3417C108.748 44.2519 108.052 44.1052 107.371 43.903C107.371 43.8292 108.33 43.9399 109.49 44.1285C110.2 44.2107 110.899 44.3645 111.577 44.5877Z" fill="#E0E0E0"/>
<path d="M108.33 48.011C107.616 47.9984 106.904 47.916 106.206 47.765C105.501 47.6782 104.804 47.5314 104.123 47.3263C104.123 47.2525 105.083 47.3632 106.239 47.5559C106.949 47.6383 107.65 47.7907 108.33 48.011Z" fill="#E0E0E0"/>
<path d="M93.16 50.8933C93.16 50.9507 87.3544 50.1799 80.2122 49.1672C73.07 48.1545 67.2807 47.2894 67.2889 47.232C67.2971 47.1746 73.0946 47.9454 80.2409 48.9581C87.3872 49.9708 93.16 50.84 93.16 50.8933Z" fill="#E0E0E0"/>
<path d="M90.1506 54.5299C90.0545 54.5272 89.9587 54.519 89.8636 54.5053L89.0436 54.3987L86.0506 53.96L76.186 52.443C72.3361 51.8362 68.8552 51.2704 66.346 50.8481L63.3653 50.3356C63.0127 50.27 62.7421 50.2208 62.5453 50.1798C62.4498 50.1658 62.3563 50.1411 62.2665 50.106C62.3629 50.1093 62.4588 50.1203 62.5535 50.1388L63.3735 50.2536L66.3665 50.7005L76.2311 52.2298L86.0711 53.8124L89.0518 54.3167L89.8718 54.4643C89.9671 54.4744 90.0608 54.4964 90.1506 54.5299Z" fill="#E0E0E0"/>
<path d="M84.7386 57.8348C84.3808 57.8431 84.0233 57.8114 83.6726 57.7405C82.9797 57.6503 81.9752 57.5109 80.7329 57.3305C78.2524 56.9738 74.8289 56.4531 71.0528 55.8627C67.2767 55.2723 63.8532 54.7188 61.3809 54.3088L58.4535 53.8168L57.6622 53.6692C57.5684 53.6577 57.4762 53.6357 57.3875 53.6036C57.481 53.6007 57.5746 53.609 57.6662 53.6282L58.4658 53.7307L61.4055 54.1407L71.0856 55.629L80.7575 57.1624L84.7386 57.8348Z" fill="#E0E0E0"/>
<path d="M102.914 52.8899C102.2 52.8772 101.488 52.7948 100.79 52.6439C100.085 52.5542 99.3886 52.4075 98.7073 52.2052C98.7073 52.1314 99.6667 52.2421 100.827 52.4307C101.536 52.5123 102.236 52.6662 102.914 52.8899Z" fill="#E0E0E0"/>
<path d="M98.736 55.2107C98.0218 55.198 97.3105 55.1156 96.6122 54.9647C95.9072 54.875 95.2107 54.7283 94.5294 54.526C94.5294 54.4522 95.4888 54.5629 96.6491 54.7515C97.3586 54.8331 98.0578 54.987 98.736 55.2107Z" fill="#E0E0E0"/>
<path d="M93.1108 59.1262C92.3965 59.1135 91.6852 59.0311 90.987 58.8802C90.2816 58.7929 89.5849 58.6461 88.9042 58.4415C88.9042 58.3677 89.8636 58.4784 91.0239 58.6711C91.733 58.7525 92.4321 58.905 93.1108 59.1262Z" fill="#E0E0E0"/>
<path d="M82.3606 65.309C82.3606 65.3705 75.1815 64.3127 66.3706 62.9556C57.5597 61.5985 50.3806 60.4464 50.3806 60.389C50.3806 60.3316 57.5556 61.3853 66.3706 62.7465C75.1856 64.1077 82.3688 65.2516 82.3606 65.309Z" fill="#E0E0E0"/>
<path d="M78.0678 73.0704C78.0678 73.1278 75.7062 72.7957 72.8198 72.3283C69.9334 71.8609 67.5964 71.4345 67.6046 71.3771C67.6128 71.3197 69.9662 71.6518 72.8526 72.1192C75.739 72.5866 78.076 73.0089 78.0678 73.0704Z" fill="#E0E0E0"/>
<path d="M191.318 190.137C191.318 190.199 151.774 190.244 103.004 190.244C54.2346 190.244 14.6819 190.199 14.6819 190.137C14.6819 190.076 54.2182 190.031 103.004 190.031C151.79 190.031 191.318 190.08 191.318 190.137Z" fill="#263238"/>
<path d="M21.2842 191.745L20.7689 191.563C21.1516 191.202 21.5529 190.833 21.8777 190.489L22.4093 190.658C22.0567 191.013 21.687 191.407 21.2842 191.745ZM25.3052 187.462L24.7075 187.37C25.3761 186.522 25.9705 185.663 26.4863 184.801L27.1315 184.824C26.6073 185.703 25.9938 186.578 25.2965 187.441L25.3052 187.462ZM28.6078 181.503L27.9074 181.584C28.1589 180.736 28.3029 179.903 28.3378 179.093L29.0563 178.923C29.0153 179.762 28.8653 180.626 28.6078 181.503ZM28.77 175.911L28.0683 176.149C27.9026 175.444 27.6753 174.719 27.3553 173.924L28.051 173.644C28.3775 174.455 28.6092 175.19 28.77 175.911ZM26.143 171.316C25.8697 170.798 25.5963 170.28 25.3137 169.766L25.0404 169.248L25.7252 168.941L25.9985 169.459C26.2811 169.973 26.5544 170.491 26.8278 171.009L26.143 171.316ZM23.7201 166.64C23.5438 166.202 23.3696 165.77 23.1933 165.332C23.0779 165.046 22.9604 164.754 22.845 164.467L23.5407 164.187C23.6561 164.474 23.7714 164.76 23.8868 165.046C24.061 165.479 24.2351 165.911 24.4071 166.338L23.7201 166.64ZM22.7813 161.365L22.0731 161.588C21.9391 160.797 21.8744 159.984 21.8795 159.153L22.5958 158.978C22.5938 159.801 22.6594 160.607 22.7922 161.392L22.7813 161.365ZM60.3899 143.848C60.0336 143.992 59.6722 144.123 59.308 144.24L59.2211 143.81C59.5593 143.698 59.895 143.576 60.2267 143.443C61.0784 143.1 61.892 142.679 62.6354 142.196L63.0125 142.49C62.2047 143.018 61.3184 143.477 60.3899 143.848ZM54.4218 145.09C53.212 145.085 52.0636 144.975 51.0006 144.76L51.4112 144.28C52.4239 144.488 53.5202 144.595 54.6764 144.598L54.4218 145.09ZM66.1702 139.302L65.5086 139.292C65.9739 138.454 66.1512 137.625 66.0246 136.88L66.7306 136.652C66.8912 137.47 66.715 138.385 66.2182 139.314L66.1702 139.302ZM22.9314 155.903L22.2304 156.01C22.4293 155.145 22.7099 154.268 23.0706 153.385L23.754 153.342C23.4201 154.208 23.1614 155.067 22.9794 155.915L22.9314 155.903ZM47.3107 143.709C46.4312 143.372 45.5529 142.985 44.6893 142.554L45.2368 142.12C46.0422 142.538 46.8966 142.917 47.7965 143.255L47.3107 143.709ZM64.351 134.653C63.5887 134.223 62.6745 133.914 61.6438 133.739L62.043 133.258C63.1375 133.444 64.1074 133.772 64.9143 134.231L64.351 134.653ZM25.4898 150.131L24.8473 150.088C25.4223 149.203 26.081 148.325 26.8182 147.46L27.4039 147.576C26.6856 148.416 26.0458 149.27 25.4898 150.131ZM41.8486 140.828C41.1427 140.333 40.4631 139.797 39.8369 139.233L40.459 138.85C41.0809 139.404 41.7469 139.933 42.4392 140.42L41.8486 140.828ZM30.4 144.523L29.8989 144.322C30.8116 143.511 31.7892 142.727 32.824 141.976L33.2525 142.237C32.2675 142.961 31.336 143.717 30.4649 144.496L30.4 144.523ZM57.3738 133.55C57.0127 133.564 56.6446 133.586 56.3135 133.594C55.4778 133.661 54.623 133.76 53.7677 133.885L53.8865 133.404C54.7626 133.277 55.6381 133.175 56.4945 133.107L57.6426 133.04L57.3738 133.55ZM37.2583 139.656L36.9417 139.325C38.0975 138.669 39.2906 138.054 40.5127 137.485L40.7387 137.858C39.571 138.409 38.4302 139.001 37.3232 139.63L37.2583 139.656ZM49.0396 134.86C47.7859 135.187 46.535 135.569 45.2958 136.004L45.1882 135.576C46.46 135.133 47.7432 134.742 49.0291 134.406L49.0396 134.86ZM37.6408 137.046C37.1167 136.441 36.6302 135.795 36.1857 135.12L36.8525 134.795C37.2861 135.443 37.7682 136.078 38.2902 136.678L37.6408 137.046ZM34.7541 132.556C34.6192 132.221 34.4842 131.886 34.3471 131.546C34.2099 131.205 34.0358 130.773 33.8769 130.378L34.5726 130.098C34.7293 130.487 34.8838 130.871 35.0362 131.249C35.1886 131.628 35.304 131.914 35.4367 132.244L34.7541 132.556ZM33.8933 127.288L33.1852 127.51C33.0533 126.728 32.975 125.918 32.9359 125.099L33.6457 124.907C33.7382 125.699 33.8215 126.494 33.9419 127.275L33.8933 127.288ZM33.7368 121.868L33.0211 122.018C33.1042 121.181 33.2337 120.325 33.4068 119.47L34.1149 119.354C33.9953 120.181 33.8729 121.028 33.781 121.844L33.7368 121.868ZM34.9818 116.153L34.2792 116.229C34.5746 115.357 34.907 114.469 35.2781 113.597L35.9638 113.56C35.639 114.413 35.3093 115.28 35.0304 116.14L34.9818 116.153ZM37.5398 110.299L36.8803 110.295C37.3409 109.431 37.8664 108.541 38.4148 107.655L39.0644 107.688C38.5624 108.556 38.0576 109.444 37.5796 110.265L37.5398 110.299ZM41.2993 104.458L40.6923 104.369C41.3503 103.514 42.0869 102.639 42.8829 101.778L43.4544 101.913C42.7005 102.746 41.9974 103.591 41.3478 104.444L41.2993 104.458ZM46.5105 98.8475L45.9931 98.6603C46.866 97.8564 47.8032 97.0518 48.7764 96.2829L49.254 96.5051C48.3828 97.2329 47.4156 98.0433 46.5591 98.8342L46.5105 98.8475ZM52.9393 93.6639L52.5201 93.3994C53.5315 92.6717 54.6028 91.9324 55.708 91.2234L56.0851 91.5174C55.0493 92.211 53.9921 92.9321 52.9879 93.6506L52.9393 93.6639ZM60.1913 88.9715L59.8676 88.6497C60.9738 87.9968 62.1329 87.3415 63.3099 86.7041L63.5987 87.0462C62.4909 87.6683 61.3389 88.3145 60.2398 88.9582L60.1913 88.9715ZM67.9838 84.7648L67.73 84.4023C68.8967 83.8193 70.107 83.2375 71.3402 82.6591L71.5684 83.0382C70.3908 83.5942 69.1898 84.1722 68.0324 84.7515L67.9838 84.7648ZM88.1751 76.4115C88.1751 76.4115 86.7495 76.8601 84.3908 77.7223L84.2739 77.2984C86.614 76.4437 88.0582 75.9875 88.0582 75.9875L88.1751 76.4115ZM76.0994 81.012L75.9362 80.6067C77.0771 80.1472 78.2121 79.646 79.353 79.1864L79.6498 79.0668L79.8131 79.4721L79.5255 79.588C78.4053 80.0455 77.2338 80.5362 76.148 80.9987L76.0994 81.012Z" fill="#263238"/>
<path d="M77.31 47.1198C67.31 34.7598 65.95 24.4897 63.95 20.4097C61.3 14.9797 49.55 12.2697 41.66 7.40975C36 3.99975 29.86 -3.63025 28.51 -2.13025C27.8 -1.33025 30.67 3.24975 30.67 3.24975C30.67 3.24975 28.94 5.73975 33.76 9.71975C33.76 9.71975 33.01 14.2498 38.81 17.3598C38.81 17.3598 37.01 20.6898 41.18 23.7498C41.18 23.7498 39.61 27.1797 45.44 29.3897C45.44 29.3897 44.25 33.6998 49.07 35.6598C49.0973 36.3651 49.2705 37.0571 49.5786 37.6922C49.8867 38.3273 50.323 38.8917 50.86 39.3497C54.32 42.7697 63.93 45.4997 70.58 51.5997C75.39 55.9997 74.96 60.5397 75.85 60.7397C76.395 60.8981 76.9805 60.8345 77.4788 60.5628C77.9771 60.2912 78.3478 59.8336 78.51 59.2897C78.51 59.2897 78.58 48.6798 77.31 47.1198Z" fill="#EBEBEB"/>
<path d="M76.38 50.3095C76.3278 49.6636 76.2003 49.0259 76 48.4096C75.7862 47.8755 75.478 47.3843 75.09 46.9595C74.28 46.0396 73.32 45.2395 72.48 44.3395C69.0956 40.7032 66.474 36.4257 64.77 31.7596C63.92 29.3895 63.43 26.8995 62.46 24.5695C61.5673 22.3798 60.1198 20.4601 58.26 18.9995C56.4008 17.615 54.3873 16.4505 52.26 15.5295C50 14.5295 47.72 13.5295 45.53 12.3195C40.8736 9.74752 36.6074 6.52513 32.86 2.74955C32.4 2.27955 31.94 1.81955 31.49 1.32955C31.44 1.26955 31.36 1.32955 31.41 1.40955C33.1292 3.40879 35.0015 5.27109 37.01 6.97955C39.034 8.66859 41.1799 10.2061 43.43 11.5796C45.604 12.8723 47.8548 14.0311 50.17 15.0495C52.3481 15.9727 54.4598 17.0453 56.49 18.2595C58.4835 19.4616 60.1521 21.1336 61.35 23.1295C62.6 25.3495 63.12 27.8695 63.87 30.2695C65.3328 34.9159 67.6753 39.2377 70.77 42.9995C71.55 43.9395 72.38 44.8495 73.25 45.7095C74.2272 46.4735 75.0286 47.4386 75.6 48.5396C75.8041 49.1906 75.9415 49.8607 76.01 50.5396C76.12 51.2796 76.22 52.0095 76.33 52.7495C76.55 54.1895 76.74 55.6395 76.99 57.0695C77.12 57.7995 77.24 58.5296 77.38 59.2596C77.38 59.2596 77.45 59.2596 77.44 59.2596C77.19 56.2696 76.77 53.2895 76.38 50.3095Z" fill="#C7C7C7"/>
<path d="M56.7901 20.1395C53.6601 19.0695 50.5301 17.9895 47.4601 16.7495C44.4217 15.5668 41.4681 14.1768 38.6201 12.5895C36.9919 11.6846 35.4341 10.6584 33.9601 9.51953C35.2015 10.5594 36.5038 11.5245 37.8601 12.4095C39.2734 13.2895 40.7201 14.0929 42.2001 14.8195C45.1988 16.227 48.2852 17.4395 51.44 18.4495C53.21 19.0495 54.9901 19.6195 56.7701 20.1795L56.7901 20.1395Z" fill="#C7C7C7"/>
<path d="M60.53 25.3097C57.9926 23.8436 55.312 22.6406 52.53 21.7197C49.75 20.7197 46.91 19.9597 44.13 18.9997C42.5272 18.4799 40.9518 17.8792 39.41 17.1997C39.35 17.1997 39.41 17.1997 39.41 17.1997C40.72 17.8297 42.05 18.4197 43.41 18.9297C44.77 19.4397 46.2 19.9297 47.61 20.3697C50.42 21.2697 53.25 22.1297 56.01 23.1897C57.5573 23.7876 59.0581 24.4996 60.5 25.3197C60.5 25.3197 60.56 25.3297 60.53 25.3097Z" fill="#C7C7C7"/>
<path d="M63.29 31.7696C60.9787 30.0172 58.4254 28.6092 55.71 27.5896C52.8646 26.5458 49.9335 25.7528 46.95 25.2196C45.22 24.8796 43.48 24.6096 41.73 24.3496V24.3996C44.73 25.0096 47.73 25.5896 50.73 26.3996C53.5887 27.1252 56.3765 28.1058 59.06 29.3296C60.54 30.0226 61.9498 30.8565 63.27 31.8196C63.27 31.8196 63.3 31.7696 63.29 31.7696Z" fill="#C7C7C7"/>
<path d="M65.1301 35.1096C64.0101 34.3996 62.8801 33.6896 61.7301 33.0196C60.6041 32.3341 59.4273 31.7357 58.2101 31.2296C56.9962 30.7624 55.7356 30.4271 54.4501 30.2296C53.0901 30.0096 51.7101 29.8996 50.3401 29.7596C48.7901 29.5996 47.2401 29.4596 45.6901 29.3096L49.7901 29.8696C51.1201 30.0496 52.4601 30.1996 53.7901 30.3996C55.0981 30.5867 56.3867 30.8912 57.6401 31.3096C58.8975 31.7615 60.1264 32.2892 61.3201 32.8896C62.6301 33.5296 63.8801 34.3196 65.1301 35.0796C65.1301 35.1396 65.1401 35.1196 65.1301 35.1096Z" fill="#C7C7C7"/>
<path d="M70.13 43.3998C68.84 42.6398 67.5601 41.8698 66.3101 41.0498C65.0601 40.2298 63.88 39.3298 62.6 38.5898C60.0707 37.1721 57.2946 36.249 54.42 35.8698C52.8068 35.6415 51.1794 35.5279 49.55 35.5298C52.4366 35.7231 55.2953 36.2157 58.08 36.9998C59.4618 37.4032 60.8013 37.939 62.08 38.5998C63.38 39.2798 64.5801 40.1298 65.8101 40.9198C67.2001 41.8198 68.63 42.6698 70.1 43.4298C70.13 43.4298 70.14 43.3998 70.13 43.3998Z" fill="#C7C7C7"/>
<path d="M69.13 41.8096C67.4872 40.3892 65.7239 39.1144 63.86 37.9996C61.9755 36.8572 59.9612 35.9441 57.86 35.2796C56.69 34.9096 55.49 34.6096 54.29 34.3496C54.29 34.3496 54.29 34.3996 54.29 34.4096C56.4052 34.9352 58.4672 35.6549 60.45 36.5596C62.4234 37.4002 64.3233 38.4037 66.13 39.5596C67.1743 40.2524 68.1761 41.0071 69.13 41.8196C69.13 41.8196 69.14 41.8196 69.13 41.8096Z" fill="#C7C7C7"/>
<path d="M53.2801 23.2699C50.0801 21.5099 46.3501 21.2699 42.8301 20.5899C41.8189 20.4034 40.8176 20.1665 39.8301 19.8799C43.2301 21.1699 46.9301 21.1599 50.4101 22.1199C51.4129 22.3918 52.3848 22.7671 53.3101 23.2399C53.3101 23.2399 53.2901 23.2699 53.2801 23.2699Z" fill="#C7C7C7"/>
<path d="M58.3601 20.5899C54.4724 18.3516 50.3847 16.4802 46.1501 14.9999C44.9501 14.5899 43.7501 14.2299 42.5501 13.8599C42.5501 13.8599 42.5001 13.8599 42.5501 13.9199C44.7101 14.5799 46.8301 15.3699 48.9301 16.1999C51.0301 17.0299 53.0101 17.8899 55.0001 18.8599C56.1401 19.4099 57.2501 19.9799 58.3601 20.5899C58.3701 20.5899 58.3601 20.6099 58.3601 20.5899Z" fill="#C7C7C7"/>
<path d="M64.3001 33.7999C63.0655 32.8012 61.724 31.9426 60.3001 31.2399C58.86 30.5434 57.3521 29.9972 55.8001 29.6099C55.8001 29.6099 55.7501 29.6099 55.8001 29.6699C58.8848 30.4891 61.7816 31.8984 64.3301 33.8199C64.3301 33.8199 64.3101 33.8099 64.3001 33.7999Z" fill="#C7C7C7"/>
<path d="M75.07 52.2798C73.7157 50.3108 72.0228 48.5976 70.07 47.2198C68.0682 45.8334 65.9345 44.6477 63.7 43.6798C62.44 43.1198 61.15 42.5998 59.86 42.0898C62.1027 42.9929 64.2899 44.028 66.41 45.1898C68.5128 46.3199 70.4847 47.6781 72.29 49.2398C73.3014 50.1397 74.2132 51.1455 75.01 52.2398C75.01 52.2398 75.09 52.2998 75.07 52.2798Z" fill="#C7C7C7"/>
<path d="M126 63.0599C141.61 59.9799 149.22 52.9599 153.36 51.0599C158.88 48.5899 169.64 54.0599 178.8 55.3599C185.38 56.3599 194.97 54.4499 195.02 56.4399C195.02 57.5199 189.92 59.1899 189.92 59.1899C189.92 59.1899 189.65 62.1899 183.41 62.1899C183.41 62.1899 181.08 66.1899 174.63 64.8299C174.63 64.8299 173.88 68.5399 168.72 68.2099C168.72 68.2099 167.72 71.8599 161.83 69.8199C161.83 69.8199 159.98 73.8999 155.03 72.3099C154.556 72.8339 153.98 73.2544 153.336 73.5452C152.693 73.836 151.996 73.9908 151.29 73.9999C146.45 74.4099 137.29 70.3599 128.29 70.7799C121.79 71.0899 119.21 74.8399 118.4 74.4299C117.88 74.2015 117.471 73.7775 117.261 73.2497C117.052 72.7219 117.058 72.1328 117.28 71.6099C117.28 71.6099 124.02 63.4399 126 63.0599Z" fill="#EBEBEB"/>
<path d="M124.67 66.1098C125.121 65.6463 125.624 65.2369 126.17 64.8898C126.68 64.6152 127.236 64.4356 127.81 64.3598C129.02 64.1698 130.27 64.1698 131.49 64.0198C136.425 63.3915 141.185 61.7833 145.49 59.2898C147.66 58.0198 149.64 56.4198 151.87 55.2898C153.951 54.1859 156.285 53.6447 158.64 53.7198C160.952 53.8378 163.241 54.2305 165.46 54.8898C167.87 55.5298 170.24 56.2398 172.68 56.7298C177.917 57.7367 183.271 57.9926 188.58 57.4898C189.24 57.4298 189.89 57.3698 190.58 57.2798C190.66 57.2798 190.67 57.3798 190.58 57.3998C187.978 57.8296 185.347 58.0603 182.71 58.0898C180.076 58.0884 177.445 57.8912 174.84 57.4998C172.342 57.104 169.871 56.5563 167.44 55.8598C165.177 55.1694 162.868 54.6414 160.53 54.2798C158.23 53.9178 155.877 54.1308 153.68 54.8998C151.3 55.8098 149.29 57.4098 147.17 58.7698C143.071 61.4061 138.5 63.2229 133.71 64.1198C132.51 64.3498 131.29 64.5098 130.08 64.6198C128.837 64.5749 127.598 64.8 126.45 65.2798C125.873 65.6568 125.337 66.0925 124.85 66.5798L123.13 67.9998C122.04 68.9998 120.97 69.9998 119.86 70.8998L118.16 72.3298C120.23 70.1698 122.46 68.1498 124.67 66.1098Z" fill="#C7C7C7"/>
<path d="M159.04 55.48C162.13 56.66 165.22 57.84 168.38 58.85C171.469 59.8917 174.626 60.717 177.83 61.32C179.659 61.6646 181.51 61.8752 183.37 61.95C181.745 61.9316 180.122 61.8181 178.51 61.61C176.87 61.38 175.24 61.07 173.63 60.68C170.425 59.8433 167.278 58.7978 164.21 57.55C162.47 56.87 160.74 56.18 159.01 55.46C159 55.5 159.02 55.47 159.04 55.48Z" fill="#C7C7C7"/>
<path d="M152.86 57.0599C155.742 57.5561 158.567 58.3435 161.29 59.4099C164.05 60.4099 166.73 61.6599 169.49 62.6999C171.06 63.2999 172.64 63.8899 174.27 64.3399C172.85 63.9899 171.45 63.5899 170.08 63.1099C168.71 62.6299 167.31 62.1099 165.93 61.5199C163.2 60.4199 160.47 59.2599 157.67 58.3099C156.1 57.7774 154.492 57.3629 152.86 57.0699C152.86 57.0699 152.86 57.0499 152.86 57.0599Z" fill="#C7C7C7"/>
<path d="M151.36 57.1599C151.33 57.1499 151.36 57.0999 151.36 57.1599V57.1599Z" fill="#C7C7C7"/>
<path d="M146.6 60.2495C149.498 60.3832 152.361 60.9356 155.1 61.8895C157.954 62.9125 160.714 64.1805 163.35 65.6795C164.89 66.5295 166.4 67.4395 167.91 68.3495C167.91 68.3495 167.91 68.4195 167.91 68.3995C165.21 66.9395 162.51 65.3995 159.73 64.1295C157.07 62.857 154.303 61.823 151.46 61.0395C149.878 60.6292 148.261 60.3713 146.63 60.2695C146.63 60.2695 146.59 60.2495 146.6 60.2495Z" fill="#C7C7C7"/>
<path d="M143.05 61.6396C144.36 61.8096 145.68 61.9796 146.99 62.2096C148.298 62.4021 149.588 62.6963 150.85 63.0896C152.082 63.509 153.265 64.0588 154.38 64.7297C155.56 65.4397 156.69 66.2296 157.83 66.9896C159.13 67.8596 160.41 68.7496 161.7 69.6296C161.7 69.6296 161.7 69.6996 161.7 69.6796L158.19 67.4797C157.06 66.7597 155.93 66.0297 154.78 65.3297C153.658 64.6309 152.472 64.0383 151.24 63.5596C149.984 63.101 148.702 62.717 147.4 62.4097C145.98 62.0697 144.52 61.8797 143.07 61.6597C143.03 61.6597 143.04 61.6396 143.05 61.6396Z" fill="#C7C7C7"/>
<path d="M133.86 64.7996C135.34 65.0496 136.81 65.2696 138.29 65.4396C139.77 65.6096 141.29 65.6796 142.73 65.9296C145.571 66.4687 148.284 67.5373 150.73 69.0796C152.114 69.9326 153.434 70.8851 154.68 71.9296C154.68 71.9296 154.68 71.9896 154.68 71.9296C152.357 70.2146 149.86 68.7499 147.23 67.5595C145.911 66.9787 144.538 66.5298 143.13 66.2196C141.69 65.9096 140.23 65.7896 138.77 65.6096C137.13 65.4096 135.49 65.1496 133.87 64.7896C133.86 64.8196 133.86 64.7996 133.86 64.7996Z" fill="#C7C7C7"/>
<path d="M135.68 64.2197C137.862 64.1725 140.043 64.3164 142.2 64.6497C144.365 64.9739 146.483 65.5547 148.51 66.3797C149.655 66.8581 150.774 67.3989 151.86 67.9997C151.86 67.9997 151.86 68.0597 151.86 67.9997C149.894 67.051 147.846 66.2845 145.74 65.7097C143.68 65.098 141.573 64.6598 139.44 64.3997C138.205 64.268 136.962 64.2112 135.72 64.2297L135.68 64.2197Z" fill="#C7C7C7"/>
<path d="M159.73 60.1299C163.32 60.8299 166.36 62.9899 169.48 64.7599C170.378 65.2728 171.302 65.7369 172.25 66.1499C172.25 66.1499 172.25 66.2099 172.25 66.1499C168.8 64.9699 165.97 62.5899 162.67 61.1499C161.732 60.7128 160.75 60.3776 159.74 60.1499C159.74 60.1499 159.72 60.1299 159.73 60.1299Z" fill="#C7C7C7"/>
<path d="M157.55 54.8195C161.962 55.6016 166.294 56.7865 170.49 58.3596C171.67 58.8096 172.83 59.2996 173.98 59.7896C171.9 58.9196 169.76 58.1695 167.61 57.4595C165.46 56.7495 163.39 56.1396 161.25 55.6096C160.03 55.3096 158.8 55.0296 157.56 54.7896C157.53 54.8396 157.53 54.8195 157.55 54.8195Z" fill="#C7C7C7"/>
<path d="M144.52 61.1599C146.117 61.1922 147.707 61.3967 149.26 61.7699C150.812 62.1606 152.32 62.7102 153.76 63.4099C153.76 63.4099 153.76 63.4699 153.76 63.4099C150.865 62.0659 147.738 61.2918 144.55 61.1299C144.55 61.1299 144.51 61.1599 144.52 61.1599Z" fill="#C7C7C7"/>
<path d="M124.42 68.4598C126.71 67.8102 129.096 67.5698 131.47 67.7498C133.893 67.9621 136.288 68.4177 138.62 69.1098C139.96 69.4898 141.28 69.9198 142.62 70.3498C142.62 70.3498 142.62 70.4098 142.62 70.3998C140.323 69.6623 137.986 69.0579 135.62 68.5898C133.278 68.1137 130.89 67.8957 128.5 67.9398C127.15 67.9802 125.808 68.1713 124.5 68.5098C124.5 68.5098 124.39 68.4698 124.42 68.4598Z" fill="#C7C7C7"/>
<path d="M112.07 108.65L60.1801 92.4699L80.95 25.8599L119.48 37.8699L128.88 54.7299L112.07 108.65Z" fill="#00C977"/>
<path opacity="0.4" d="M112.07 108.65L60.1801 92.4699L80.95 25.8599L119.48 37.8699L128.88 54.7299L112.07 108.65Z" fill="white"/>
<path d="M119.48 37.8696L128.88 54.7296L115.52 50.5596L119.48 37.8696Z" fill="#00C977"/>
<path d="M81.9751 40.3481L110.826 49.3398L111.359 47.6309L82.5077 38.6392L81.9751 40.3481Z" fill="white"/>
<path d="M80.6298 44.6626L109.481 53.6543L110.014 51.9454L81.1624 42.9537L80.6298 44.6626Z" fill="white"/>
<path d="M79.281 48.9897L108.132 57.9814L108.665 56.2725L79.8136 47.2808L79.281 48.9897Z" fill="white"/>
<path d="M77.9299 53.3102L120.204 66.4854L120.737 64.7764L78.4625 51.6013L77.9299 53.3102Z" fill="white"/>
<path d="M76.6216 57.5694L118.894 70.752L119.427 69.0431L77.1545 55.8606L76.6216 57.5694Z" fill="white"/>
<path d="M75.2388 61.9318L117.513 75.1069L118.046 73.398L75.7714 60.2229L75.2388 61.9318Z" fill="white"/>
<path d="M75.961 65.8532L118.027 79.1372L118.564 77.4367L76.498 64.1527L75.961 65.8532Z" fill="white"/>
<path d="M74.6265 70.2038L116.693 83.4878L117.23 81.7873L75.1635 68.5033L74.6265 70.2038Z" fill="white"/>
<path d="M71.199 74.8908L113.474 88.0659L114.006 86.357L71.7316 73.1819L71.199 74.8908Z" fill="white"/>
<path d="M69.8533 79.2082L112.128 92.3833L112.66 90.6744L70.3859 77.4992L69.8533 79.2082Z" fill="white"/>
<path d="M68.5493 83.4669L110.822 96.6494L111.354 94.9406L69.0822 81.7581L68.5493 83.4669Z" fill="white"/>
<path d="M67.2012 87.7843L109.473 100.967L110.006 99.258L67.7341 86.0754L67.2012 87.7843Z" fill="white"/>
<path d="M173.705 163.102C174.322 163.397 174.874 163.813 175.327 164.326C175.78 164.839 176.125 165.438 176.341 166.087C176.766 167.391 176.885 168.776 176.689 170.134C176.394 172.758 174.902 175.406 173.299 177.514C171.089 175.587 170.58 172.221 170.429 170.499C170.191 167.776 171.413 162.709 173.709 163.119" fill="#00C977"/>
<path d="M175.865 181.835C175.714 181.085 175.765 180.309 176.011 179.584C176.257 178.86 176.691 178.213 177.267 177.711C177.851 177.218 178.528 176.846 179.257 176.618C179.987 176.39 180.754 176.31 181.515 176.382C182.22 176.436 182.979 176.641 183.381 177.202C183.553 177.485 183.647 177.808 183.652 178.139C183.657 178.47 183.573 178.797 183.409 179.084C183.075 179.656 182.596 180.128 182.019 180.454C180.105 181.655 178.03 182.467 175.869 181.819" fill="#00C977"/>
<path d="M173.032 189.88C173.042 189.699 173.069 189.519 173.11 189.342C173.18 188.961 173.27 188.473 173.377 187.883C173.624 186.261 174.133 184.689 174.881 183.229C175.661 181.77 176.814 180.545 178.223 179.679C178.651 179.425 179.108 179.223 179.584 179.076C179.752 179.019 179.887 178.998 179.994 178.974C180.101 178.949 180.133 178.949 180.133 178.974C179.041 179.327 178.03 179.896 177.16 180.645C176.29 181.394 175.578 182.309 175.066 183.336C174.328 184.782 173.81 186.329 173.528 187.928C173.393 188.539 173.282 189.035 173.2 189.371C173.159 189.545 173.103 189.715 173.032 189.88Z" fill="#263238"/>
<path d="M173.11 167.042C173.129 167.12 173.139 167.2 173.139 167.28C173.139 167.452 173.163 167.69 173.18 167.957C173.208 168.543 173.245 169.392 173.278 170.445C173.344 172.549 173.397 175.456 173.385 178.645C173.372 181.835 173.295 184.763 173.204 186.866C173.163 187.92 173.122 188.768 173.085 189.355C173.065 189.633 173.053 189.855 173.04 190.031C173.069 189.797 172.999 190.183 172.999 190.031C172.999 189.879 172.999 189.621 172.999 189.351C172.999 188.74 173.032 187.895 173.057 186.862C173.11 184.759 173.167 181.856 173.184 178.662C173.2 175.468 173.163 172.549 173.131 170.462C173.131 169.429 173.102 168.58 173.09 167.969C173.09 167.69 173.09 167.469 173.09 167.293C173.091 167.209 173.097 167.125 173.11 167.042Z" fill="#263238"/>
<path d="M172.044 183.43C171.776 181.84 171.134 180.337 170.17 179.044C169.206 177.752 167.948 176.707 166.501 175.997C165.763 175.644 164.799 175.411 164.193 175.96C163.586 176.509 163.717 177.497 164.016 178.264C164.666 179.848 165.77 181.205 167.189 182.163C168.608 183.121 170.279 183.637 171.991 183.647" fill="#00C977"/>
<path d="M166.858 178.485C167.021 178.538 167.179 178.606 167.329 178.69C167.511 178.773 167.688 178.868 167.858 178.973C168.089 179.098 168.314 179.234 168.53 179.383C168.799 179.562 169.058 179.757 169.305 179.965C169.593 180.198 169.867 180.447 170.125 180.712C170.72 181.319 171.244 181.991 171.687 182.717C172.117 183.45 172.461 184.23 172.712 185.041C172.821 185.395 172.909 185.755 172.975 186.12C173.037 186.435 173.081 186.754 173.106 187.075C173.147 187.37 173.131 187.637 173.143 187.87C173.156 188.071 173.156 188.272 173.143 188.473C173.14 188.644 173.12 188.814 173.085 188.981C173.04 188.981 173.114 188.252 172.987 187.091C172.953 186.774 172.902 186.46 172.835 186.148C172.774 185.812 172.667 185.459 172.561 185.09C172.304 184.296 171.961 183.533 171.536 182.815C171.102 182.102 170.592 181.438 170.015 180.835C169.763 180.571 169.497 180.32 169.219 180.084C168.965 179.855 168.703 179.674 168.469 179.494C167.505 178.826 166.837 178.522 166.858 178.485Z" fill="#263238"/>
<path d="M15.4902 190.804C15.2905 184.621 54.9722 178.321 104.122 176.734C153.271 175.146 193.277 178.872 193.477 185.055C193.676 191.238 153.995 197.538 104.845 199.125C55.6955 200.713 15.69 196.987 15.4902 190.804Z" fill="#263238" stroke="#263238" stroke-miterlimit="10"/>
<path d="M191.23 168.711C191.23 168.711 190.148 171.054 189.374 171.853C188.6 172.653 174.64 176.109 174.64 176.109L129.397 186.013L123.917 185.424L104.759 186.039C104.759 186.039 100.934 176.688 105.107 167.475C109.28 158.263 130.156 154.659 136.057 156.535C141.958 158.411 155.779 164.451 165.709 161.149C175.64 157.847 183.56 151.362 186.872 152.224C190.184 153.085 191.763 158.417 191.763 160.718C191.763 163.02 191.23 168.711 191.23 168.711Z" fill="#263238" stroke="#263238" stroke-miterlimit="10"/>
<path d="M93.9774 181.522C94.3721 172.012 100.734 164.292 108.183 164.271H116.263L116.119 167.675C119.277 170.807 121.195 175.811 120.964 181.45C120.733 187.09 118.401 192.109 114.976 195.256L114.833 198.707H106.758C99.304 198.722 93.5826 191.032 93.9774 181.522Z" fill="#263238" stroke="#263238" stroke-miterlimit="10"/>
<path d="M113.643 198.632C106.256 197.813 101.118 189.471 102.167 179.999C103.217 170.526 110.056 163.51 117.443 164.329C124.83 165.147 129.968 173.489 128.919 182.961C127.87 192.434 121.031 199.45 113.643 198.632Z" fill="#878787" stroke="#263238" stroke-miterlimit="10"/>
<path d="M105.107 187.346C104.979 186.921 104.861 186.485 104.764 186.039C104.668 185.588 104.586 185.132 104.518 184.67C104.379 183.626 104.331 182.571 104.374 181.517C104.454 179.306 104.943 177.128 105.815 175.094L105.84 175.043C106.025 174.617 106.23 174.202 106.451 173.802L106.492 173.725C106.712 173.33 106.943 172.946 107.189 172.577L107.23 172.515C109.414 169.301 112.618 167.235 116.119 167.229C119.118 167.229 121.759 168.721 123.676 171.167C123.804 171.326 123.927 171.495 124.045 171.679C124.163 171.849 124.281 172.023 124.394 172.192C124.507 172.366 124.614 172.546 124.717 172.705C124.819 172.884 124.917 173.064 125.009 173.248V173.279C125.101 173.458 125.188 173.638 125.276 173.828V173.869C125.358 174.048 125.435 174.233 125.511 174.417C125.511 174.417 125.511 174.458 125.537 174.484C125.609 174.663 125.675 174.843 125.742 175.027L125.773 175.114C125.834 175.289 125.891 175.468 125.947 175.653C125.947 175.688 125.973 175.724 125.983 175.76C126.034 175.935 126.08 176.114 126.132 176.273C126.141 176.32 126.153 176.366 126.168 176.411C126.209 176.581 126.25 176.755 126.286 176.924C126.286 176.975 126.311 177.032 126.321 177.083C126.357 177.252 126.388 177.421 126.419 177.596L126.45 177.785C126.48 177.944 126.501 178.113 126.521 178.298L126.552 178.508C126.552 178.667 126.588 178.831 126.603 178.995C126.603 179.072 126.603 179.149 126.603 179.226C126.603 179.385 126.603 179.549 126.634 179.708V179.954C126.634 180.123 126.634 180.297 126.634 180.467C126.634 180.543 126.634 180.615 126.634 180.687C126.634 180.933 126.634 181.2 126.634 181.435C126.634 181.671 126.603 182.035 126.573 182.333C126.573 182.404 126.573 182.476 126.573 182.548C126.547 182.804 126.516 183.061 126.48 183.312V183.43C126.383 184.055 126.255 184.665 126.101 185.265C125.428 188.068 123.998 190.632 121.969 192.678L121.897 192.745C121.661 192.97 121.42 193.181 121.169 193.386L121.118 193.422C119.391 194.871 117.22 195.686 114.966 195.729C112.75 195.716 110.614 194.898 108.957 193.427C107.135 191.796 105.802 189.691 105.107 187.346Z" fill="white" stroke="#263238" stroke-miterlimit="10"/>
<path d="M105.651 181.948C105.715 180.349 106.033 178.771 106.594 177.272L111.034 180.056C110.832 180.664 110.716 181.298 110.69 181.938C110.69 182.035 110.69 182.127 110.69 182.22L105.646 183.04C105.635 182.681 105.635 182.317 105.651 181.948Z" fill="#263238" stroke="#263238" stroke-miterlimit="10"/>
<path d="M113.505 176.847C113.029 177.112 112.604 177.46 112.249 177.872L109.121 173.064C110.15 171.909 111.44 171.017 112.884 170.464L113.505 176.847Z" fill="#263238" stroke="#263238" stroke-miterlimit="10"/>
<path d="M111.326 185.07C111.542 185.509 111.822 185.913 112.156 186.27L109.593 192.017C108.303 190.905 107.301 189.498 106.671 187.916L111.326 185.07Z" fill="#263238" stroke="#263238" stroke-miterlimit="10"/>
<path d="M118.878 178.949L123.404 175.801C124.102 177.454 124.47 179.227 124.486 181.02L119.426 181.164C119.381 180.398 119.195 179.647 118.878 178.949Z" fill="#263238" stroke="#263238" stroke-miterlimit="10"/>
<path d="M117.34 177.031C116.973 176.775 116.563 176.588 116.13 176.478L116.868 170.121C118.484 170.42 119.967 171.214 121.113 172.392L117.34 177.031Z" fill="#263238" stroke="#263238" stroke-miterlimit="10"/>
<path d="M114.356 187.454C114.516 187.474 114.677 187.485 114.838 187.485C115.295 187.483 115.747 187.394 116.171 187.223L118.631 192.724C117.403 193.472 115.994 193.872 114.556 193.883C114.166 193.885 113.777 193.856 113.392 193.796L114.356 187.454Z" fill="#263238" stroke="#263238" stroke-miterlimit="10"/>
<path d="M118.913 184.306L123.922 185.424C123.438 187.176 122.606 188.813 121.477 190.238L118.267 185.496C118.527 185.125 118.744 184.726 118.913 184.306Z" fill="#263238" stroke="#263238" stroke-miterlimit="10"/>
<path d="M169.744 171.91C169.929 163.943 172.912 157.469 176.409 157.453H184.468L183.796 186.306H175.737C172.241 186.321 169.56 179.862 169.744 171.91Z" fill="#263238" stroke="#263238" stroke-miterlimit="10"/>
<path d="M177.803 171.91C177.619 179.877 180.3 186.321 183.796 186.306C187.293 186.291 190.276 179.821 190.461 171.849C190.646 163.877 187.964 157.438 184.468 157.453C180.972 157.469 177.988 163.969 177.803 171.91Z" fill="#878787" stroke="#263238" stroke-miterlimit="10"/>
<path d="M179.234 176.786C179.172 176.427 179.116 176.063 179.07 175.689C179.023 175.314 178.988 174.93 178.957 174.54C178.895 173.689 178.87 172.807 178.89 171.9C178.924 170.086 179.154 168.281 179.577 166.517V166.476C179.664 166.117 179.762 165.768 179.864 165.451V165.384C179.972 165.056 180.08 164.733 180.197 164.425V164.374C181.223 161.677 182.725 159.95 184.371 159.939C185.775 159.939 187.021 161.19 187.913 163.241C187.975 163.379 188.031 163.518 188.087 163.656C188.144 163.8 188.2 163.943 188.251 164.092C188.303 164.241 188.354 164.389 188.4 164.538C188.446 164.687 188.492 164.835 188.538 164.994C188.586 165.145 188.627 165.299 188.662 165.456V165.492C188.703 165.64 188.738 165.794 188.774 165.953C188.772 165.97 188.772 165.987 188.774 166.004C188.81 166.153 188.841 166.307 188.872 166.461C188.874 166.484 188.874 166.508 188.872 166.532C188.902 166.681 188.928 166.835 188.959 166.983V167.076C188.959 167.224 189.005 167.373 189.026 167.522V167.635C189.026 167.778 189.067 167.922 189.082 168.065C189.084 168.111 189.084 168.158 189.082 168.204C189.082 168.342 189.113 168.486 189.123 168.624C189.123 168.68 189.123 168.732 189.123 168.783L189.154 169.198V169.372C189.154 169.511 189.154 169.644 189.154 169.783C189.154 169.921 189.154 169.911 189.154 169.972C189.154 170.111 189.154 170.244 189.154 170.382C189.154 170.521 189.154 170.516 189.154 170.582C189.154 170.726 189.154 170.869 189.154 171.018C189.154 171.08 189.154 171.141 189.154 171.203C189.154 171.408 189.154 171.618 189.154 171.823C189.154 172.028 189.154 172.336 189.154 172.582C189.154 172.638 189.154 172.7 189.154 172.761L189.108 173.397C189.108 173.433 189.108 173.464 189.108 173.499C189.061 174.012 189 174.525 188.928 175.037C188.663 177.209 187.997 179.312 186.965 181.241L186.934 181.302C186.821 181.487 186.708 181.666 186.59 181.815V181.846C185.744 183.061 184.75 183.773 183.699 183.778C182.648 183.784 181.679 183.071 180.884 181.851C180.014 180.284 179.453 178.564 179.234 176.786Z" fill="white" stroke="#263238" stroke-miterlimit="10"/>
<path d="M16.1753 176.011C16.5701 166.501 22.9322 158.781 30.3813 158.76H38.4609C45.915 158.76 51.6364 166.45 51.2416 175.945C50.8469 185.439 44.4847 193.191 37.0305 193.191H28.9561C21.5019 193.216 15.7806 185.501 16.1753 176.011Z" fill="#263238" stroke="#263238" stroke-miterlimit="10"/>
<path d="M167.16 116.66C167.16 116.66 170.749 117.716 171.226 118.767C171.703 119.818 171.974 120.572 171.974 120.572L182.807 136.367C182.807 136.367 186.718 136.07 187.933 139.376C189.149 142.683 188.682 147.2 188.682 147.2C188.682 147.2 191.543 154.269 191.691 159.534C191.793 162.6 191.642 165.67 191.24 168.711C191.24 168.711 191.994 159.083 189.738 156.074C187.482 153.064 182.817 155.325 181.023 160.739C179.228 166.153 177.075 176.232 177.075 176.232L129.397 186.013C129.397 186.013 131.807 173.376 128.644 166.153C125.481 158.929 110.747 159.386 108.035 172.474C105.323 185.562 106.23 187.967 106.23 187.967C106.23 187.967 96.1511 190.074 65.4629 189.623C34.7748 189.171 17.9286 185.562 13.412 184.358C13.412 184.358 12.3867 178.79 12.0586 175.483C11.8593 173.58 12.1707 171.658 12.9609 169.916C12.9609 169.916 13.2634 163.897 14.017 161.79C14.7706 159.683 17.0263 156.525 17.0263 156.525C17.0263 156.525 19.2821 151.26 23.0399 147.953C26.7977 144.647 32.9702 141.335 34.4774 140.581C35.9847 139.827 37.9328 139.376 40.7935 137.423C43.6542 135.47 61.4026 123.13 66.9702 119.823C72.5377 116.517 84.57 114.856 86.9641 114.404C89.3582 113.953 117.052 112 126.68 112C136.308 112 156.179 112.451 167.16 116.66Z" fill="#00C977" stroke="#263238" stroke-miterlimit="10"/>
<path opacity="0.15" d="M12.0637 175.483C11.8643 173.58 12.1758 171.658 12.966 169.916C12.966 169.916 13.0634 167.988 13.2838 165.937C32.1089 171.489 65.7859 171.864 75.1779 171.033C85.9695 170.085 105.112 167.475 105.938 164.369C106.763 161.262 114.187 154.213 119.267 152.306C123.62 150.675 174.122 143.683 188.477 141.714C188.741 143.528 188.797 145.367 188.646 147.194C188.646 147.194 191.507 154.264 191.655 159.529C191.757 162.595 191.606 165.664 191.204 168.706C191.204 168.706 191.958 159.078 189.702 156.068C187.446 153.059 182.781 155.32 180.987 160.734C179.193 166.147 177.075 176.232 177.075 176.232L129.397 186.013C129.397 186.013 131.807 173.376 128.644 166.153C125.481 158.929 110.747 159.385 108.035 172.474C105.323 185.562 106.23 187.967 106.23 187.967C106.23 187.967 96.151 190.074 65.4629 189.622C34.7748 189.171 17.9286 185.562 13.412 184.357C13.4171 184.357 12.3662 178.79 12.0637 175.483Z" fill="black"/>
<path d="M134.216 121.474C140.271 117.137 145.495 116.476 147.946 116.276C150.278 120.464 154.098 128.39 154.861 136.608C142.045 138.608 127.747 140.884 127.747 140.884C127.747 140.884 124.44 142.083 123.235 140.884C122.84 140.562 122.53 140.149 122.333 139.679C122.03 138.925 127.295 126.442 134.216 121.474Z" fill="white" stroke="#263238" stroke-miterlimit="10"/>
<path d="M152.062 116.291C155.517 116.476 158.954 116.91 162.346 117.588C165.807 118.342 167.012 118.49 167.611 119.095C168.211 119.7 174.081 127.057 176.188 132.307C176.102 132.684 175.892 133.022 175.592 133.267C175.293 133.512 174.92 133.651 174.532 133.66C174.02 133.66 167.724 134.614 159.88 135.829C158.568 131.158 155.933 122.956 152.062 116.291Z" fill="white" stroke="#263238" stroke-miterlimit="10"/>
<path d="M171.174 133.896C171.174 133.896 168.611 124.017 163.433 118.142" stroke="#263238" stroke-miterlimit="10"/>
<path d="M154.723 143.708L159.004 142.95C159.143 142.991 159.273 143.06 159.385 143.152C159.497 143.244 159.59 143.358 159.659 143.486C159.727 143.614 159.769 143.755 159.782 143.9C159.796 144.044 159.78 144.19 159.737 144.329C159.419 145.38 158.85 145.262 158.85 145.262L155.287 145.836C155.053 145.86 154.819 145.796 154.629 145.657C154.44 145.517 154.309 145.313 154.262 145.082C154.077 144.221 153.836 144.113 154.723 143.708Z" stroke="#263238" stroke-miterlimit="10"/>
<path d="M176.363 139.976L179.639 139.361C179.861 139.437 180.044 139.597 180.149 139.807C180.253 140.018 180.271 140.261 180.197 140.484C179.956 141.335 179.521 141.242 179.521 141.242L176.798 141.709C176.614 141.727 176.429 141.673 176.283 141.558C176.137 141.444 176.041 141.277 176.014 141.094C175.865 140.386 175.681 140.309 176.363 139.976Z" stroke="#263238" stroke-miterlimit="10"/>
<path d="M150.186 115.778C150.186 115.778 156.287 127.124 157.363 136.541" stroke="#263238" stroke-miterlimit="10"/>
<path d="M158.747 138.489C158.747 138.489 161.531 143.196 161.639 144.8C161.747 146.405 161.424 165.671 160.89 169.203" stroke="#263238" stroke-miterlimit="10"/>
<path d="M128.459 128C128.459 128 130.602 134.209 131.243 137.526" stroke="#263238" stroke-miterlimit="10"/>
<path d="M129.315 145.231C129.315 145.231 131.674 153.044 131.776 158.929C131.879 164.815 131.991 175.847 131.991 175.847" stroke="#263238" stroke-miterlimit="10"/>
<path d="M176.516 134.419C176.516 134.419 181.546 139.033 181.971 140.52C182.397 142.006 181.869 154.874 181.869 154.874" stroke="#263238" stroke-miterlimit="10"/>
<path d="M175.537 169.418C175.537 169.418 174.789 171.561 173.184 172.095C171.579 172.628 132.617 180.123 132.617 180.123" stroke="#263238" stroke-miterlimit="10"/>
<path d="M62.6946 176.211C62.6946 176.211 32.8626 176.622 21.7788 173.202C21.7788 173.202 22.8708 180.59 24.9265 182.097C26.9823 183.604 41.8957 185.137 49.1448 185.378C57.3475 185.655 62.0127 184.835 62.0127 184.835L62.6946 176.211Z" fill="#263238" stroke="#263238" stroke-miterlimit="10"/>
<path d="M68.0314 157.596L65.022 163.748C65.022 163.748 48.1912 164.158 46.2739 164.292C44.3565 164.425 42.3058 165.389 40.1219 164.292C37.9379 163.195 28.4895 161.969 27.3924 161.969C26.2953 161.969 24.9316 162.928 24.9316 162.928C24.9316 162.928 27.3924 156.776 28.3511 156.222C29.0693 155.858 29.8788 155.714 30.6786 155.807C31.0836 155.817 51.0622 154.315 68.0314 157.596Z" fill="#263238" stroke="#263238" stroke-miterlimit="10"/>
<path d="M99.7551 145.308C99.7551 145.308 106.932 144.206 109.665 145.17C112.397 146.133 111.044 149.85 106.363 153.29C101.683 156.73 97.8274 160.032 93.034 160.585C88.2406 161.139 79.9354 162.944 79.5253 161.406C79.1152 159.868 80.6275 154.387 86.1335 150.394C91.6396 146.4 99.7551 145.308 99.7551 145.308Z" fill="white" stroke="#263238" stroke-miterlimit="10"/>
<path d="M42.2443 137.459L43.6183 137.874L50.2829 138.064C53.7844 138.166 58.4087 138.295 63.5199 138.428C70.5742 138.617 78.5513 138.812 85.7542 138.94C96.7663 139.171 105.984 139.289 107.368 139.084C110.15 138.726 112.763 137.552 114.879 135.711C116.472 134.285 117.797 132.585 118.79 130.692C122.056 124.658 130.423 117.229 130.423 117.229C117.211 115.691 85.6927 116.265 82.1143 116.404C81.0041 116.46 79.8993 116.594 78.8076 116.804C74.9883 117.48 70.0052 118.982 67.1137 120.946C66.6011 121.295 65.7757 121.843 64.7401 122.535C62.3203 124.15 58.7316 126.529 55.1276 128.918L48.8423 133.076L42.2443 137.459Z" fill="white" stroke="#263238" stroke-miterlimit="10"/>
<path d="M67.1393 120.946C66.6266 121.295 65.8012 121.843 64.7656 122.535L85.7131 138.941C96.7252 139.171 105.943 139.289 107.327 139.084C110.109 138.726 112.722 137.553 114.838 135.711L78.8332 116.804C75.0138 117.48 70.0307 118.983 67.1393 120.946Z" fill="#263238" stroke="#263238" stroke-miterlimit="10"/>
<path d="M48.8679 133.076L50.2419 138.064C53.7434 138.166 58.3676 138.295 63.4789 138.428L55.1532 128.918L48.8679 133.076Z" fill="#263238" stroke="#263238" stroke-miterlimit="10"/>
<path d="M71.8917 153.48C71.0561 154.331 70.2461 155.228 69.4771 156.182" stroke="#263238" stroke-miterlimit="10"/>
<path d="M92.1882 141.314C92.1882 141.314 81.7709 144.39 73.3375 152.08" stroke="#263238" stroke-miterlimit="10"/>
<path d="M25.4648 155.936C24.3643 158.003 23.5666 160.218 23.0963 162.513" stroke="#263238" stroke-miterlimit="10"/>
<path d="M41.3984 141.868C41.3984 141.868 32.1705 145.456 26.6388 153.946" stroke="#263238" stroke-miterlimit="10"/>
<path d="M83.9291 178.888C83.9291 180.487 85.4671 181.779 87.3691 181.779C89.2711 181.779 90.8091 180.487 90.8091 178.888C90.8091 177.288 89.2711 175.996 87.3691 175.996C85.4671 175.996 83.9291 177.298 83.9291 178.888Z" fill="white" stroke="#263238" stroke-miterlimit="10"/>
<path d="M12.6686 174.191C12.9609 175.57 13.8888 176.539 14.7449 176.355C15.6011 176.17 16.0574 174.914 15.7703 173.535C15.4832 172.156 14.5501 171.192 13.7196 171.372C12.8891 171.551 12.3764 172.817 12.6686 174.191Z" fill="white" stroke="#263238" stroke-miterlimit="10"/>
<path d="M130.91 139.361C130.91 139.361 133.765 134.547 135.57 134.234C137.374 133.922 145.049 133.635 146.705 134.691C148.361 135.747 147.905 139.202 147.305 140.104C146.705 141.007 144.295 141.458 142.178 141.309C140.061 141.161 133.001 141.76 133.001 141.76C133.001 141.76 128.792 144.77 127.285 144.467C125.778 144.165 123.825 140.879 125.183 139.048C126.542 137.218 128.649 137.721 130.91 139.361Z" fill="#263238" stroke="#263238" stroke-miterlimit="10"/>
<path d="M130.91 139.376L125.942 140.433" stroke="#263238" stroke-miterlimit="10"/>
<path d="M167.16 116.66C167.16 116.66 170.749 117.716 171.226 118.767C171.703 119.818 171.974 120.572 171.974 120.572L182.807 136.367C182.807 136.367 186.718 136.07 187.933 139.376C189.149 142.683 188.682 147.2 188.682 147.2C188.682 147.2 191.543 154.269 191.691 159.534C191.793 162.6 191.642 165.67 191.24 168.711C191.24 168.711 191.994 159.083 189.738 156.074C187.482 153.064 182.817 155.325 181.023 160.739C179.228 166.153 177.075 176.232 177.075 176.232L129.397 186.013C129.397 186.013 131.807 173.376 128.644 166.153C125.481 158.929 110.747 159.386 108.035 172.474C105.323 185.562 106.23 187.967 106.23 187.967C106.23 187.967 96.1511 190.074 65.4629 189.623C34.7748 189.171 17.9286 185.562 13.412 184.358C13.412 184.358 12.3867 178.79 12.0586 175.483C11.8593 173.58 12.1707 171.658 12.9609 169.916C12.9609 169.916 13.2634 163.897 14.017 161.79C14.7706 159.683 17.0263 156.525 17.0263 156.525C17.0263 156.525 19.2821 151.26 23.0399 147.953C26.7977 144.647 32.9702 141.335 34.4775 140.581C35.9847 139.827 37.9328 139.376 40.7935 137.423C43.6542 135.47 61.4026 123.13 66.9702 119.823C72.5377 116.517 84.57 114.856 86.9641 114.404C89.3582 113.953 117.052 112 126.68 112C136.308 112 156.179 112.451 167.16 116.66Z" stroke="#263238" stroke-miterlimit="10"/>
<path d="M28.4639 144.067C28.4639 144.067 31.4886 145.17 30.6632 146.272C29.8378 147.374 25.2956 150.26 23.2347 153.839C21.1738 157.417 20.7534 159.206 19.7947 159.206C18.836 159.206 16.7444 157.422 17.0315 156.525C17.3185 155.628 18.8309 147.507 28.4639 144.067Z" fill="white" stroke="#263238" stroke-miterlimit="10"/>
<path d="M179.9 171.659C179.927 170.26 180.071 168.866 180.331 167.491L182.381 169.972C182.28 170.529 182.22 171.093 182.202 171.659C182.202 171.746 182.202 171.828 182.202 171.91L179.89 172.643C179.895 172.3 179.895 171.971 179.9 171.659Z" fill="#263238" stroke="#263238" stroke-miterlimit="10"/>
<path d="M183.509 167.096C183.27 167.367 183.075 167.673 182.93 168.003L181.5 163.712C181.877 162.813 182.47 162.021 183.227 161.405L183.509 167.096Z" fill="#263238" stroke="#263238" stroke-miterlimit="10"/>
<path d="M182.504 174.427C182.595 174.796 182.722 175.155 182.884 175.499L181.705 180.625C181.058 179.488 180.605 178.251 180.367 176.965L182.504 174.427Z" fill="#263238" stroke="#263238" stroke-miterlimit="10"/>
<path d="M185.965 168.968L188.016 166.158C188.345 167.688 188.516 169.248 188.528 170.813L186.211 170.941C186.193 170.277 186.111 169.616 185.965 168.968Z" fill="#263238" stroke="#263238" stroke-miterlimit="10"/>
<path d="M185.278 167.26C185.139 167.046 184.949 166.869 184.724 166.747L185.063 161.057C185.796 161.308 186.462 162.026 187.011 163.082L185.278 167.26Z" fill="#263238" stroke="#263238" stroke-miterlimit="10"/>
<path d="M183.894 176.55C183.965 176.57 184.04 176.581 184.114 176.581C184.338 176.574 184.554 176.491 184.724 176.345L185.862 181.256C185.642 181.551 185.361 181.796 185.038 181.973C184.716 182.15 184.358 182.255 183.991 182.281C183.817 182.278 183.645 182.25 183.478 182.199L183.894 176.55Z" fill="#263238" stroke="#263238" stroke-miterlimit="10"/>
<path d="M185.98 173.746L188.277 174.735C188.078 176.206 187.701 177.647 187.154 179.026L185.683 174.797C185.807 174.454 185.906 174.103 185.98 173.746Z" fill="#263238" stroke="#263238" stroke-miterlimit="10"/>
</g>
<defs>
<clipPath id="clip0_1148_29226">
<rect width="205" height="205" fill="white" transform="translate(0.5)"/>
</clipPath>
</defs>
</svg>
