<svg width="200" height="143" viewBox="0 0 200 143" fill="none" xmlns="http://www.w3.org/2000/svg">
<path d="M12.571 79.804C12.3713 73.6207 52.053 67.3212 101.203 65.7337C150.352 64.1461 190.358 67.8718 190.558 74.0551C190.757 80.2384 151.076 86.5379 101.926 88.1254C52.7763 89.713 12.7708 85.9873 12.571 79.804Z" fill="#263238" stroke="#263238" stroke-miterlimit="10"/>
<path d="M188.311 57.7108C188.311 57.7108 187.229 60.0537 186.455 60.8535C185.681 61.6532 171.721 65.1086 171.721 65.1086L126.478 75.0133L120.998 74.4237L101.84 75.0389C101.84 75.0389 98.0151 65.6879 102.188 56.4753C106.361 47.2627 127.237 43.6587 133.138 45.535C139.039 47.4114 152.86 53.4506 162.79 50.149C172.721 46.8474 180.641 40.3622 183.953 41.2235C187.265 42.0848 188.844 47.4165 188.844 49.7184C188.844 52.0202 188.311 57.7108 188.311 57.7108Z" fill="#263238" stroke="#263238" stroke-miterlimit="10"/>
<path d="M91.0582 70.5222C91.4529 61.0122 97.8151 53.2915 105.264 53.271H113.344L113.2 56.6751C116.358 59.8075 118.276 64.8111 118.045 70.4504C117.814 76.0897 115.482 81.1087 112.057 84.2565L111.913 87.7067H103.839C96.3847 87.7221 90.6634 80.0321 91.0582 70.5222Z" fill="#263238" stroke="#263238" stroke-miterlimit="10"/>
<path d="M110.724 87.6315C103.337 86.8133 98.1991 78.4711 99.2482 68.9987C100.297 59.5262 107.136 52.5105 114.523 53.3286C121.911 54.1468 127.049 62.489 126 71.9615C124.95 81.434 118.111 88.4497 110.724 87.6315Z" fill="#878787" stroke="#263238" stroke-miterlimit="10"/>
<path d="M102.188 76.3465C102.06 75.921 101.942 75.4852 101.845 75.0392C101.749 74.588 101.667 74.1318 101.599 73.6704C101.46 72.6255 101.412 71.5706 101.455 70.5175C101.535 68.3057 102.023 66.1279 102.896 64.0938L102.921 64.0425C103.106 63.617 103.311 63.2017 103.531 62.8019L103.572 62.725C103.793 62.3302 104.023 61.9457 104.27 61.5766L104.311 61.5151C106.495 58.3007 109.699 56.2346 113.2 56.2295C116.199 56.2295 118.839 57.7214 120.757 60.1668C120.885 60.3257 121.008 60.4949 121.126 60.6794C121.244 60.8486 121.362 61.0229 121.475 61.1921C121.587 61.3664 121.695 61.5458 121.798 61.7048C121.9 61.8842 121.998 62.0636 122.09 62.2482V62.2789C122.182 62.4584 122.269 62.6378 122.356 62.8275V62.8685C122.438 63.0479 122.515 63.2325 122.592 63.4171C122.592 63.4171 122.592 63.4581 122.618 63.4837C122.69 63.6631 122.756 63.8426 122.823 64.0271L122.854 64.1143C122.915 64.2886 122.972 64.468 123.028 64.6526C123.028 64.6885 123.054 64.7244 123.064 64.7602C123.115 64.9346 123.161 65.114 123.213 65.2729C123.222 65.3196 123.234 65.3658 123.248 65.4113C123.289 65.5805 123.33 65.7548 123.366 65.924C123.366 65.9753 123.392 66.0316 123.402 66.0829C123.438 66.2521 123.469 66.4213 123.5 66.5956L123.53 66.7853C123.561 66.9442 123.582 67.1134 123.602 67.2979L123.633 67.5081C123.633 67.6671 123.669 67.8311 123.684 67.9952C123.684 68.0721 123.684 68.149 123.684 68.2259C123.684 68.3848 123.684 68.5488 123.715 68.7078V68.9538C123.715 69.123 123.715 69.2973 123.715 69.4665C123.715 69.5434 123.715 69.6152 123.715 69.687C123.715 69.933 123.715 70.1996 123.715 70.4355C123.715 70.6713 123.684 71.0353 123.653 71.3326C123.653 71.4044 123.653 71.4762 123.653 71.5479C123.628 71.8043 123.597 72.0606 123.561 72.3118V72.4297C123.464 73.0552 123.336 73.6652 123.182 74.2651C122.508 77.0676 121.079 79.6317 119.05 81.6782L118.978 81.7448C118.742 81.9704 118.501 82.1806 118.25 82.3857L118.199 82.4216C116.472 83.8714 114.301 84.6856 112.047 84.7286C109.831 84.7162 107.695 83.898 106.038 82.4267C104.216 80.7962 102.883 78.691 102.188 76.3465Z" fill="white" stroke="#263238" stroke-miterlimit="10"/>
<path d="M102.732 70.948C102.796 69.3493 103.114 67.771 103.675 66.2725L108.115 69.0562C107.912 69.6642 107.797 70.2975 107.771 70.9377C107.771 71.0351 107.771 71.1274 107.771 71.2197L102.726 72.0399C102.716 71.6811 102.716 71.3171 102.732 70.948Z" fill="#263238" stroke="#263238" stroke-miterlimit="10"/>
<path d="M110.586 65.847C110.11 66.1124 109.685 66.4595 109.33 66.8724L106.202 62.0636C107.231 60.9086 108.521 60.0172 109.965 59.4644L110.586 65.847Z" fill="#263238" stroke="#263238" stroke-miterlimit="10"/>
<path d="M108.407 74.0703C108.623 74.5091 108.903 74.9134 109.237 75.2699L106.674 81.0169C105.384 79.9049 104.382 78.4979 103.752 76.9156L108.407 74.0703Z" fill="#263238" stroke="#263238" stroke-miterlimit="10"/>
<path d="M115.959 67.949L120.485 64.8013C121.183 66.4536 121.551 68.2266 121.567 70.0202L116.507 70.1638C116.462 69.398 116.276 68.6472 115.959 67.949Z" fill="#263238" stroke="#263238" stroke-miterlimit="10"/>
<path d="M114.42 66.0313C114.054 65.7752 113.644 65.5876 113.21 65.4777L113.949 59.1206C115.565 59.4202 117.048 60.2137 118.194 61.3917L114.42 66.0313Z" fill="#263238" stroke="#263238" stroke-miterlimit="10"/>
<path d="M111.437 76.4539C111.596 76.4745 111.757 76.4847 111.919 76.4846C112.375 76.4831 112.828 76.3944 113.251 76.2231L115.712 81.724C114.484 82.472 113.075 82.8725 111.637 82.8827C111.247 82.8848 110.858 82.8557 110.473 82.7955L111.437 76.4539Z" fill="#263238" stroke="#263238" stroke-miterlimit="10"/>
<path d="M115.994 73.3062L121.003 74.4238C120.519 76.1761 119.687 77.8132 118.558 79.2377L115.348 74.4955C115.608 74.1246 115.824 73.7257 115.994 73.3062Z" fill="#263238" stroke="#263238" stroke-miterlimit="10"/>
<path d="M166.825 60.9103C167.01 52.9435 169.993 46.4685 173.49 46.4531H181.549L180.877 75.3059H172.818C169.322 75.3213 166.64 68.8617 166.825 60.9103Z" fill="#263238" stroke="#263238" stroke-miterlimit="10"/>
<path d="M174.884 60.9103C174.7 68.8771 177.381 75.3213 180.877 75.3059C184.374 75.2906 187.357 68.8207 187.542 60.8488C187.726 52.8768 185.045 46.4378 181.549 46.4532C178.052 46.4685 175.069 52.9691 174.884 60.9103Z" fill="#878787" stroke="#263238" stroke-miterlimit="10"/>
<path d="M176.314 65.7856C176.253 65.4268 176.196 65.0628 176.15 64.6885C176.104 64.3143 176.068 63.9298 176.038 63.5401C175.976 62.6891 175.95 61.8073 175.971 60.8999C176.005 59.0861 176.235 57.2812 176.658 55.5169V55.4759C176.745 55.1171 176.842 54.7685 176.945 54.4506V54.384C177.053 54.0558 177.16 53.7329 177.278 53.4253V53.374C178.304 50.6774 179.806 48.9497 181.451 48.9395C182.856 48.9395 184.102 50.1903 184.994 52.241C185.055 52.3794 185.112 52.5179 185.168 52.6563C185.224 52.7998 185.281 52.9434 185.332 53.092C185.383 53.2407 185.435 53.3894 185.481 53.538C185.527 53.6867 185.573 53.8354 185.619 53.9943C185.667 54.1447 185.708 54.2985 185.742 54.4557V54.4916C185.783 54.6403 185.819 54.7941 185.855 54.953C185.853 54.97 185.853 54.9873 185.855 55.0043C185.891 55.1529 185.922 55.3067 185.952 55.4605C185.955 55.4844 185.955 55.5084 185.952 55.5323C185.983 55.681 186.009 55.8348 186.04 55.9835V56.0757C186.04 56.2244 186.086 56.3731 186.106 56.5218V56.6345C186.106 56.7781 186.147 56.9216 186.163 57.0652C186.165 57.1113 186.165 57.1575 186.163 57.2036C186.163 57.342 186.193 57.4856 186.204 57.624C186.204 57.6804 186.204 57.7317 186.204 57.7829L186.234 58.1982V58.3725C186.234 58.5109 186.234 58.6442 186.234 58.7826C186.234 58.921 186.234 58.9108 186.234 58.9723C186.234 59.1107 186.234 59.244 186.234 59.3824C186.234 59.5209 186.234 59.5157 186.234 59.5824C186.234 59.7259 186.234 59.8695 186.234 60.0181C186.234 60.0797 186.234 60.1412 186.234 60.2027C186.234 60.4078 186.234 60.618 186.234 60.823C186.234 61.0281 186.234 61.3357 186.234 61.5818C186.234 61.6382 186.234 61.6997 186.234 61.7612L186.188 62.3969C186.188 62.4328 186.188 62.4635 186.188 62.4994C186.142 63.0121 186.081 63.5248 186.009 64.0374C185.744 66.2089 185.078 68.3122 184.045 70.2407L184.015 70.3022C183.902 70.4868 183.789 70.6662 183.671 70.8149V70.8456C182.825 72.0606 181.831 72.7733 180.78 72.7784C179.729 72.7835 178.76 72.0709 177.965 70.8508C177.094 69.2843 176.534 67.5645 176.314 65.7856Z" fill="white" stroke="#263238" stroke-miterlimit="10"/>
<path d="M13.2561 65.0114C13.6509 55.5015 20.013 47.7808 27.4621 47.7603H35.5417C42.9958 47.7603 48.7172 55.4502 48.3224 64.9448C47.9277 74.4393 41.5655 82.1908 34.1113 82.1908H26.0369C18.5827 82.2165 12.8614 74.5009 13.2561 65.0114Z" fill="#263238" stroke="#263238" stroke-miterlimit="10"/>
<path d="M164.241 5.66012C164.241 5.66012 167.83 6.71621 168.307 7.76718C168.783 8.81814 169.055 9.57176 169.055 9.57176L179.888 25.367C179.888 25.367 183.799 25.0696 185.014 28.3763C186.229 31.683 185.763 36.1996 185.763 36.1996C185.763 36.1996 188.623 43.2692 188.772 48.5343C188.874 51.6004 188.723 54.6697 188.321 57.711C188.321 57.711 189.075 48.0832 186.819 45.0738C184.563 42.0645 179.898 44.3253 178.104 49.7391C176.309 55.1528 174.156 65.2318 174.156 65.2318L126.478 75.0135C126.478 75.0135 128.888 62.3763 125.725 55.1528C122.561 47.9294 107.827 48.3856 105.115 61.474C102.403 74.5623 103.311 76.9667 103.311 76.9667C103.311 76.9667 93.2319 79.0738 62.5437 78.6226C31.8556 78.1715 15.0094 74.5623 10.4929 73.3575C10.4929 73.3575 9.46751 67.79 9.13942 64.4833C8.94006 62.5803 9.25153 60.6585 10.0417 58.9158C10.0417 58.9158 10.3442 52.8971 11.0978 50.79C11.8514 48.683 14.1071 45.525 14.1071 45.525C14.1071 45.525 16.3629 40.2599 20.1207 36.9532C23.8785 33.6465 30.051 30.3347 31.5583 29.5811C33.0655 28.8275 35.0136 28.3763 37.8743 26.4231C40.735 24.4698 58.4834 12.13 64.051 8.82327C69.6185 5.51658 81.6508 3.85555 84.0449 3.4044C86.4391 2.95326 114.133 1 123.761 1C133.389 1 153.26 1.45114 164.241 5.66012Z" fill="#00C977" stroke="#263238" stroke-miterlimit="10"/>
<path opacity="0.15" d="M9.14452 64.4831C8.94516 62.5801 9.25662 60.6583 10.0468 58.9156C10.0468 58.9156 10.1442 56.988 10.3647 54.9373C29.1897 60.4895 62.8667 60.8637 72.2587 60.0332C83.0503 59.0848 102.193 56.4753 103.019 53.3685C103.844 50.2618 111.267 43.2126 116.348 41.3055C120.7 39.6753 171.203 32.6825 185.558 30.7139C185.821 32.5284 185.878 34.3669 185.727 36.1943C185.727 36.1943 188.588 43.2639 188.736 48.529C188.838 51.5951 188.687 54.6644 188.285 57.7057C188.285 57.7057 189.039 48.0778 186.783 45.0685C184.527 42.0591 179.862 44.32 178.068 49.7337C176.273 55.1475 174.156 65.2316 174.156 65.2316L126.478 75.0133C126.478 75.0133 128.888 62.3761 125.725 55.1526C122.561 47.9292 107.827 48.3854 105.115 61.4738C102.403 74.5621 103.311 76.9665 103.311 76.9665C103.311 76.9665 93.2319 79.0736 62.5437 78.6224C31.8556 78.1713 15.0094 74.5621 10.4928 73.3573C10.4979 73.3573 9.44698 67.7898 9.14452 64.4831Z" fill="black"/>
<path d="M131.297 10.4743C137.352 6.13716 142.576 5.47582 145.026 5.27588C147.359 9.46435 151.178 17.3902 151.942 25.6082C139.126 27.6076 124.827 29.8838 124.827 29.8838C124.827 29.8838 121.521 31.0834 120.316 29.8838C119.921 29.5622 119.611 29.1485 119.414 28.679C119.111 27.9254 124.376 15.442 131.297 10.4743Z" fill="white" stroke="#263238" stroke-miterlimit="10"/>
<path d="M149.143 5.29102C152.598 5.47648 156.035 5.90994 159.427 6.58806C162.888 7.34168 164.092 7.49035 164.692 8.09529C165.292 8.70024 171.162 16.057 173.269 21.3067C173.183 21.6842 172.973 22.0221 172.673 22.2672C172.373 22.5123 172 22.6505 171.613 22.6601C171.101 22.6601 164.805 23.6137 156.961 24.8287C155.649 20.1583 153.014 11.9557 149.143 5.29102Z" fill="white" stroke="#263238" stroke-miterlimit="10"/>
<path d="M168.255 22.8958C168.255 22.8958 165.692 13.0167 160.514 7.1416" stroke="#263238" stroke-miterlimit="10"/>
<path d="M151.804 32.7084L156.085 31.9497C156.224 31.9913 156.353 32.0601 156.466 32.1521C156.578 32.2442 156.671 32.3577 156.739 32.486C156.808 32.6143 156.85 32.7548 156.863 32.8995C156.877 33.0442 156.861 33.1901 156.818 33.3288C156.5 34.3797 155.931 34.2618 155.931 34.2618L152.368 34.836C152.134 34.8598 151.899 34.7959 151.71 34.6567C151.521 34.5174 151.39 34.3128 151.342 34.0824C151.158 33.2211 150.917 33.1135 151.804 32.7084Z" stroke="#263238" stroke-miterlimit="10"/>
<path d="M173.443 28.976L176.719 28.3608C176.942 28.4368 177.125 28.5973 177.229 28.8074C177.334 29.0176 177.352 29.2606 177.278 29.4836C177.037 30.3346 176.602 30.2423 176.602 30.2423L173.879 30.7088C173.695 30.7266 173.51 30.6726 173.364 30.5581C173.218 30.4436 173.122 30.2773 173.095 30.0937C172.946 29.3862 172.762 29.3093 173.443 28.976Z" stroke="#263238" stroke-miterlimit="10"/>
<path d="M147.267 4.77832C147.267 4.77832 153.367 16.1236 154.444 25.5413" stroke="#263238" stroke-miterlimit="10"/>
<path d="M155.828 27.4893C155.828 27.4893 158.612 32.1955 158.72 33.8002C158.827 35.4048 158.504 54.6708 157.971 58.203" stroke="#263238" stroke-miterlimit="10"/>
<path d="M125.54 17.0005C125.54 17.0005 127.683 23.2089 128.324 26.5258" stroke="#263238" stroke-miterlimit="10"/>
<path d="M126.396 34.231C126.396 34.231 128.754 42.044 128.857 47.9294C128.96 53.8148 129.072 64.8473 129.072 64.8473" stroke="#263238" stroke-miterlimit="10"/>
<path d="M173.597 23.4189C173.597 23.4189 178.627 28.0329 179.052 29.5197C179.478 31.0064 178.95 43.8743 178.95 43.8743" stroke="#263238" stroke-miterlimit="10"/>
<path d="M172.618 58.4185C172.618 58.4185 171.87 60.5614 170.265 61.0946C168.66 61.6277 129.698 69.1229 129.698 69.1229" stroke="#263238" stroke-miterlimit="10"/>
<path d="M59.7754 65.2115C59.7754 65.2115 29.9434 65.6216 18.8596 62.2021C18.8596 62.2021 19.9516 69.5896 22.0073 71.0969C24.0631 72.6041 38.9766 74.137 46.2256 74.3779C54.4283 74.6548 59.0935 73.8345 59.0935 73.8345L59.7754 65.2115Z" fill="#263238" stroke="#263238" stroke-miterlimit="10"/>
<path d="M65.1122 46.5962L62.1028 52.7482C62.1028 52.7482 45.272 53.1584 43.3547 53.2917C41.4373 53.4249 39.3866 54.3888 37.2027 53.2917C35.0187 52.1945 25.5703 50.9693 24.4732 50.9693C23.3761 50.9693 22.0124 51.928 22.0124 51.928C22.0124 51.928 24.4732 45.776 25.4319 45.2223C26.1502 44.8584 26.9596 44.714 27.7594 44.807C28.1644 44.8173 48.143 43.3152 65.1122 46.5962Z" fill="#263238" stroke="#263238" stroke-miterlimit="10"/>
<path d="M96.8359 34.308C96.8359 34.308 104.013 33.2058 106.746 34.1696C109.478 35.1334 108.125 38.8503 103.444 42.2902C98.7636 45.7302 94.9083 49.0318 90.1149 49.5855C85.3215 50.1391 77.0163 51.9437 76.6062 50.4057C76.196 48.8677 77.7084 43.3873 83.2144 39.3937C88.7204 35.4 96.8359 34.308 96.8359 34.308Z" fill="white" stroke="#263238" stroke-miterlimit="10"/>
<path d="M39.3251 26.4589L40.6991 26.8741L47.3637 27.0638C50.8652 27.1664 55.4895 27.2945 60.6007 27.4278C67.655 27.6175 75.6321 27.8123 82.835 27.9405C93.8471 28.1712 103.065 28.2891 104.449 28.084C107.231 27.7262 109.844 26.5524 111.96 24.7107C113.553 23.285 114.878 21.5851 115.871 19.6917C119.137 13.6576 127.504 6.22911 127.504 6.22911C114.292 4.69111 82.7735 5.2653 79.1951 5.40372C78.0849 5.46032 76.9801 5.59393 75.8884 5.8036C72.0691 6.48031 67.086 7.98242 64.1945 9.94593C63.6819 10.2945 62.8565 10.8431 61.8209 11.5352C59.4011 13.1501 55.8125 15.5289 52.2084 17.9179L45.9231 22.0756L39.3251 26.4589Z" fill="white" stroke="#263238" stroke-miterlimit="10"/>
<path d="M64.2201 9.94605C63.7075 10.2947 62.8821 10.8432 61.8465 11.5353L82.794 27.9406C93.8061 28.1713 103.024 28.2892 104.408 28.0841C107.19 27.7263 109.803 26.5525 111.919 24.7108L75.914 5.80371C72.0947 6.48043 67.1116 7.98254 64.2201 9.94605Z" fill="#263238" stroke="#263238" stroke-miterlimit="10"/>
<path d="M45.9488 22.0757L47.3227 27.0639C50.8242 27.1664 55.4485 27.2946 60.5598 27.4279L52.2341 17.918L45.9488 22.0757Z" fill="#263238" stroke="#263238" stroke-miterlimit="10"/>
<path d="M68.9725 42.48C68.1369 43.331 67.3269 44.2282 66.5579 45.1817" stroke="#263238" stroke-miterlimit="10"/>
<path d="M89.269 30.314C89.269 30.314 78.8516 33.39 70.4183 41.0799" stroke="#263238" stroke-miterlimit="10"/>
<path d="M22.5457 44.9355C21.4451 47.0032 20.6474 49.2184 20.1771 51.513" stroke="#263238" stroke-miterlimit="10"/>
<path d="M38.4792 30.8677C38.4792 30.8677 29.2513 34.4563 23.7196 42.9461" stroke="#263238" stroke-miterlimit="10"/>
<path d="M81.0099 67.8875C81.0099 69.487 82.5479 70.779 84.4499 70.779C86.3519 70.779 87.8899 69.487 87.8899 67.8875C87.8899 66.288 86.3519 64.9961 84.4499 64.9961C82.5479 64.9961 81.0099 66.2983 81.0099 67.8875Z" fill="white" stroke="#263238" stroke-miterlimit="10"/>
<path d="M9.74946 63.1912C10.0417 64.5703 10.9696 65.5392 11.8257 65.3547C12.6819 65.1701 13.1382 63.9141 12.8511 62.535C12.564 61.156 11.6309 60.1922 10.8004 60.3716C9.9699 60.551 9.45724 61.8173 9.74946 63.1912Z" fill="white" stroke="#263238" stroke-miterlimit="10"/>
<path d="M127.991 28.3611C127.991 28.3611 130.846 23.5472 132.651 23.2344C134.455 22.9217 142.13 22.6346 143.786 23.6907C145.442 24.7468 144.985 28.2022 144.386 29.1045C143.786 30.0067 141.376 30.4579 139.259 30.3092C137.142 30.1605 130.082 30.7604 130.082 30.7604C130.082 30.7604 125.873 33.7697 124.366 33.4672C122.859 33.1648 120.906 29.8786 122.264 28.0484C123.623 26.2181 125.73 26.7206 127.991 28.3611Z" fill="#263238" stroke="#263238" stroke-miterlimit="10"/>
<path d="M127.991 28.3765L123.023 29.4326" stroke="#263238" stroke-miterlimit="10"/>
<path d="M164.241 5.66012C164.241 5.66012 167.83 6.71621 168.307 7.76718C168.783 8.81814 169.055 9.57176 169.055 9.57176L179.888 25.367C179.888 25.367 183.799 25.0696 185.014 28.3763C186.229 31.683 185.763 36.1996 185.763 36.1996C185.763 36.1996 188.623 43.2692 188.772 48.5343C188.874 51.6004 188.723 54.6697 188.321 57.711C188.321 57.711 189.075 48.0832 186.819 45.0738C184.563 42.0645 179.898 44.3253 178.104 49.7391C176.309 55.1528 174.156 65.2318 174.156 65.2318L126.478 75.0135C126.478 75.0135 128.888 62.3763 125.725 55.1528C122.561 47.9294 107.827 48.3856 105.115 61.474C102.403 74.5623 103.311 76.9667 103.311 76.9667C103.311 76.9667 93.2319 79.0738 62.5437 78.6226C31.8556 78.1715 15.0094 74.5623 10.4929 73.3575C10.4929 73.3575 9.46752 67.79 9.13941 64.4833C8.94006 62.5803 9.25152 60.6585 10.0417 58.9158C10.0417 58.9158 10.3442 52.8971 11.0978 50.79C11.8514 48.683 14.1071 45.525 14.1071 45.525C14.1071 45.525 16.3629 40.2599 20.1207 36.9532C23.8785 33.6465 30.051 30.3347 31.5583 29.5811C33.0655 28.8275 35.0136 28.3763 37.8743 26.4231C40.735 24.4698 58.4834 12.13 64.051 8.82327C69.6185 5.51658 81.6508 3.85555 84.0449 3.4044C86.4391 2.95326 114.133 1 123.761 1C133.389 1 153.26 1.45114 164.241 5.66012Z" stroke="#263238" stroke-miterlimit="10"/>
<path d="M25.5447 33.0674C25.5447 33.0674 28.5694 34.1696 27.744 35.2718C26.9186 36.3741 22.3764 39.2604 20.3155 42.8388C18.2546 46.4172 17.8342 48.2064 16.8755 48.2064C15.9168 48.2064 13.8252 46.4223 14.1123 45.5252C14.3994 44.628 15.9117 36.5074 25.5447 33.0674Z" fill="white" stroke="#263238" stroke-miterlimit="10"/>
<path d="M176.981 60.6587C177.008 59.2598 177.152 57.8656 177.411 56.4907L179.462 58.972C179.361 59.529 179.301 60.0928 179.283 60.6587C179.283 60.7458 179.283 60.8279 179.283 60.9099L176.971 61.643C176.976 61.2995 176.976 60.9714 176.981 60.6587Z" fill="#263238" stroke="#263238" stroke-miterlimit="10"/>
<path d="M180.59 56.0959C180.351 56.3667 180.156 56.6728 180.011 57.0033L178.58 52.7123C178.958 51.8129 179.551 51.0205 180.308 50.4053L180.59 56.0959Z" fill="#263238" stroke="#263238" stroke-miterlimit="10"/>
<path d="M179.585 63.4272C179.675 63.7962 179.802 64.1552 179.965 64.4987L178.785 69.6254C178.138 68.4883 177.686 67.2511 177.447 65.9649L179.585 63.4272Z" fill="#263238" stroke="#263238" stroke-miterlimit="10"/>
<path d="M183.046 57.9676L185.096 55.1582C185.426 56.6883 185.597 58.2481 185.609 59.8132L183.292 59.9414C183.274 59.277 183.191 58.616 183.046 57.9676Z" fill="#263238" stroke="#263238" stroke-miterlimit="10"/>
<path d="M182.359 56.2599C182.22 56.0457 182.029 55.8695 181.805 55.7472L182.143 50.0566C182.877 50.3078 183.543 51.0256 184.092 52.0817L182.359 56.2599Z" fill="#263238" stroke="#263238" stroke-miterlimit="10"/>
<path d="M180.974 65.5498C181.046 65.5704 181.12 65.5808 181.195 65.5805C181.419 65.5738 181.634 65.4906 181.805 65.3447L182.943 70.2561C182.723 70.5513 182.442 70.7957 182.119 70.9727C181.796 71.1496 181.439 71.2549 181.072 71.2814C180.898 71.2777 180.726 71.2501 180.559 71.1994L180.974 65.5498Z" fill="#263238" stroke="#263238" stroke-miterlimit="10"/>
<path d="M183.061 62.7456L185.358 63.735C185.159 65.2056 184.782 66.6465 184.235 68.026L182.764 63.7966C182.888 63.4537 182.987 63.1025 183.061 62.7456Z" fill="#263238" stroke="#263238" stroke-miterlimit="10"/>
<path d="M20.5862 98.3856C20.7486 98.3862 20.911 98.3869 21.0783 98.3876C25.5269 98.4467 29.4946 100.179 32.6897 103.228C33.1642 103.025 33.4748 102.753 33.8448 102.397C37.4546 99.1275 42.1518 98.2137 46.8966 98.4284C50.2803 98.6795 53.4154 100.149 56 102.268C56.1001 102.345 56.2002 102.422 56.3034 102.501C58.7963 104.498 60.4391 107.8 60.8276 110.908C60.8962 111.836 60.8802 112.768 60.8746 113.698C60.8745 113.972 60.8745 114.247 60.8748 114.521C60.8749 115.26 60.8725 116 60.8696 116.739C60.867 117.513 60.8667 118.288 60.8662 119.063C60.865 120.527 60.8616 121.992 60.8574 123.456C60.8528 125.124 60.8505 126.793 60.8484 128.461C60.8441 131.89 60.8365 135.319 60.8276 138.748C58.4152 138.748 56.0028 138.748 53.5173 138.748C53.5173 127.841 53.5173 116.934 53.5173 105.697C47.8731 105.697 42.229 105.697 36.4138 105.697C36.4138 116.604 36.4138 127.511 36.4138 138.748C34.0469 138.748 31.68 138.748 29.2414 138.748C29.2414 127.841 29.2414 116.934 29.2414 105.697C23.5973 105.697 17.9531 105.697 12.1379 105.697C12.1379 116.604 12.1379 127.511 12.1379 138.748C9.72553 138.748 7.31312 138.748 4.8276 138.748C4.81512 135.141 4.80497 131.533 4.79901 127.926C4.79617 126.251 4.79231 124.576 4.78598 122.9C4.78046 121.439 4.77692 119.978 4.77569 118.517C4.77497 117.745 4.7733 116.972 4.76927 116.199C4.76549 115.47 4.76437 114.741 4.7652 114.012C4.76505 113.746 4.76397 113.48 4.76183 113.214C4.73096 109.167 6.10216 105.718 8.96553 102.817C10.87 100.962 13.272 99.7747 15.8017 99.0113C15.8911 98.984 15.9804 98.9567 16.0724 98.9287C17.5528 98.5052 19.0513 98.3779 20.5862 98.3856Z" fill="#00C977"/>
<path d="M161.379 98.4284C164.329 98.4191 167.278 98.4115 170.228 98.407C171.598 98.4049 172.968 98.402 174.337 98.3973C175.532 98.3932 176.727 98.3906 177.921 98.3897C178.553 98.3891 179.185 98.3879 179.817 98.3849C180.413 98.382 181.009 98.3812 181.606 98.3818C181.823 98.3817 182.04 98.3809 182.258 98.3793C185.716 98.3552 188.844 99.3879 191.448 101.72C191.556 101.814 191.664 101.908 191.775 102.005C193.749 103.835 195.078 106.577 195.222 109.258C195.247 110.037 195.241 110.816 195.235 111.596C195.235 111.893 195.235 112.191 195.235 112.488C195.235 113.29 195.232 114.091 195.228 114.892C195.225 115.732 195.225 116.571 195.224 117.411C195.222 118.998 195.218 120.586 195.212 122.173C195.206 123.981 195.203 125.789 195.2 127.598C195.194 131.314 195.184 135.031 195.172 138.748C192.76 138.748 190.348 138.748 187.862 138.748C187.817 138.341 187.771 137.934 187.724 137.514C187.609 137.585 187.493 137.657 187.374 137.73C185.348 138.949 183.232 139.612 180.85 139.613C180.707 139.614 180.564 139.616 180.417 139.617C179.949 139.62 179.481 139.621 179.013 139.622C178.685 139.623 178.356 139.625 178.027 139.626C177.338 139.628 176.65 139.629 175.961 139.63C175.086 139.63 174.21 139.635 173.335 139.642C172.655 139.646 171.976 139.647 171.297 139.647C170.974 139.648 170.652 139.649 170.33 139.652C166.774 139.681 163.641 139.015 160.966 136.554C160.86 136.462 160.754 136.369 160.645 136.274C158.376 134.179 157.072 131.094 156.948 128.036C156.889 124.705 157.881 121.595 160.225 119.18C160.424 118.981 160.626 118.784 160.828 118.588C160.921 118.494 161.014 118.4 161.11 118.303C163.338 116.197 166.538 115.363 169.526 115.387C169.727 115.387 169.929 115.387 170.13 115.387C170.671 115.387 171.211 115.389 171.752 115.392C172.32 115.395 172.887 115.395 173.454 115.396C174.526 115.397 175.598 115.4 176.669 115.404C178.119 115.41 179.569 115.412 181.02 115.415C183.3 115.418 185.581 115.427 187.862 115.434C187.862 112.221 187.862 109.008 187.862 105.697C179.123 105.697 170.383 105.697 161.379 105.697C161.379 103.298 161.379 100.9 161.379 98.4284ZM165.345 124.52C164.55 125.519 164.331 126.582 164.36 127.829C164.361 127.958 164.361 128.087 164.362 128.22C164.365 128.627 164.372 129.033 164.379 129.44C164.382 129.718 164.385 129.996 164.387 130.273C164.393 130.95 164.402 131.626 164.414 132.303C166.887 132.315 169.361 132.325 171.834 132.331C172.983 132.334 174.132 132.338 175.28 132.344C176.282 132.35 177.284 132.353 178.285 132.354C178.815 132.355 179.345 132.357 179.875 132.361C180.375 132.364 180.875 132.366 181.375 132.365C181.643 132.365 181.912 132.368 182.181 132.371C183.734 132.364 185.16 131.972 186.345 130.931C187.917 129.193 187.92 127.511 187.888 125.291C187.886 125.04 187.884 124.788 187.882 124.537C187.878 123.925 187.871 123.314 187.862 122.703C185.353 122.69 182.843 122.68 180.333 122.674C179.168 122.671 178.003 122.668 176.837 122.661C175.821 122.656 174.805 122.652 173.789 122.651C173.251 122.65 172.714 122.649 172.176 122.645C171.669 122.641 171.162 122.64 170.655 122.641C170.382 122.64 170.109 122.637 169.837 122.634C168 122.643 166.608 123.189 165.345 124.52Z" fill="#00C977"/>
<path d="M81.2813 98.3662C81.5534 98.3663 81.8255 98.3662 82.0977 98.3659C82.8288 98.3658 83.5599 98.369 84.291 98.3728C85.0579 98.3763 85.8248 98.3766 86.5917 98.3772C88.0405 98.3789 89.4893 98.3834 90.9381 98.3889C92.5889 98.3951 94.2398 98.3981 95.8906 98.4008C99.2834 98.4065 102.676 98.4166 106.069 98.4284C106.069 100.827 106.069 103.226 106.069 105.697C95.9186 105.697 85.7683 105.697 75.3104 105.697C75.3104 108.865 75.3104 112.033 75.3104 115.297C84.0041 115.297 92.6979 115.297 101.655 115.297C101.655 117.741 101.655 120.185 101.655 122.703C92.9614 122.703 84.2676 122.703 75.3104 122.703C74.9749 127.199 74.9749 127.199 76.6821 130.814C77.7763 131.796 78.9774 132.208 80.4423 132.204C80.6075 132.205 80.6075 132.205 80.7759 132.206C81.1427 132.208 81.5095 132.209 81.8763 132.209C82.1401 132.211 82.4039 132.212 82.6676 132.213C83.3823 132.217 84.0969 132.219 84.8116 132.221C85.559 132.223 86.3064 132.227 87.0538 132.23C88.4684 132.237 89.8831 132.242 91.2977 132.246C92.9085 132.252 94.5193 132.258 96.1301 132.265C99.4431 132.279 102.756 132.292 106.069 132.303C106.069 134.701 106.069 137.1 106.069 139.571C102.513 139.584 98.9564 139.594 95.4001 139.6C93.7486 139.603 92.0972 139.606 90.4458 139.613C89.0055 139.618 87.5653 139.622 86.125 139.623C85.3632 139.624 84.6014 139.625 83.8395 139.629C83.1207 139.633 82.402 139.634 81.6832 139.633C81.4211 139.633 81.1589 139.635 80.8968 139.637C78.7631 139.653 76.7399 139.426 74.8017 138.466C74.6935 138.413 74.5853 138.361 74.4737 138.307C73.3975 137.765 72.4867 137.072 71.5862 136.28C71.443 136.158 71.443 136.158 71.2969 136.033C69.2945 134.201 68.0904 131.393 67.8621 128.737C67.841 128.112 67.8404 127.487 67.8399 126.862C67.8392 126.674 67.8385 126.485 67.8378 126.297C67.836 125.788 67.8351 125.279 67.8345 124.77C67.8341 124.451 67.8335 124.132 67.8329 123.813C67.831 122.811 67.8297 121.809 67.8291 120.807C67.8285 119.657 67.8261 118.506 67.8221 117.356C67.8191 116.463 67.8177 115.57 67.8175 114.677C67.8174 114.145 67.8166 113.614 67.8141 113.082C67.7901 107.64 67.7901 107.64 68.9655 105.286C69.0265 105.159 69.0875 105.033 69.1503 104.903C70.6029 102.066 73.1934 100.107 76.1379 98.977C77.8557 98.4419 79.4919 98.3517 81.2813 98.3662Z" fill="#00C977"/>
<path d="M125.702 98.4044C125.857 98.4035 126.012 98.4026 126.172 98.4016C126.683 98.3989 127.194 98.3973 127.705 98.396C127.969 98.3951 127.969 98.3951 128.237 98.3943C129.072 98.3917 129.906 98.3897 130.741 98.3886C131.697 98.3872 132.654 98.3836 133.61 98.3781C134.444 98.3734 135.278 98.3718 136.111 98.3713C136.463 98.3706 136.815 98.369 137.167 98.3665C141.362 98.3378 144.817 99.1419 147.945 102.065C150.71 104.908 151.31 107.919 151.31 111.869C148.898 111.869 146.486 111.869 144 111.869C144 109.832 144 107.796 144 105.697C136.262 105.697 128.524 105.697 120.552 105.697C120.552 114.477 120.552 123.257 120.552 132.303C128.29 132.303 136.028 132.303 144 132.303C144 130.312 144 128.32 144 126.269C146.412 126.269 148.825 126.269 151.31 126.269C151.31 130.357 150.621 133.213 147.724 136.143C147.631 136.237 147.538 136.331 147.442 136.428C145.202 138.547 142.153 139.64 139.089 139.627C138.844 139.628 138.844 139.628 138.593 139.63C138.059 139.632 137.524 139.632 136.989 139.631C136.708 139.631 136.428 139.632 136.147 139.633C135.267 139.634 134.387 139.634 133.506 139.633C132.604 139.631 131.702 139.633 130.801 139.637C130.02 139.64 129.24 139.641 128.46 139.64C127.997 139.639 127.534 139.64 127.07 139.642C122.945 139.659 119.461 138.801 116.414 135.869C113.931 133.283 113.058 130.185 113.066 126.672C113.065 126.487 113.064 126.301 113.063 126.115C113.062 125.617 113.062 125.118 113.062 124.619C113.062 124.2 113.061 123.781 113.061 123.362C113.059 122.371 113.059 121.381 113.06 120.391C113.061 119.375 113.059 118.36 113.056 117.345C113.054 116.467 113.053 115.59 113.053 114.712C113.054 114.191 113.053 113.669 113.051 113.148C113.037 108.834 113.431 105.38 116.552 102.132C116.626 102.047 116.701 101.963 116.777 101.876C117.531 101.055 118.495 100.5 119.448 99.9372C119.564 99.869 119.679 99.8007 119.797 99.7304C121.623 98.7423 123.652 98.4096 125.702 98.4044Z" fill="#00C977"/>
</svg>
