<svg width="16" height="16" viewBox="0 0 16 16" fill="none" xmlns="http://www.w3.org/2000/svg">
<path d="M12.2001 3.80669C12.1385 3.74489 12.0652 3.69586 11.9846 3.66241C11.9039 3.62895 11.8175 3.61173 11.7301 3.61173C11.6428 3.61173 11.5564 3.62895 11.4757 3.66241C11.3951 3.69586 11.3218 3.74489 11.2601 3.80669L8.00015 7.06003L4.74015 3.80003C4.67843 3.73831 4.60515 3.68935 4.52451 3.65594C4.44387 3.62254 4.35744 3.60535 4.27015 3.60535C4.18286 3.60535 4.09643 3.62254 4.01579 3.65594C3.93514 3.68935 3.86187 3.73831 3.80015 3.80003C3.73843 3.86175 3.68947 3.93502 3.65606 4.01566C3.62266 4.09631 3.60547 4.18274 3.60547 4.27003C3.60547 4.35731 3.62266 4.44375 3.65606 4.52439C3.68947 4.60503 3.73843 4.67831 3.80015 4.74003L7.06015 8.00003L3.80015 11.26C3.73843 11.3217 3.68947 11.395 3.65606 11.4757C3.62266 11.5563 3.60547 11.6427 3.60547 11.73C3.60547 11.8173 3.62266 11.9037 3.65606 11.9844C3.68947 12.065 3.73843 12.1383 3.80015 12.2C3.86187 12.2617 3.93514 12.3107 4.01579 12.3441C4.09643 12.3775 4.18286 12.3947 4.27015 12.3947C4.35744 12.3947 4.44387 12.3775 4.52451 12.3441C4.60515 12.3107 4.67843 12.2617 4.74015 12.2L8.00015 8.94003L11.2601 12.2C11.3219 12.2617 11.3951 12.3107 11.4758 12.3441C11.5564 12.3775 11.6429 12.3947 11.7301 12.3947C11.8174 12.3947 11.9039 12.3775 11.9845 12.3441C12.0652 12.3107 12.1384 12.2617 12.2001 12.2C12.2619 12.1383 12.3108 12.065 12.3442 11.9844C12.3776 11.9037 12.3948 11.8173 12.3948 11.73C12.3948 11.6427 12.3776 11.5563 12.3442 11.4757C12.3108 11.395 12.2619 11.3217 12.2001 11.26L8.94015 8.00003L12.2001 4.74003C12.4535 4.48669 12.4535 4.06003 12.2001 3.80669Z" fill="black"/>
</svg>
