<svg width="19" height="18" viewBox="0 0 19 18" fill="none" xmlns="http://www.w3.org/2000/svg">
<path d="M15.5 3H13.1225L11.75 1.5H7.25L5.8775 3H3.5C3.10218 3 2.72064 3.15804 2.43934 3.43934C2.15804 3.72064 2 4.10218 2 4.5V13.5C2 13.8978 2.15804 14.2794 2.43934 14.5607C2.72064 14.842 3.10218 15 3.5 15H15.5C15.8978 15 16.2794 14.842 16.5607 14.5607C16.842 14.2794 17 13.8978 17 13.5V4.5C17 4.10218 16.842 3.72064 16.5607 3.43934C16.2794 3.15804 15.8978 3 15.5 3ZM15.5 13.5H3.5V4.5H6.5375L7.91 3H11.09L12.4625 4.5H15.5V13.5ZM9.5 5.25C8.50544 5.25 7.55161 5.64509 6.84835 6.34835C6.14509 7.05161 5.75 8.00544 5.75 9C5.75 9.99456 6.14509 10.9484 6.84835 11.6517C7.55161 12.3549 8.50544 12.75 9.5 12.75C10.4946 12.75 11.4484 12.3549 12.1516 11.6517C12.8549 10.9484 13.25 9.99456 13.25 9C13.25 8.00544 12.8549 7.05161 12.1516 6.34835C11.4484 5.64509 10.4946 5.25 9.5 5.25ZM9.5 11.25C8.90326 11.25 8.33097 11.0129 7.90901 10.591C7.48705 10.169 7.25 9.59674 7.25 9C7.25 8.40326 7.48705 7.83097 7.90901 7.40901C8.33097 6.98705 8.90326 6.75 9.5 6.75C10.0967 6.75 10.669 6.98705 11.091 7.40901C11.5129 7.83097 11.75 8.40326 11.75 9C11.75 9.59674 11.5129 10.169 11.091 10.591C10.669 11.0129 10.0967 11.25 9.5 11.25Z" fill="#252940"/>
</svg>
