<svg width="306" height="204" viewBox="0 0 306 204" fill="none" xmlns="http://www.w3.org/2000/svg">
<path d="M256.389 79.978C256.389 79.978 251.606 46.5541 217.414 25.9099C183.222 5.26573 167.39 25.8089 150.2 34.3792C133.01 42.9495 123.685 31.1529 94.9919 25.5822C66.2992 20.0116 41.4321 75.3904 49.5618 118.645C57.6914 161.899 75.6243 177.301 114.838 187.131C154.051 196.962 177.244 164.521 204.981 170.419C232.717 176.318 265.714 143.221 256.389 79.978Z" fill="#FFEFEF"/>
<path d="M289.68 181.184C289.68 181.245 228.48 181.29 153.025 181.29C77.5692 181.29 16.3447 181.245 16.3447 181.184C16.3447 181.123 77.5202 181.078 153.025 181.078C228.529 181.078 289.68 181.127 289.68 181.184Z" fill="#263238"/>
<path d="M144.949 133.556H126.215C118.18 133.556 111.672 144.097 111.672 157.101C111.672 170.105 118.18 180.646 126.215 180.646H144.949C152.984 180.646 159.499 170.105 159.499 157.101C159.499 144.097 152.972 133.556 144.949 133.556Z" fill="#E8867C"/>
<path opacity="0.2" d="M144.949 133.556H126.215C118.18 133.556 111.672 144.097 111.672 157.101C111.672 170.105 118.18 180.646 126.215 180.646H144.949C152.984 180.646 159.499 170.105 159.499 157.101C159.499 144.097 152.972 133.556 144.949 133.556Z" fill="black"/>
<path d="M60.3662 133.556H41.6321C33.5971 133.556 27.0889 144.097 27.0889 157.101C27.0889 170.105 33.5971 180.646 41.6321 180.646H60.3662C68.4012 180.646 74.9156 170.105 74.9156 157.101C74.9156 144.097 68.4012 133.556 60.3662 133.556Z" fill="#E8867C"/>
<path opacity="0.2" d="M60.3662 133.556H41.6321C33.5971 133.556 27.0889 144.097 27.0889 157.101C27.0889 170.105 33.5971 180.646 41.6321 180.646H60.3662C68.4012 180.646 74.9156 170.105 74.9156 157.101C74.9156 144.097 68.4012 133.556 60.3662 133.556Z" fill="black"/>
<path d="M239.174 115.69L243.432 119.34C244.422 120.191 245.16 121.298 245.563 122.541C245.967 123.783 246.021 125.113 245.719 126.383L244.745 130.489L239.174 115.69Z" fill="#E8867C"/>
<path d="M246.916 139.576C246.179 131.544 244.077 123.696 240.699 116.372L239.227 113.215H203.772L222.16 166.133C228.628 164.517 234.621 161.39 239.647 157.009L240.073 156.644C242.482 154.543 244.359 151.901 245.548 148.934C246.738 145.967 247.206 142.76 246.916 139.576Z" fill="#E8867C"/>
<path opacity="0.5" d="M246.916 139.576C246.179 131.544 244.077 123.696 240.699 116.372L239.227 113.215H203.772L222.16 166.133C228.628 164.517 234.621 161.39 239.647 157.009L240.073 156.644C242.482 154.543 244.359 151.901 245.548 148.934C246.738 145.967 247.206 142.76 246.916 139.576Z" fill="white"/>
<path d="M199.838 180.646C191.803 180.646 185.289 170.105 185.289 157.101C185.289 144.097 191.803 133.556 199.838 133.556H218.506V180.646H199.838Z" fill="#E8867C"/>
<path d="M218.572 180.646C226.607 180.646 233.121 170.105 233.121 157.101C233.121 144.097 226.607 133.556 218.572 133.556C210.536 133.556 204.022 144.097 204.022 157.101C204.022 170.105 210.536 180.646 218.572 180.646Z" fill="#E8867C"/>
<path opacity="0.2" d="M218.572 171.991C224.209 171.991 228.778 165.324 228.778 157.101C228.778 148.877 224.209 142.211 218.572 142.211C212.935 142.211 208.365 148.877 208.365 157.101C208.365 165.324 212.935 171.991 218.572 171.991Z" fill="black"/>
<path d="M93.6379 166.133L58.6514 109.985C58.6514 109.985 86.3328 82.0059 146.793 82.0059C199.139 82.0059 230.488 99.2923 239.247 113.221L218.506 133.561C198.433 133.561 198.543 154.85 195.787 163.822C195.578 164.497 195.157 165.087 194.586 165.505C194.016 165.922 193.326 166.144 192.618 166.139H93.6379" fill="#E8867C"/>
<path opacity="0.5" d="M93.6379 166.133L58.6514 109.985C58.6514 109.985 86.3328 82.0059 146.793 82.0059C199.139 82.0059 230.488 99.2923 239.247 113.221L218.506 133.561C198.433 133.561 198.543 154.85 195.787 163.822C195.578 164.497 195.157 165.087 194.586 165.505C194.016 165.922 193.326 166.144 192.618 166.139H93.6379" fill="white"/>
<path d="M115.266 180.646C107.231 180.646 100.717 170.105 100.717 157.101C100.717 144.097 107.237 133.556 115.266 133.556H133.933V180.646H115.266Z" fill="#E8867C"/>
<path d="M134.001 180.646C142.037 180.646 148.551 170.105 148.551 157.101C148.551 144.097 142.037 133.556 134.001 133.556C125.966 133.556 119.452 144.097 119.452 157.101C119.452 170.105 125.966 180.646 134.001 180.646Z" fill="#E8867C"/>
<path opacity="0.2" d="M134.001 171.991C139.638 171.991 144.208 165.324 144.208 157.101C144.208 148.877 139.638 142.211 134.001 142.211C128.364 142.211 123.795 148.877 123.795 157.101C123.795 165.324 128.364 171.991 134.001 171.991Z" fill="black"/>
<path d="M108.388 161.498C110.17 150.975 120.662 133.555 133.934 133.555L146.774 109.985H58.651C53.0307 109.985 26.7543 119.48 17.1866 129.048C10.4958 135.739 9.79632 142.484 9.00559 159.637C8.84745 163.134 12.0651 166.175 15.9336 166.175C48.4506 166.175 87.8044 166.303 102.129 166.346C105.292 166.328 107.913 164.314 108.388 161.498Z" fill="#E8867C"/>
<path opacity="0.5" d="M108.388 161.498C110.17 150.975 120.662 133.555 133.934 133.555L146.774 109.985H58.651C53.0307 109.985 26.7543 119.48 17.1866 129.048C10.4958 135.739 9.79632 142.484 9.00559 159.637C8.84745 163.134 12.0651 166.175 15.9336 166.175C48.4506 166.175 87.8044 166.303 102.129 166.346C105.292 166.328 107.913 164.314 108.388 161.498Z" fill="white"/>
<path opacity="0.3" d="M146.774 82C86.6849 82 59.2649 109.554 58.6445 109.979H119.433C119.433 109.979 145.588 87.383 162.905 82.5718C157.783 82.1987 152.406 82.0081 146.774 82Z" fill="#E8867C"/>
<path opacity="0.7" d="M71.6066 134.035C79.9457 130.872 105.133 121.998 112.001 124.303C118.868 126.609 102.238 134.844 98.0472 135.939C93.8564 137.034 91.1132 134.838 84.8421 137.873C78.5711 140.909 61.5036 137.855 71.6066 134.035Z" fill="#E8867C"/>
<path opacity="0.2" d="M174.913 166.449C174.848 166.449 174.784 166.43 174.73 166.394C174.66 166.346 174.613 166.273 174.597 166.19C174.581 166.107 174.598 166.021 174.645 165.95C174.773 165.768 187.096 147.21 187.096 109.991C187.096 109.906 187.13 109.824 187.19 109.763C187.251 109.703 187.333 109.669 187.418 109.669C187.46 109.669 187.502 109.677 187.541 109.694C187.579 109.71 187.615 109.734 187.644 109.764C187.673 109.794 187.697 109.829 187.712 109.868C187.728 109.907 187.735 109.949 187.734 109.991C187.734 147.435 175.302 166.133 175.174 166.315C175.145 166.357 175.106 166.392 175.06 166.415C175.015 166.438 174.964 166.45 174.913 166.449Z" fill="#E8867C"/>
<path opacity="0.2" d="M41.3892 137.722H41.3223L24.5772 133.866C24.5318 133.862 24.4879 133.848 24.4483 133.826C24.4087 133.803 24.3744 133.773 24.3478 133.736C24.3212 133.699 24.3029 133.656 24.2941 133.612C24.2853 133.567 24.2862 133.521 24.2968 133.477C24.3074 133.433 24.3275 133.391 24.3556 133.355C24.3837 133.32 24.4192 133.29 24.4597 133.269C24.5002 133.249 24.5447 133.237 24.5901 133.235C24.6356 133.233 24.681 133.24 24.7232 133.258L41.4075 137.09L69.0038 133.939C69.0487 133.921 69.0971 133.914 69.1452 133.918C69.1933 133.922 69.2398 133.937 69.2812 133.962C69.3226 133.987 69.3577 134.021 69.384 134.061C69.4102 134.102 69.4268 134.148 69.4326 134.196C69.4383 134.244 69.433 134.292 69.4171 134.338C69.4012 134.383 69.3751 134.425 69.3407 134.459C69.3064 134.493 69.2648 134.518 69.219 134.533C69.1732 134.549 69.1246 134.553 69.0768 134.547L41.4257 137.722H41.3892Z" fill="#E8867C"/>
<path opacity="0.2" d="M218.504 133.878C218.461 133.879 218.418 133.87 218.379 133.853C218.339 133.837 218.303 133.812 218.273 133.78C218.243 133.75 218.22 133.715 218.203 133.676C218.187 133.637 218.179 133.595 218.179 133.552C218.179 133.51 218.187 133.468 218.203 133.429C218.22 133.39 218.243 133.354 218.273 133.324C224.119 127.588 227.239 114.195 227.239 106.732C227.238 106.69 227.246 106.648 227.261 106.609C227.277 106.57 227.3 106.534 227.329 106.504C227.359 106.474 227.394 106.45 227.433 106.434C227.471 106.418 227.513 106.409 227.555 106.409C227.641 106.409 227.723 106.443 227.783 106.504C227.844 106.564 227.878 106.646 227.878 106.732C227.878 114.31 224.696 127.929 218.723 133.787C218.664 133.843 218.586 133.875 218.504 133.878Z" fill="#E8867C"/>
<path d="M171.384 116.384H179.723C180.034 116.382 180.331 116.258 180.551 116.038C180.771 115.819 180.895 115.521 180.897 115.21C180.895 114.899 180.771 114.602 180.551 114.382C180.331 114.162 180.034 114.038 179.723 114.036H171.384C171.073 114.038 170.775 114.162 170.556 114.382C170.336 114.602 170.212 114.899 170.21 115.21C170.212 115.521 170.336 115.819 170.556 116.038C170.775 116.258 171.073 116.382 171.384 116.384Z" fill="#E8867C"/>
<path d="M207.971 116.384H216.304C216.616 116.384 216.915 116.26 217.136 116.041C217.357 115.821 217.482 115.522 217.484 115.21C217.482 114.898 217.357 114.6 217.136 114.38C216.915 114.16 216.616 114.036 216.304 114.036H207.971C207.66 114.038 207.362 114.162 207.142 114.382C206.923 114.602 206.798 114.899 206.797 115.21C206.798 115.521 206.923 115.819 207.142 116.038C207.362 116.258 207.66 116.382 207.971 116.384Z" fill="#E8867C"/>
<path opacity="0.7" d="M24.0536 134.346C22.3383 133.3 19.5221 131.645 16.3349 129.948C14.591 131.792 13.194 133.935 12.2109 136.274C13.472 136.565 14.6471 137.149 15.6415 137.977C19.7046 141.104 30.5983 138.336 24.0536 134.346Z" fill="#E8867C"/>
<path opacity="0.3" d="M130.206 109.986H215.166C219.51 109.987 223.78 108.866 227.563 106.732C227.563 106.732 213.816 94.2381 186.135 88.8551C174.76 86.6411 163.976 85.7834 160.661 85.9963C152.754 90.1446 140.644 98.9277 130.206 109.986Z" fill="#E8867C"/>
<path d="M79.2587 162.234H18.8351C18.5098 162.235 18.1912 162.142 17.9177 161.966C17.6441 161.79 17.4274 161.539 17.2936 161.242C17.1598 160.946 17.1148 160.617 17.1638 160.295C17.2128 159.974 17.3539 159.673 17.57 159.43L19.1332 157.666C19.2924 157.488 19.4874 157.346 19.7054 157.248C19.9234 157.151 20.1595 157.101 20.3983 157.101H77.6833C77.9212 157.101 78.1564 157.151 78.3734 157.249C78.5904 157.346 78.7843 157.488 78.9424 157.666L80.5056 159.43C80.7206 159.672 80.8614 159.971 80.9111 160.291C80.9608 160.611 80.9172 160.938 80.7857 161.234C80.6542 161.53 80.4402 161.781 80.1694 161.959C79.8986 162.136 79.5824 162.232 79.2587 162.234Z" fill="#E8867C"/>
<path d="M237.707 134.133L233.905 134.863V124.553L237.707 125.283C238.224 125.386 238.613 126.079 238.613 126.907V132.509C238.619 133.33 238.224 134.029 237.707 134.133Z" fill="#E8867C"/>
<path d="M182.416 181.834L128.184 181.585C125.053 181.566 122.058 180.306 119.854 178.082C117.65 175.858 116.417 172.852 116.426 169.721L117.001 33.7627C117.019 30.6303 118.279 27.633 120.504 25.428C122.729 23.223 125.737 21.9903 128.87 22.0001L183.101 22.2489C186.231 22.2684 189.225 23.5269 191.429 25.749C193.633 27.9711 194.866 30.9758 194.86 34.1054L194.284 170.063C194.268 173.197 193.009 176.196 190.784 178.403C188.559 180.61 185.55 181.844 182.416 181.834Z" fill="#455A64"/>
<path d="M183.024 26.9414L172.509 26.8924C171.817 26.9053 171.158 27.1921 170.677 27.69C170.196 28.1879 169.932 28.8562 169.943 29.5485V31.4579C169.949 31.8006 169.886 32.1411 169.76 32.4597C169.634 32.7784 169.446 33.069 169.207 33.3149C168.968 33.5608 168.683 33.7573 168.369 33.893C168.054 34.0287 167.715 34.1011 167.373 34.1058L146.875 34.012C146.183 33.9917 145.527 33.6984 145.051 33.1961C144.575 32.6938 144.316 32.0234 144.333 31.3314V29.422C144.345 28.7346 144.086 28.07 143.612 27.5722C143.138 27.0743 142.486 26.7832 141.799 26.7618H138.103L128.902 26.6925C126.709 26.6816 124.6 27.5424 123.041 29.0856C121.482 30.6288 120.599 32.7281 120.587 34.9218L120.028 167.628C120.019 169.822 120.88 171.93 122.424 173.488C123.968 175.047 126.068 175.928 128.262 175.939L182.387 176.188C183.474 176.193 184.551 175.983 185.556 175.572C186.562 175.161 187.477 174.555 188.249 173.79C189.02 173.025 189.634 172.116 190.054 171.114C190.474 170.112 190.693 169.037 190.698 167.95L191.257 35.2482C191.262 34.1622 191.053 33.0858 190.642 32.0806C190.23 31.0753 189.625 30.1609 188.861 29.3896C188.096 28.6182 187.187 28.005 186.186 27.5849C185.184 27.1649 184.11 26.9462 183.024 26.9414Z" fill="#FAFAFA"/>
<path d="M132.393 71.3418C132.648 71.3418 132.855 71.1464 132.855 70.9053C132.855 70.6642 132.648 70.4688 132.393 70.4688C132.138 70.4688 131.932 70.6642 131.932 70.9053C131.932 71.1464 132.138 71.3418 132.393 71.3418Z" fill="#FFE1ED"/>
<path d="M161.143 76.5426C162.027 77.8623 161.824 79.272 161.825 80.7433C161.825 80.7684 161.838 80.781 161.865 80.781L162.545 80.7824C165.273 80.7824 168.01 80.7824 170.754 80.7824C171.49 80.7824 172 80.7967 172.286 80.8252C174.337 81.0278 175.992 81.9398 177.253 83.5612C177.9 84.4666 178.29 85.4574 178.424 86.5335C178.485 87.0266 178.454 87.6379 178.467 88.189C178.468 88.219 178.452 88.234 178.42 88.234L175.814 88.2311C175.793 88.2311 175.782 88.2407 175.781 88.2601C174.938 100.054 174.097 111.827 173.258 123.579C173.177 124.706 172.873 125.73 172.346 126.649C172.333 126.671 172.34 126.682 172.366 126.683L173.516 126.701C173.889 126.66 174.226 126.841 174.204 127.22C174.18 127.615 173.846 127.678 173.465 127.679C173.235 127.68 173.022 127.682 172.824 127.685L171.616 127.682C171.589 127.682 171.567 127.692 171.549 127.71C171.074 128.229 170.529 128.673 169.915 129.04C169.88 129.061 169.884 129.071 169.925 129.072L171.569 129.074C174.637 129.078 177.681 129.078 180.701 129.076C181.444 129.075 181.443 130.056 180.72 130.056C177.238 130.055 173.778 130.055 170.341 130.056H169.894C156.662 130.056 143.432 130.056 130.203 130.056C130.021 130.056 129.875 129.966 129.768 129.786C129.669 129.542 129.726 129.334 129.938 129.161C130.06 129.105 130.15 129.077 130.208 129.077C133.828 129.077 137.449 129.077 141.07 129.077C141.105 129.077 141.108 129.068 141.078 129.05C140.469 128.676 139.927 128.23 139.452 127.71C139.433 127.691 139.411 127.681 139.384 127.681C138.756 127.681 138.13 127.681 137.506 127.68C137.277 127.68 137.108 127.647 137 127.581C136.727 127.417 136.705 127.038 136.952 126.824C137.194 126.613 138.298 126.701 138.645 126.703C138.679 126.703 138.688 126.689 138.671 126.66C138.07 125.633 137.822 124.676 137.734 123.44C136.913 111.945 136.091 100.45 135.269 88.9548L135.222 88.2884C135.221 88.2734 135.214 88.2594 135.202 88.2491C135.191 88.2389 135.176 88.2332 135.16 88.2332L133.269 88.234H132.572C132.567 88.234 132.562 88.233 132.557 88.2312C132.553 88.2293 132.549 88.2267 132.545 88.2233C132.542 88.2199 132.539 88.2159 132.537 88.2115C132.536 88.2071 132.535 88.2024 132.535 88.1977C132.547 87.7061 132.523 87.1521 132.561 86.7213C132.836 83.604 135.394 81.1552 138.661 80.8267C138.947 80.7982 139.457 80.7837 140.192 80.7832C143.173 80.7822 146.154 80.782 149.134 80.7824C149.161 80.7824 149.174 80.7699 149.174 80.7447C149.177 80.0655 149.178 79.3895 149.179 78.7165C149.181 76.9501 150.402 75.4418 152.233 75.0466C152.551 74.9775 153.046 74.9434 153.716 74.9444C154.886 74.9458 156.056 74.9458 157.226 74.9444C157.933 74.9434 158.442 74.9758 158.75 75.0415C159.716 75.246 160.513 75.7464 161.143 76.5426ZM150.28 80.765H160.717C160.738 80.765 160.757 80.7574 160.772 80.7438C160.786 80.7302 160.794 80.7118 160.794 80.6925V78.7361C160.794 77.9868 160.479 77.2682 159.918 76.7384C159.358 76.2086 158.597 75.911 157.804 75.911H153.193C152.4 75.911 151.639 76.2086 151.079 76.7384C150.518 77.2682 150.203 77.9868 150.203 78.7361V80.6925C150.203 80.7118 150.211 80.7302 150.225 80.7438C150.24 80.7574 150.259 80.765 150.28 80.765ZM175.781 83.4248C174.752 82.43 173.28 81.773 171.781 81.7817C171.355 81.7846 170.847 81.7614 170.507 81.7614C160.337 81.7614 150.166 81.7614 139.996 81.7614C139.292 81.7614 138.783 81.7853 138.468 81.8332C135.63 82.2661 133.644 84.5031 133.565 87.2093C133.565 87.2379 133.58 87.2521 133.61 87.2521L177.386 87.2543C177.414 87.2543 177.428 87.2413 177.427 87.2151C177.403 85.7267 176.854 84.4632 175.781 83.4248ZM140.387 127.214C141.385 128.223 142.584 128.823 143.986 129.014C144.293 129.055 144.803 129.076 145.515 129.076C152.209 129.077 158.902 129.077 165.596 129.077C166.274 129.077 166.783 129.05 167.124 128.998C169.533 128.625 171.505 126.906 172.063 124.642C172.138 124.338 172.199 123.859 172.246 123.205C173.065 111.768 173.883 100.337 174.698 88.9112L174.734 88.284C174.736 88.2622 174.725 88.2514 174.701 88.2514H136.299C136.293 88.2514 136.288 88.2524 136.283 88.2544C136.278 88.2564 136.274 88.2593 136.27 88.263C136.266 88.2667 136.264 88.271 136.262 88.2758C136.26 88.2805 136.259 88.2855 136.26 88.2905C137.1 100.106 137.945 111.924 138.794 123.742C138.888 125.056 139.419 126.213 140.387 127.214Z" fill="#2B2B2B"/>
<path d="M150.28 80.7642C150.259 80.7642 150.24 80.7566 150.226 80.743C150.211 80.7294 150.203 80.7109 150.203 80.6917V78.7353C150.203 77.986 150.518 77.2674 151.079 76.7376C151.639 76.2078 152.4 75.9102 153.193 75.9102H157.804C158.597 75.9102 159.358 76.2078 159.918 76.7376C160.479 77.2674 160.794 77.986 160.794 78.7353V80.6917C160.794 80.7109 160.786 80.7294 160.772 80.743C160.757 80.7566 160.738 80.7642 160.717 80.7642H150.28Z" fill="#E8867C"/>
<path d="M161.143 76.542C161.814 77.0651 162.245 77.7172 162.434 78.4984C162.591 79.1467 162.535 80.035 162.545 80.7819L161.865 80.7804C161.838 80.7804 161.825 80.7679 161.825 80.7427C161.824 79.2714 162.026 77.8617 161.143 76.542Z" fill="#C6638A"/>
<path d="M175.781 83.4242C176.854 84.4626 177.403 85.726 177.427 87.2145C177.428 87.2406 177.414 87.2537 177.386 87.2537L133.61 87.2515C133.58 87.2515 133.565 87.2372 133.565 87.2087C133.644 84.5025 135.63 82.2654 138.468 81.8325C138.783 81.7847 139.293 81.7607 139.996 81.7607C150.167 81.7607 160.337 81.7607 170.507 81.7607C170.847 81.7607 171.355 81.7839 171.781 81.781C173.28 81.7723 174.752 82.4293 175.781 83.4242Z" fill="#E8867C"/>
<path d="M173.517 126.701L172.367 126.682C172.34 126.682 172.333 126.671 172.346 126.648C172.873 125.729 173.178 124.706 173.258 123.578C174.097 111.826 174.938 100.053 175.781 88.2595C175.783 88.2402 175.794 88.2305 175.814 88.2305L178.42 88.2334C178.453 88.2334 178.468 88.2184 178.467 88.1884C178.454 87.6373 178.486 87.026 178.424 86.5329C178.291 85.4568 177.901 84.4661 177.254 83.5606C177.316 83.535 177.358 83.5345 177.382 83.5592C178.421 84.6643 179.017 85.9557 179.169 87.4336C179.193 87.6666 179.197 88.1459 179.181 88.8715C179.18 88.8928 179.169 88.9034 179.146 88.9034H176.524C176.517 88.9034 176.51 88.906 176.505 88.9107C176.499 88.9154 176.496 88.9219 176.496 88.9288C175.68 100.378 174.867 111.755 174.056 123.059C174.056 123.062 174.032 123.335 173.985 123.88C173.951 124.274 173.956 124.685 173.886 125.052C173.783 125.597 173.628 126.129 173.421 126.648C173.412 126.67 173.444 126.687 173.517 126.701Z" fill="#C6638A"/>
<path d="M135.268 88.9539C135.255 88.9583 135.246 88.9527 135.241 88.9373C135.235 88.9194 135.222 88.9104 135.203 88.9104L133.301 88.9003C133.296 88.9002 133.291 88.8991 133.286 88.8972C133.281 88.8952 133.277 88.8924 133.274 88.8889C133.27 88.8854 133.267 88.8813 133.265 88.8768C133.264 88.8723 133.263 88.8674 133.263 88.8626L133.269 88.2331L135.159 88.2324C135.175 88.2324 135.19 88.2381 135.202 88.2483C135.213 88.2586 135.22 88.2726 135.221 88.2875L135.268 88.9539Z" fill="#E8867C"/>
<path d="M174.698 88.9109C173.374 88.9631 171.958 88.9225 170.735 88.9225C159.494 88.922 148.253 88.9225 137.011 88.9239C136.985 88.9239 136.973 88.9362 136.974 88.9609C137.809 100.653 138.645 112.344 139.483 124.036C139.569 125.228 139.813 126.118 140.42 127.092C140.425 127.1 140.429 127.109 140.43 127.118C140.431 127.128 140.431 127.138 140.428 127.147C140.42 127.172 140.407 127.194 140.387 127.214C139.419 126.213 138.888 125.055 138.794 123.741C137.945 111.923 137.101 100.106 136.26 88.2901C136.259 88.2851 136.26 88.2801 136.262 88.2754C136.264 88.2706 136.267 88.2663 136.27 88.2626C136.274 88.2589 136.278 88.256 136.283 88.254C136.288 88.252 136.294 88.251 136.299 88.251H174.701C174.725 88.251 174.736 88.2619 174.734 88.2836L174.698 88.9109Z" fill="#FFE1ED"/>
<path d="M174.698 88.9111C173.882 100.336 173.065 111.768 172.245 123.205C172.198 123.859 172.137 124.338 172.062 124.642C171.505 126.906 169.532 128.625 167.123 128.998C166.783 129.05 166.274 129.077 165.595 129.077C158.902 129.077 152.208 129.077 145.515 129.076C144.803 129.076 144.293 129.055 143.986 129.013C142.584 128.823 141.384 128.223 140.387 127.214C140.406 127.195 140.42 127.172 140.427 127.147C140.43 127.138 140.431 127.128 140.43 127.119C140.428 127.109 140.425 127.1 140.42 127.092C139.812 126.119 139.569 125.228 139.483 124.036C138.645 112.344 137.808 100.653 136.974 88.9612C136.972 88.9365 136.984 88.9242 137.011 88.9242C148.252 88.9227 159.493 88.9223 170.734 88.9227C171.957 88.9227 173.373 88.9633 174.698 88.9111ZM154.515 125.382C154.781 125.781 155.142 126.046 155.598 126.177C156.014 126.296 156.445 126.288 156.891 126.154C157.943 125.838 158.355 124.961 158.355 123.946C158.356 114.769 158.355 105.591 158.354 96.4134C158.354 96.1877 158.351 95.922 158.345 95.6165C158.334 95.0211 158.389 94.2982 158.229 93.8116C158.146 93.5614 157.769 92.8276 157.423 92.8755C156.72 91.7181 155.266 91.3512 154.166 92.1946C153.643 92.5953 153.381 93.174 153.378 93.9305C153.364 97.5369 153.369 101.143 153.392 104.75C153.392 104.768 153.388 104.786 153.379 104.803C153.374 104.814 153.372 104.826 153.372 104.839C153.37 110.955 153.345 116.883 153.388 123.199C153.39 123.539 153.372 123.873 153.482 124.187C153.663 124.702 154.007 125.101 154.515 125.382ZM144.724 125.342C145.101 125.873 145.597 126.164 146.212 126.213C147.282 126.299 148.237 125.671 148.477 124.666C148.532 124.435 148.54 124.088 148.503 123.622C147.717 113.874 146.932 104.126 146.148 94.3787C146.093 93.6888 145.789 93.1979 145.237 92.9059C144.845 92.2562 144.287 91.889 143.562 91.8044C142.445 91.6739 141.41 92.4063 141.227 93.4345C141.195 93.6149 141.207 94.0599 141.264 94.7695C142.024 104.216 142.785 113.662 143.548 123.109C143.634 124.168 143.785 124.813 144.724 125.342ZM164.369 125.382C164.796 125.978 165.357 126.259 166.054 126.225C167.25 126.167 168.081 125.338 168.143 124.199C168.153 124.012 168.158 123.916 168.159 123.911C168.933 114.298 169.707 104.686 170.482 95.0734C170.523 94.5648 170.514 94.1996 170.455 93.9777C170.326 93.4909 170.021 93.0949 169.541 92.7899C168.322 91.0213 165.73 91.7058 165.561 93.7986C164.771 103.624 163.98 113.45 163.186 123.276C163.111 124.205 163.505 124.907 164.369 125.382Z" fill="white"/>
<path d="M157.423 92.8756C157.553 93.1836 157.619 93.4806 157.622 93.7668C157.643 95.8878 157.626 98.3519 157.626 101.075C157.627 108.27 157.627 115.465 157.626 122.66C157.626 123.417 157.607 123.875 157.571 124.033C157.267 125.333 155.803 125.905 154.515 125.382C154.007 125.101 153.663 124.702 153.482 124.187C153.372 123.873 153.39 123.539 153.388 123.199C153.346 116.883 153.37 110.955 153.372 104.839C153.372 104.826 153.374 104.815 153.379 104.803C153.388 104.786 153.392 104.769 153.392 104.75C153.369 101.143 153.364 97.537 153.378 93.9307C153.381 93.1741 153.644 92.5955 154.166 92.1947C155.266 91.3514 156.72 91.7183 157.423 92.8756ZM156.593 93.7559C156.593 93.484 156.479 93.2232 156.275 93.0309C156.072 92.8386 155.796 92.7306 155.509 92.7306H155.492C155.205 92.7306 154.929 92.8386 154.726 93.0309C154.522 93.2232 154.408 93.484 154.408 93.7559V123.582C154.408 123.854 154.522 124.115 154.726 124.307C154.929 124.5 155.205 124.608 155.492 124.608H155.509C155.796 124.608 156.072 124.5 156.275 124.307C156.479 124.115 156.593 123.854 156.593 123.582V93.7559Z" fill="#2B2B2B"/>
<path d="M145.237 92.9056C145.344 93.1845 145.408 93.4536 145.429 93.7127C146.225 103.573 147.024 113.433 147.826 123.293C147.962 124.96 146.353 125.966 144.724 125.342C143.785 124.812 143.634 124.168 143.549 123.108C142.786 113.662 142.025 104.215 141.265 94.7692C141.208 94.0595 141.195 93.6146 141.227 93.4342C141.411 92.406 142.445 91.6736 143.563 91.8041C144.287 91.8887 144.845 92.2559 145.237 92.9056ZM144.413 93.7109C144.391 93.4411 144.257 93.1904 144.041 93.0139C143.824 92.8375 143.542 92.7498 143.256 92.77L143.24 92.7712C143.098 92.7813 142.961 92.8176 142.834 92.878C142.708 92.9384 142.595 93.0217 142.503 93.1233C142.41 93.2249 142.34 93.3427 142.296 93.47C142.252 93.5972 142.234 93.7315 142.245 93.8651L144.61 123.618C144.631 123.888 144.765 124.138 144.982 124.315C145.199 124.491 145.481 124.579 145.766 124.559L145.783 124.557C145.924 124.547 146.062 124.511 146.189 124.451C146.315 124.39 146.428 124.307 146.52 124.205C146.612 124.104 146.683 123.986 146.727 123.859C146.771 123.731 146.788 123.597 146.778 123.463L144.413 93.7109Z" fill="#2B2B2B"/>
<path d="M169.541 92.7893C169.744 93.1867 169.825 93.6334 169.785 94.1294C169 103.888 168.212 113.646 167.423 123.405C167.362 124.161 167.169 124.726 166.553 125.157C165.942 125.586 165.213 125.661 164.369 125.381C163.505 124.907 163.111 124.205 163.186 123.276C163.979 113.449 164.771 103.624 165.561 93.798C165.729 91.7052 168.322 91.0207 169.541 92.7893ZM165.118 124.563C165.122 124.572 165.129 124.577 165.139 124.577C166.039 124.607 166.344 124.061 166.404 123.311C167.173 113.68 167.947 104.05 168.725 94.4194C168.761 93.9645 168.768 93.6832 168.744 93.5754C168.546 92.6776 167.238 92.4543 166.759 93.2585C166.669 93.4093 166.608 93.6805 166.576 94.0721C165.796 103.774 165.014 113.477 164.23 123.179C164.176 123.843 164.327 124.392 165.094 124.545C165.106 124.546 165.114 124.553 165.118 124.563Z" fill="#2B2B2B"/>
<path d="M155.509 92.7305H155.492C154.893 92.7305 154.408 93.1895 154.408 93.7558V123.582C154.408 124.148 154.893 124.608 155.492 124.608H155.509C156.108 124.608 156.593 124.148 156.593 123.582V93.7558C156.593 93.1895 156.108 92.7305 155.509 92.7305Z" fill="#E8867C"/>
<path d="M143.256 92.77L143.24 92.7712C142.646 92.8134 142.2 93.3032 142.245 93.8651L144.61 123.618C144.655 124.179 145.172 124.601 145.766 124.558L145.783 124.557C146.377 124.515 146.822 124.025 146.778 123.463L144.413 93.7109C144.368 93.149 143.85 92.7277 143.256 92.77Z" fill="#E8867C"/>
<path d="M165.094 124.544C164.328 124.391 164.177 123.843 164.23 123.179C165.015 113.477 165.797 103.774 166.577 94.072C166.609 93.6804 166.669 93.4092 166.759 93.2584C167.239 92.4542 168.546 92.6775 168.745 93.5753C168.768 93.6831 168.762 93.9644 168.726 94.4193C167.948 104.05 167.174 113.68 166.404 123.311C166.345 124.061 166.04 124.607 165.14 124.577C165.129 124.577 165.123 124.572 165.119 124.563C165.114 124.553 165.106 124.546 165.094 124.544Z" fill="#E8867C"/>
<path d="M169.541 92.79C170.022 93.0951 170.326 93.491 170.456 93.9778C170.515 94.1997 170.523 94.5649 170.483 95.0735C169.707 104.686 168.933 114.298 168.159 123.911C168.159 123.916 168.153 124.012 168.143 124.199C168.082 125.339 167.251 126.167 166.054 126.225C165.358 126.259 164.796 125.978 164.369 125.382C165.214 125.662 165.942 125.587 166.554 125.158C167.169 124.727 167.363 124.162 167.424 123.406C168.213 113.647 169 103.889 169.786 94.1301C169.826 93.6341 169.744 93.1874 169.541 92.79Z" fill="#FFE1ED"/>
<path d="M157.423 92.8753C157.77 92.8274 158.146 93.5613 158.229 93.8114C158.389 94.298 158.334 95.021 158.345 95.6163C158.351 95.9218 158.354 96.1875 158.354 96.4132C158.355 105.591 158.356 114.769 158.355 123.946C158.355 124.96 157.944 125.838 156.891 126.154C156.445 126.288 156.015 126.295 155.599 126.177C155.142 126.046 154.781 125.781 154.515 125.382C155.802 125.905 157.267 125.332 157.571 124.032C157.607 123.875 157.626 123.417 157.626 122.66C157.627 115.465 157.627 108.27 157.626 101.074C157.626 98.3515 157.643 95.8875 157.622 93.7665C157.619 93.4803 157.553 93.1832 157.423 92.8753Z" fill="#FFE1ED"/>
<path d="M145.237 92.9053C145.79 93.1973 146.094 93.6882 146.149 94.378C146.933 104.126 147.718 113.874 148.504 123.621C148.541 124.087 148.532 124.435 148.478 124.665C148.238 125.671 147.283 126.298 146.213 126.212C145.598 126.163 145.102 125.873 144.725 125.341C146.354 125.966 147.962 124.96 147.826 123.292C147.024 113.432 146.225 103.572 145.429 93.7124C145.408 93.4532 145.344 93.1842 145.237 92.9053Z" fill="#FFE1ED"/>
<path d="M135.183 126.702H132.829C132.554 126.702 132.331 126.913 132.331 127.173V127.205C132.331 127.466 132.554 127.677 132.829 127.677H135.183C135.458 127.677 135.681 127.466 135.681 127.205V127.173C135.681 126.913 135.458 126.702 135.183 126.702Z" fill="#2B2B2B"/>
<path d="M178.165 126.706L175.802 126.702C175.527 126.702 175.304 126.912 175.304 127.172L175.304 127.204C175.303 127.464 175.526 127.675 175.8 127.675L178.163 127.679C178.438 127.679 178.661 127.469 178.661 127.209L178.661 127.177C178.662 126.917 178.44 126.706 178.165 126.706Z" fill="#2B2B2B"/>
<path d="M172.824 127.685C172.462 128.186 172.044 128.649 171.569 129.073L169.925 129.071C169.884 129.071 169.881 129.06 169.915 129.04C170.529 128.672 171.074 128.229 171.549 127.71C171.567 127.691 171.589 127.682 171.616 127.682L172.824 127.685Z" fill="#C6638A"/>
<path d="M128.133 129.09L125.762 129.082C125.49 129.081 125.269 129.289 125.268 129.546L125.268 129.579C125.267 129.836 125.486 130.045 125.758 130.046L128.13 130.054C128.402 130.055 128.623 129.847 128.624 129.59L128.624 129.557C128.625 129.3 128.405 129.09 128.133 129.09Z" fill="#2B2B2B"/>
<path d="M185.219 129.08L182.864 129.084C182.59 129.085 182.369 129.295 182.369 129.554L182.369 129.587C182.37 129.847 182.592 130.056 182.866 130.056L185.221 130.052C185.495 130.051 185.716 129.841 185.716 129.582L185.716 129.549C185.715 129.289 185.493 129.08 185.219 129.08Z" fill="#2B2B2B"/>
<path d="M140.344 152H137.766V144.727H140.365C141.097 144.727 141.727 144.873 142.255 145.164C142.782 145.453 143.188 145.868 143.473 146.411C143.759 146.953 143.902 147.601 143.902 148.357C143.902 149.114 143.759 149.765 143.473 150.31C143.188 150.854 142.78 151.272 142.247 151.563C141.717 151.854 141.083 152 140.344 152ZM139.304 150.683H140.28C140.735 150.683 141.117 150.602 141.427 150.441C141.74 150.278 141.974 150.026 142.13 149.685C142.289 149.341 142.368 148.899 142.368 148.357C142.368 147.819 142.289 147.38 142.13 147.039C141.974 146.698 141.741 146.447 141.431 146.286C141.121 146.125 140.738 146.045 140.284 146.045H139.304V150.683ZM147.499 152.107C146.938 152.107 146.455 151.993 146.05 151.766C145.647 151.536 145.337 151.212 145.119 150.793C144.902 150.371 144.793 149.873 144.793 149.298C144.793 148.737 144.902 148.244 145.119 147.82C145.337 147.397 145.644 147.066 146.039 146.83C146.437 146.593 146.903 146.474 147.438 146.474C147.798 146.474 148.133 146.532 148.443 146.648C148.756 146.762 149.028 146.934 149.26 147.163C149.494 147.393 149.677 147.682 149.807 148.03C149.937 148.375 150.002 148.78 150.002 149.244V149.66H145.396V148.722H148.578C148.578 148.504 148.531 148.312 148.436 148.143C148.341 147.975 148.21 147.844 148.042 147.749C147.876 147.652 147.683 147.604 147.463 147.604C147.234 147.604 147.03 147.657 146.852 147.763C146.677 147.868 146.54 148.009 146.44 148.186C146.341 148.361 146.29 148.557 146.288 148.772V149.663C146.288 149.933 146.337 150.166 146.437 150.363C146.539 150.559 146.682 150.711 146.867 150.817C147.051 150.924 147.27 150.977 147.524 150.977C147.692 150.977 147.845 150.954 147.985 150.906C148.125 150.859 148.244 150.788 148.344 150.693C148.443 150.598 148.519 150.482 148.571 150.345L149.97 150.438C149.899 150.774 149.754 151.067 149.533 151.318C149.316 151.567 149.034 151.761 148.688 151.901C148.345 152.038 147.948 152.107 147.499 152.107ZM152.502 144.727V152H150.989V144.727H152.502ZM156.2 152.107C155.639 152.107 155.156 151.993 154.751 151.766C154.349 151.536 154.038 151.212 153.821 150.793C153.603 150.371 153.494 149.873 153.494 149.298C153.494 148.737 153.603 148.244 153.821 147.82C154.038 147.397 154.345 147.066 154.74 146.83C155.138 146.593 155.604 146.474 156.139 146.474C156.499 146.474 156.834 146.532 157.144 146.648C157.457 146.762 157.729 146.934 157.961 147.163C158.196 147.393 158.378 147.682 158.508 148.03C158.638 148.375 158.703 148.78 158.703 149.244V149.66H154.098V148.722H157.279C157.279 148.504 157.232 148.312 157.137 148.143C157.043 147.975 156.911 147.844 156.743 147.749C156.577 147.652 156.384 147.604 156.164 147.604C155.935 147.604 155.731 147.657 155.554 147.763C155.378 147.868 155.241 148.009 155.142 148.186C155.042 148.361 154.991 148.557 154.989 148.772V149.663C154.989 149.933 155.039 150.166 155.138 150.363C155.24 150.559 155.383 150.711 155.568 150.817C155.752 150.924 155.971 150.977 156.225 150.977C156.393 150.977 156.547 150.954 156.686 150.906C156.826 150.859 156.946 150.788 157.045 150.693C157.144 150.598 157.22 150.482 157.272 150.345L158.671 150.438C158.6 150.774 158.455 151.067 158.235 151.318C158.017 151.567 157.735 151.761 157.389 151.901C157.046 152.038 156.65 152.107 156.2 152.107ZM162.592 146.545V147.682H159.307V146.545H162.592ZM160.053 145.239H161.566V150.324C161.566 150.464 161.587 150.572 161.63 150.651C161.672 150.726 161.731 150.78 161.807 150.81C161.885 150.841 161.975 150.857 162.077 150.857C162.148 150.857 162.219 150.851 162.29 150.839C162.361 150.825 162.416 150.814 162.453 150.807L162.691 151.933C162.616 151.956 162.509 151.983 162.372 152.014C162.234 152.047 162.068 152.067 161.871 152.075C161.506 152.089 161.187 152.04 160.912 151.929C160.64 151.818 160.428 151.645 160.277 151.411C160.125 151.176 160.05 150.88 160.053 150.523V145.239ZM165.133 152.103C164.785 152.103 164.475 152.043 164.202 151.922C163.93 151.799 163.715 151.618 163.556 151.379C163.4 151.137 163.322 150.836 163.322 150.477C163.322 150.174 163.377 149.919 163.489 149.713C163.6 149.507 163.751 149.341 163.943 149.216C164.135 149.09 164.353 148.996 164.597 148.932C164.843 148.868 165.101 148.823 165.371 148.797C165.688 148.764 165.944 148.733 166.138 148.705C166.332 148.674 166.473 148.629 166.56 148.57C166.648 148.51 166.692 148.423 166.692 148.307V148.286C166.692 148.061 166.621 147.887 166.479 147.763C166.339 147.64 166.14 147.579 165.882 147.579C165.61 147.579 165.393 147.639 165.232 147.76C165.071 147.878 164.965 148.027 164.913 148.207L163.513 148.094C163.584 147.762 163.724 147.476 163.932 147.234C164.141 146.991 164.409 146.804 164.739 146.673C165.07 146.541 165.454 146.474 165.889 146.474C166.192 146.474 166.482 146.51 166.759 146.581C167.039 146.652 167.286 146.762 167.501 146.911C167.719 147.06 167.891 147.252 168.016 147.487C168.142 147.719 168.204 147.997 168.204 148.321V152H166.77V151.244H166.727C166.64 151.414 166.522 151.564 166.376 151.695C166.229 151.822 166.052 151.923 165.847 151.996C165.641 152.067 165.403 152.103 165.133 152.103ZM165.566 151.059C165.789 151.059 165.985 151.015 166.155 150.928C166.326 150.838 166.46 150.717 166.557 150.565C166.654 150.414 166.702 150.242 166.702 150.05V149.472C166.655 149.502 166.59 149.531 166.507 149.557C166.427 149.58 166.335 149.603 166.234 149.624C166.132 149.643 166.03 149.661 165.928 149.678C165.826 149.692 165.734 149.705 165.651 149.717C165.474 149.743 165.319 149.784 165.186 149.841C165.053 149.898 164.95 149.975 164.877 150.072C164.804 150.166 164.767 150.285 164.767 150.427C164.767 150.633 164.842 150.79 164.991 150.899C165.142 151.006 165.334 151.059 165.566 151.059ZM169.378 152V146.545H170.845V147.497H170.902C171.001 147.159 171.168 146.903 171.402 146.73C171.637 146.555 171.907 146.467 172.212 146.467C172.288 146.467 172.369 146.472 172.457 146.482C172.545 146.491 172.621 146.504 172.688 146.521V147.863C172.617 147.842 172.518 147.823 172.393 147.806C172.268 147.79 172.153 147.781 172.049 147.781C171.826 147.781 171.627 147.83 171.452 147.927C171.279 148.022 171.142 148.154 171.04 148.325C170.941 148.495 170.891 148.692 170.891 148.914V152H169.378Z" fill="#E8867C"/>
<path d="M128.902 42.7668C128.177 42.2314 127.494 41.6393 126.862 40.9961C126.862 40.686 126.862 40.9104 126.862 40.841L126.891 40.8166L126.94 40.7717L127.042 40.6778L127.238 40.4942L127.609 40.1515L128.25 39.5803C128.444 39.3821 128.663 39.2106 128.902 39.0703C128.757 39.2922 128.581 39.4927 128.38 39.666L127.768 40.2698L127.405 40.6207L127.209 40.8084L127.111 40.9022L127.058 40.9471L127.034 40.9716V40.8166C127.706 41.417 128.331 42.0691 128.902 42.7668Z" fill="#263238"/>
<path d="M185.308 39.6545C185.309 39.7428 185.284 39.8294 185.235 39.9031C185.187 39.9769 185.117 40.0345 185.036 40.0687C184.954 40.1028 184.865 40.112 184.778 40.095C184.691 40.0779 184.612 40.0355 184.549 39.9731C184.487 39.9106 184.444 39.831 184.427 39.7444C184.41 39.6577 184.419 39.568 184.454 39.4865C184.488 39.4051 184.545 39.3357 184.619 39.2871C184.693 39.2386 184.779 39.2131 184.868 39.2139C184.985 39.2139 185.097 39.2603 185.179 39.3429C185.262 39.4256 185.308 39.5377 185.308 39.6545Z" fill="#263238"/>
<path d="M185.182 40.8656C185.244 40.9278 185.286 41.007 185.304 41.0933C185.321 41.1796 185.312 41.269 185.279 41.3504C185.245 41.4317 185.188 41.5012 185.115 41.5501C185.042 41.599 184.956 41.6251 184.868 41.6251C184.78 41.6251 184.694 41.599 184.62 41.5501C184.547 41.5012 184.49 41.4317 184.457 41.3504C184.423 41.269 184.414 41.1796 184.431 41.0933C184.449 41.007 184.491 40.9278 184.553 40.8656C184.637 40.7834 184.75 40.7373 184.868 40.7373C184.985 40.7373 185.098 40.7834 185.182 40.8656Z" fill="#263238"/>
<path d="M185.308 42.7021C185.298 42.8122 185.247 42.9144 185.165 42.9887C185.083 43.0631 184.976 43.1043 184.866 43.1043C184.755 43.1043 184.648 43.0631 184.567 42.9887C184.485 42.9144 184.434 42.8122 184.423 42.7021C184.417 42.6404 184.424 42.5781 184.444 42.5193C184.463 42.4605 184.495 42.4064 184.536 42.3605C184.578 42.3146 184.629 42.278 184.686 42.2529C184.742 42.2278 184.804 42.2148 184.866 42.2148C184.928 42.2148 184.989 42.2278 185.046 42.2529C185.102 42.278 185.153 42.3146 185.195 42.3605C185.236 42.4064 185.268 42.4605 185.288 42.5193C185.307 42.5781 185.314 42.6404 185.308 42.7021Z" fill="#263238"/>
<path d="M166.19 41.4619H147.104V43.0531H166.19V41.4619Z" fill="#263238"/>
<path d="M80.497 17.3812C77.777 11.9012 72.497 8.00122 67.077 8.00122C65.5104 7.97658 63.9607 8.32675 62.5569 9.02255C61.1531 9.71835 59.936 10.7396 59.007 12.0012C57.3514 10.5818 55.257 9.77653 53.077 9.72122C49.387 9.72122 46.667 12.3612 46.077 16.0812C44.3752 15.2436 42.5211 14.7605 40.627 14.6612C36.937 14.4912 34.017 16.0112 32.517 18.4712C31.8255 18.0539 31.0432 17.8103 30.237 17.7612C29.7773 17.6846 29.3059 17.7248 28.8658 17.878C28.4258 18.0312 28.0313 18.2926 27.7187 18.6381C27.406 18.9836 27.1852 19.4021 27.0766 19.8552C26.968 20.3084 26.975 20.7815 27.097 21.2312L27.187 21.5912H87.037C87.177 19.6412 83.137 17.4812 80.497 17.3812Z" fill="#E6E6E6"/>
<path d="M276.482 48.3815C273.762 42.9015 268.482 39.0015 263.072 39.0015C261.504 38.9744 259.952 39.3234 258.546 40.0194C257.14 40.7153 255.922 41.7379 254.992 43.0015C253.333 41.5892 251.24 40.788 249.062 40.7315C245.372 40.7315 242.652 43.3615 242.012 47.0915C240.311 46.2523 238.456 45.7691 236.562 45.6715C232.872 45.5015 229.962 47.0115 228.452 49.4815C227.761 49.0641 226.978 48.8205 226.172 48.7715C225.722 48.7054 225.263 48.7513 224.835 48.9048C224.406 49.0584 224.023 49.3151 223.717 49.6521C223.412 49.9892 223.194 50.3962 223.083 50.8374C222.973 51.2785 222.972 51.7401 223.082 52.1815L223.172 52.5515H283.022C283.202 50.6715 279.162 48.4715 276.482 48.3815Z" fill="#F5F5F5"/>
</svg>
