<svg width="24" height="24" viewBox="0 0 24 24" fill="none" xmlns="http://www.w3.org/2000/svg">
<path d="M4.11765 3.4C4.11765 3.17909 4.29673 3 4.51765 3H20.4824C20.7033 3 20.8824 3.17909 20.8824 3.4V4.85C20.8824 5.07091 20.7033 5.25 20.4824 5.25H4.51765C4.29673 5.25 4.11765 5.07091 4.11765 4.85V3.4ZM18.6471 20.6C18.6471 20.8209 18.8261 21 19.0471 21H20.4824C20.7033 21 20.8824 20.8209 20.8824 20.6V14.65C20.8824 14.4291 21.0614 14.25 21.2824 14.25H21.6C21.8209 14.25 22 14.0709 22 13.85V12.0394C22 12.0132 21.9974 11.9871 21.9923 11.9614L20.9463 6.69705C20.9091 6.50985 20.7449 6.375 20.554 6.375H4.44599C4.25513 6.375 4.09085 6.50984 4.05366 6.69705L3.00767 11.9614C3.00257 11.9871 3 12.0132 3 12.0394V13.85C3 14.0709 3.17909 14.25 3.4 14.25H3.71765C3.93856 14.25 4.11765 14.4291 4.11765 14.65V20.6C4.11765 20.8209 4.29673 21 4.51765 21H13.7765C13.9974 21 14.1765 20.8209 14.1765 20.6V14.65C14.1765 14.4291 14.3556 14.25 14.5765 14.25H18.2471C18.468 14.25 18.6471 14.4291 18.6471 14.65V20.6ZM11.9412 18.35C11.9412 18.5709 11.7621 18.75 11.5412 18.75H6.75294C6.53203 18.75 6.35294 18.5709 6.35294 18.35V14.65C6.35294 14.4291 6.53203 14.25 6.75294 14.25H11.5412C11.7621 14.25 11.9412 14.4291 11.9412 14.65V18.35ZM5.7673 12C5.51508 12 5.32581 11.7694 5.37497 11.522L5.8866 8.94705C5.9238 8.75984 6.08807 8.625 6.27893 8.625H18.7211C18.9119 8.625 19.0762 8.75984 19.1134 8.94705L19.625 11.522C19.6742 11.7694 19.4849 12 19.2327 12H5.7673Z" fill="#252940"/>
</svg>
