<svg width="25" height="24" viewBox="0 0 25 24" fill="none" xmlns="http://www.w3.org/2000/svg">
<g clip-path="url(#clip0_3012_2856)">
<path fill-rule="evenodd" clip-rule="evenodd" d="M17.3335 22.5C18.9248 22.5 20.4509 21.8679 21.5761 20.7426C22.7014 19.6174 23.3335 18.0913 23.3335 16.5C23.3335 14.9087 22.7014 13.3826 21.5761 12.2574C20.4509 11.1321 18.9248 10.5 17.3335 10.5C15.7422 10.5 14.2161 11.1321 13.0909 12.2574C11.9656 13.3826 11.3335 14.9087 11.3335 16.5C11.3335 18.0913 11.9656 19.6174 13.0909 20.7426C14.2161 21.8679 15.7422 22.5 17.3335 22.5ZM24.8335 16.5C24.8335 18.4891 24.0433 20.3968 22.6368 21.8033C21.2303 23.2098 19.3226 24 17.3335 24C15.3444 24 13.4367 23.2098 12.0302 21.8033C10.6237 20.3968 9.8335 18.4891 9.8335 16.5C9.8335 14.5109 10.6237 12.6032 12.0302 11.1967C13.4367 9.79018 15.3444 9 17.3335 9C19.3226 9 21.2303 9.79018 22.6368 11.1967C24.0433 12.6032 24.8335 14.5109 24.8335 16.5Z" fill="#252940"/>
<path d="M14.9903 17.916C15.0608 18.81 15.7673 19.506 17.0348 19.59V20.25H17.5973V19.5855C18.9098 19.494 19.6763 18.792 19.6763 17.775C19.6763 16.848 19.0913 16.371 18.0413 16.125L17.5973 16.02V14.22C18.1613 14.2845 18.5183 14.592 18.6038 15.018H19.5908C19.5203 14.1555 18.7808 13.482 17.5973 13.4085V12.75H17.0348V13.425C15.9143 13.5345 15.1523 14.208 15.1523 15.162C15.1523 16.005 15.7193 16.542 16.6628 16.761L17.0348 16.8525V18.7605C16.4588 18.6735 16.0763 18.3555 15.9908 17.916H14.9903ZM17.0303 15.885C16.4768 15.7575 16.1768 15.495 16.1768 15.102C16.1768 14.661 16.5008 14.331 17.0348 14.235V15.885H17.0303ZM17.6783 17.004C18.3518 17.16 18.6608 17.412 18.6608 17.8575C18.6608 18.366 18.2753 18.714 17.5973 18.7785V16.986L17.6783 17.004Z" fill="#252940"/>
<path d="M2.3335 0C1.93567 0 1.55414 0.158035 1.27284 0.43934C0.991531 0.720644 0.833496 1.10218 0.833496 1.5L0.833496 13.5C0.833496 13.8978 0.991531 14.2794 1.27284 14.5607C1.55414 14.842 1.93567 15 2.3335 15H8.458C8.546 14.483 8.675 13.983 8.845 13.5H5.3335C5.3335 12.7044 5.01743 11.9413 4.45482 11.3787C3.89221 10.8161 3.12915 10.5 2.3335 10.5V4.5C3.12915 4.5 3.89221 4.18393 4.45482 3.62132C5.01743 3.05871 5.3335 2.29565 5.3335 1.5H20.3335C20.3335 2.29565 20.6496 3.05871 21.2122 3.62132C21.7748 4.18393 22.5378 4.5 23.3335 4.5V9.792C23.9035 10.302 24.409 10.884 24.8335 11.523V1.5C24.8335 1.10218 24.6755 0.720644 24.3942 0.43934C24.1129 0.158035 23.7313 0 23.3335 0L2.3335 0Z" fill="#252940"/>
<path d="M15.8305 7.62467L15.8335 7.50017C15.8332 6.98356 15.6995 6.47578 15.4453 6.02601C15.1912 5.57624 14.8251 5.19973 14.3828 4.93295C13.9404 4.66616 13.4366 4.51813 12.9202 4.50321C12.4038 4.48828 11.8923 4.60696 11.4352 4.84775C10.9781 5.08854 10.591 5.44328 10.3113 5.87762C10.0316 6.31195 9.86875 6.81116 9.83861 7.32689C9.80846 7.84263 9.91201 8.3574 10.1392 8.82137C10.3664 9.28534 10.7096 9.68277 11.1355 9.97517C12.4321 8.74243 14.0667 7.9241 15.8305 7.62467Z" fill="#252940"/>
</g>
<defs>
<clipPath id="clip0_3012_2856">
<rect width="24" height="24" fill="white" transform="translate(0.833496)"/>
</clipPath>
</defs>
</svg>
