<svg width="24" height="24" viewBox="0 0 24 24" fill="none" xmlns="http://www.w3.org/2000/svg">
<path d="M12.7189 11.5753V11.593L12.7341 11.6021L16.1203 13.6337C16.1203 13.6337 16.1203 13.6337 16.1203 13.6337C16.2838 13.7318 16.4015 13.8909 16.4477 14.0759C16.4939 14.2609 16.4647 14.4567 16.3665 14.6201C16.2683 14.7836 16.1092 14.9014 15.9242 14.9475C15.7392 14.9937 15.5435 14.9645 15.38 14.8663L15.38 14.8663L11.63 12.6163C11.5236 12.5524 11.4356 12.4621 11.3745 12.3541C11.3134 12.2461 11.2814 12.1241 11.2814 12V7.49999C11.2814 7.30936 11.3571 7.12655 11.4919 6.99176C11.6267 6.85696 11.8095 6.78124 12.0002 6.78124C12.1908 6.78124 12.3736 6.85696 12.5084 6.99176C12.6432 7.12655 12.7189 7.30936 12.7189 7.49999V11.5753ZM21.2751 5.33604L21.2751 5.33605C21.4064 5.39042 21.5187 5.48253 21.5977 5.60071C21.6767 5.71889 21.7189 5.85784 21.7189 5.99999V9.74999C21.7189 9.94061 21.6432 10.1234 21.5084 10.2582C21.3736 10.393 21.1908 10.4687 21.0002 10.4687H17.2502H17.2501C17.1079 10.4689 16.9688 10.4268 16.8505 10.3478C16.7322 10.2688 16.64 10.1565 16.5856 10.0251C16.5311 9.89371 16.5169 9.74911 16.5447 9.60961C16.5724 9.47011 16.641 9.34199 16.7416 9.24147L16.7416 9.24146L18.2707 7.7124L18.2919 7.69123L18.2716 7.66917C17.9676 7.338 17.6552 7.00771 17.323 6.67177L17.3229 6.67163C16.2758 5.62552 14.9437 4.91111 13.493 4.61766C12.0423 4.32422 10.5373 4.46473 9.16598 5.02166C7.79467 5.57859 6.61786 6.52724 5.78256 7.74911C4.94726 8.97097 4.49051 10.4119 4.46936 11.8918C4.44822 13.3718 4.86362 14.8251 5.66366 16.0703C6.46371 17.3156 7.61294 18.2975 8.96778 18.8933C10.3226 19.4892 11.823 19.6727 13.2815 19.4208C14.74 19.1689 16.092 18.4929 17.1685 17.4771L17.1685 17.4771C17.2372 17.4122 17.3179 17.3614 17.4062 17.3278C17.4945 17.2941 17.5885 17.2781 17.683 17.2808C17.7774 17.2835 17.8704 17.3047 17.9567 17.3433C18.0429 17.3819 18.1207 17.4372 18.1856 17.5058C18.2505 17.5745 18.3012 17.6553 18.3349 17.7436C18.3685 17.8318 18.3845 17.9259 18.3818 18.0203C18.3792 18.1148 18.3579 18.2078 18.3193 18.294C18.2807 18.3802 18.2255 18.458 18.1568 18.5229C16.8747 19.7327 15.2645 20.5379 13.5274 20.8378C11.7903 21.1378 10.0034 20.9191 8.38982 20.2093C6.77626 19.4994 5.40768 18.3298 4.45506 16.8465C3.50245 15.3633 3.00806 13.6322 3.03366 11.8696C3.05926 10.107 3.60372 8.391 4.59901 6.93605C5.59429 5.4811 6.99627 4.35171 8.62976 3.68901C10.2633 3.0263 12.0558 2.85967 13.7835 3.20992C15.5111 3.56017 17.0972 4.41176 18.3436 5.6583C18.6752 5.99458 18.9871 6.32147 19.2897 6.65021L19.3117 6.67421L19.3348 6.65112L20.4916 5.49147C20.5922 5.39098 20.7203 5.32258 20.8598 5.29492C20.9992 5.26725 21.1437 5.28156 21.2751 5.33604Z" fill="#252940" stroke="#252940" stroke-width="0.0625"/>
</svg>
