<svg width="25" height="24" viewBox="0 0 25 24" fill="none" xmlns="http://www.w3.org/2000/svg">
<path d="M20.5001 10C20.5001 9.73481 20.3947 9.48046 20.2072 9.29292C20.0197 9.10539 19.7653 9.00003 19.5001 9.00003C19.2349 9.00003 18.9805 9.10539 18.793 9.29292C18.6054 9.48046 18.5001 9.73481 18.5001 10H20.5001ZM6.50008 10C6.50008 9.73481 6.39472 9.48046 6.20719 9.29292C6.01965 9.10539 5.7653 9.00003 5.50008 9.00003C5.23486 9.00003 4.98051 9.10539 4.79297 9.29292C4.60544 9.48046 4.50008 9.73481 4.50008 10H6.50008ZM20.7931 12.707C20.9817 12.8892 21.2343 12.99 21.4965 12.9877C21.7587 12.9854 22.0095 12.8803 22.1949 12.6948C22.3803 12.5094 22.4855 12.2586 22.4878 11.9964C22.49 11.7342 22.3892 11.4816 22.2071 11.293L20.7931 12.707ZM12.5001 3.00003L13.2071 2.29303C13.0196 2.10556 12.7652 2.00024 12.5001 2.00024C12.2349 2.00024 11.9806 2.10556 11.7931 2.29303L12.5001 3.00003ZM2.79308 11.293C2.69757 11.3853 2.62139 11.4956 2.56898 11.6176C2.51657 11.7396 2.48898 11.8709 2.48783 12.0036C2.48668 12.1364 2.51198 12.2681 2.56226 12.391C2.61254 12.5139 2.68679 12.6255 2.78069 12.7194C2.87458 12.8133 2.98623 12.8876 3.10913 12.9379C3.23202 12.9881 3.3637 13.0134 3.49648 13.0123C3.62926 13.0111 3.76048 12.9835 3.88249 12.9311C4.00449 12.8787 4.11483 12.8025 4.20708 12.707L2.79308 11.293ZM7.50008 22H17.5001V20H7.50008V22ZM20.5001 19V10H18.5001V19H20.5001ZM6.50008 19V10H4.50008V19H6.50008ZM22.2071 11.293L13.2071 2.29303L11.7931 3.70703L20.7931 12.707L22.2071 11.293ZM11.7931 2.29303L2.79308 11.293L4.20708 12.707L13.2071 3.70703L11.7931 2.29303ZM17.5001 22C18.2957 22 19.0588 21.684 19.6214 21.1214C20.184 20.5587 20.5001 19.7957 20.5001 19H18.5001C18.5001 19.2652 18.3947 19.5196 18.2072 19.7071C18.0197 19.8947 17.7653 20 17.5001 20V22ZM7.50008 20C7.23486 20 6.98051 19.8947 6.79297 19.7071C6.60544 19.5196 6.50008 19.2652 6.50008 19H4.50008C4.50008 19.7957 4.81615 20.5587 5.37876 21.1214C5.94137 21.684 6.70443 22 7.50008 22V20Z" fill="#252940"/>
</svg>
