<svg width="200" height="143" viewBox="0 0 200 143" fill="none" xmlns="http://www.w3.org/2000/svg">
<path d="M12.571 79.804C12.3713 73.6207 52.053 67.3212 101.203 65.7337C150.352 64.1461 190.358 67.8718 190.558 74.0551C190.757 80.2384 151.076 86.5379 101.926 88.1254C52.7763 89.713 12.7708 85.9873 12.571 79.804Z" fill="#263238" stroke="#263238" stroke-miterlimit="10"/>
<path d="M188.311 57.7109C188.311 57.7109 187.229 60.0538 186.455 60.8536C185.681 61.6533 171.721 65.1087 171.721 65.1087L126.478 75.0134L120.998 74.4238L101.84 75.039C101.84 75.039 98.0151 65.688 102.188 56.4754C106.361 47.2628 127.237 43.6588 133.138 45.5351C139.039 47.4115 152.86 53.4507 162.79 50.1491C172.721 46.8476 180.641 40.3623 183.953 41.2236C187.265 42.0849 188.844 47.4166 188.844 49.7185C188.844 52.0204 188.311 57.7109 188.311 57.7109Z" fill="#263238" stroke="#263238" stroke-miterlimit="10"/>
<path d="M91.0581 70.5224C91.4528 61.0125 97.815 53.2917 105.264 53.2712H113.344L113.2 56.6753C116.358 59.8077 118.275 64.8113 118.045 70.4507C117.814 76.09 115.481 81.109 112.057 84.2567L111.913 87.707H103.839C96.3846 87.7223 90.6633 80.0324 91.0581 70.5224Z" fill="#263238" stroke="#263238" stroke-miterlimit="10"/>
<path d="M110.724 87.6313C103.337 86.8131 98.1991 78.4709 99.2482 68.9984C100.297 59.5259 107.136 52.5102 114.523 53.3284C121.911 54.1466 127.049 62.4888 126 71.9613C124.95 81.4337 118.111 88.4494 110.724 87.6313Z" fill="#878787" stroke="#263238" stroke-miterlimit="10"/>
<path d="M102.188 76.3465C102.06 75.921 101.942 75.4852 101.845 75.0392C101.749 74.588 101.667 74.1318 101.598 73.6704C101.46 72.6255 101.412 71.5706 101.455 70.5175C101.535 68.3057 102.023 66.1279 102.896 64.0938L102.921 64.0425C103.106 63.617 103.311 63.2017 103.531 62.8019L103.572 62.725C103.793 62.3302 104.023 61.9457 104.269 61.5766L104.31 61.5151C106.494 58.3007 109.699 56.2346 113.2 56.2295C116.199 56.2295 118.839 57.7214 120.757 60.1668C120.885 60.3257 121.008 60.4949 121.126 60.6794C121.244 60.8486 121.362 61.0229 121.474 61.1921C121.587 61.3664 121.695 61.5458 121.797 61.7048C121.9 61.8842 121.997 62.0636 122.09 62.2482V62.2789C122.182 62.4584 122.269 62.6378 122.356 62.8275V62.8685C122.438 63.0479 122.515 63.2325 122.592 63.4171C122.592 63.4171 122.592 63.4581 122.618 63.4837C122.69 63.6631 122.756 63.8426 122.823 64.0271L122.854 64.1143C122.915 64.2886 122.971 64.468 123.028 64.6526C123.028 64.6885 123.054 64.7244 123.064 64.7602C123.115 64.9346 123.161 65.114 123.212 65.2729C123.222 65.3196 123.234 65.3658 123.248 65.4113C123.289 65.5805 123.33 65.7548 123.366 65.924C123.366 65.9753 123.392 66.0316 123.402 66.0829C123.438 66.2521 123.469 66.4213 123.5 66.5956L123.53 66.7853C123.561 66.9442 123.582 67.1134 123.602 67.2979L123.633 67.5081C123.633 67.6671 123.669 67.8311 123.684 67.9952C123.684 68.0721 123.684 68.149 123.684 68.2259C123.684 68.3848 123.684 68.5488 123.715 68.7078V68.9538C123.715 69.123 123.715 69.2973 123.715 69.4665C123.715 69.5434 123.715 69.6152 123.715 69.687C123.715 69.933 123.715 70.1996 123.715 70.4355C123.715 70.6713 123.684 71.0353 123.653 71.3326C123.653 71.4044 123.653 71.4762 123.653 71.5479C123.628 71.8043 123.597 72.0606 123.561 72.3118V72.4297C123.464 73.0552 123.335 73.6652 123.182 74.2651C122.508 77.0676 121.079 79.6317 119.05 81.6782L118.978 81.7448C118.742 81.9704 118.501 82.1806 118.25 82.3857L118.199 82.4216C116.472 83.8714 114.301 84.6856 112.047 84.7286C109.831 84.7162 107.695 83.898 106.038 82.4267C104.216 80.7962 102.883 78.691 102.188 76.3465Z" fill="white" stroke="#263238" stroke-miterlimit="10"/>
<path d="M102.732 70.9481C102.796 69.3494 103.114 67.7712 103.675 66.2726L108.115 69.0564C107.912 69.6643 107.797 70.2977 107.771 70.9378C107.771 71.0352 107.771 71.1275 107.771 71.2198L102.726 72.0401C102.716 71.6812 102.716 71.3172 102.732 70.9481Z" fill="#263238" stroke="#263238" stroke-miterlimit="10"/>
<path d="M110.586 65.847C110.11 66.1124 109.685 66.4595 109.33 66.8724L106.202 62.0636C107.231 60.9086 108.521 60.0172 109.965 59.4644L110.586 65.847Z" fill="#263238" stroke="#263238" stroke-miterlimit="10"/>
<path d="M108.407 74.0702C108.623 74.509 108.903 74.9132 109.237 75.2698L106.674 81.0168C105.384 79.9048 104.382 78.4978 103.752 76.9155L108.407 74.0702Z" fill="#263238" stroke="#263238" stroke-miterlimit="10"/>
<path d="M115.959 67.9488L120.485 64.801C121.183 66.4533 121.551 68.2264 121.567 70.02L116.507 70.1635C116.462 69.3978 116.276 68.647 115.959 67.9488Z" fill="#263238" stroke="#263238" stroke-miterlimit="10"/>
<path d="M114.42 66.0316C114.054 65.7755 113.644 65.5879 113.21 65.4779L113.949 59.1208C115.565 59.4204 117.048 60.2139 118.194 61.392L114.42 66.0316Z" fill="#263238" stroke="#263238" stroke-miterlimit="10"/>
<path d="M111.437 76.454C111.596 76.4746 111.757 76.4849 111.918 76.4847C112.375 76.4832 112.828 76.3945 113.251 76.2233L115.712 81.7242C114.484 82.4721 113.075 82.8726 111.636 82.8828C111.247 82.885 110.858 82.8558 110.473 82.7956L111.437 76.454Z" fill="#263238" stroke="#263238" stroke-miterlimit="10"/>
<path d="M115.994 73.3063L121.003 74.4239C120.519 76.1762 119.687 77.8133 118.558 79.2378L115.348 74.4956C115.608 74.1248 115.824 73.7258 115.994 73.3063Z" fill="#263238" stroke="#263238" stroke-miterlimit="10"/>
<path d="M166.825 60.91C167.01 52.9432 169.993 46.4683 173.49 46.4529H181.549L180.877 75.3057H172.818C169.322 75.3211 166.641 68.8615 166.825 60.91Z" fill="#263238" stroke="#263238" stroke-miterlimit="10"/>
<path d="M174.884 60.9101C174.7 68.8769 177.381 75.3211 180.877 75.3057C184.374 75.2903 187.357 68.8205 187.542 60.8485C187.726 52.8766 185.045 46.4375 181.549 46.4529C178.052 46.4683 175.069 52.9689 174.884 60.9101Z" fill="#878787" stroke="#263238" stroke-miterlimit="10"/>
<path d="M176.314 65.7855C176.253 65.4266 176.196 65.0626 176.15 64.6884C176.104 64.3141 176.068 63.9296 176.037 63.54C175.976 62.689 175.95 61.8072 175.971 60.8998C176.005 59.0859 176.235 57.2811 176.658 55.5168V55.4758C176.745 55.1169 176.842 54.7683 176.945 54.4505V54.3838C177.053 54.0557 177.16 53.7327 177.278 53.4252V53.3739C178.303 50.6773 179.806 48.9496 181.451 48.9393C182.856 48.9393 184.102 50.1902 184.994 52.2409C185.055 52.3793 185.112 52.5177 185.168 52.6562C185.224 52.7997 185.281 52.9432 185.332 53.0919C185.383 53.2406 185.435 53.3892 185.481 53.5379C185.527 53.6866 185.573 53.8353 185.619 53.9942C185.667 54.1446 185.708 54.2984 185.742 54.4556V54.4915C185.783 54.6402 185.819 54.794 185.855 54.9529C185.853 54.9699 185.853 54.9871 185.855 55.0042C185.891 55.1528 185.922 55.3066 185.952 55.4604C185.955 55.4843 185.955 55.5083 185.952 55.5322C185.983 55.6809 186.009 55.8347 186.04 55.9833V56.0756C186.04 56.2243 186.086 56.373 186.106 56.5216V56.6344C186.106 56.778 186.147 56.9215 186.163 57.0651C186.165 57.1112 186.165 57.1574 186.163 57.2035C186.163 57.3419 186.193 57.4854 186.204 57.6239C186.204 57.6803 186.204 57.7315 186.204 57.7828L186.234 58.1981V58.3724C186.234 58.5108 186.234 58.6441 186.234 58.7825C186.234 58.9209 186.234 58.9107 186.234 58.9722C186.234 59.1106 186.234 59.2439 186.234 59.3823C186.234 59.5207 186.234 59.5156 186.234 59.5822C186.234 59.7258 186.234 59.8693 186.234 60.018C186.234 60.0795 186.234 60.141 186.234 60.2026C186.234 60.4076 186.234 60.6178 186.234 60.8229C186.234 61.028 186.234 61.3356 186.234 61.5816C186.234 61.638 186.234 61.6996 186.234 61.7611L186.188 62.3968C186.188 62.4327 186.188 62.4634 186.188 62.4993C186.142 63.012 186.081 63.5246 186.009 64.0373C185.744 66.2087 185.078 68.3121 184.045 70.2406L184.015 70.3021C183.902 70.4866 183.789 70.6661 183.671 70.8147V70.8455C182.825 72.0605 181.831 72.7731 180.78 72.7783C179.729 72.7834 178.76 72.0708 177.965 70.8506C177.094 69.2841 176.534 67.5643 176.314 65.7855Z" fill="white" stroke="#263238" stroke-miterlimit="10"/>
<path d="M13.2562 65.0113C13.651 55.5014 20.0132 47.7806 27.4622 47.7601H35.5418C42.996 47.7601 48.7173 55.4501 48.3225 64.9447C47.9278 74.4392 41.5656 82.1907 34.1115 82.1907H26.037C18.5828 82.2164 12.8615 74.5007 13.2562 65.0113Z" fill="#263238" stroke="#263238" stroke-miterlimit="10"/>
<path d="M164.241 5.66012C164.241 5.66012 167.83 6.71621 168.307 7.76718C168.783 8.81814 169.055 9.57176 169.055 9.57176L179.888 25.367C179.888 25.367 183.799 25.0696 185.014 28.3763C186.229 31.683 185.763 36.1996 185.763 36.1996C185.763 36.1996 188.623 43.2692 188.772 48.5343C188.874 51.6004 188.723 54.6697 188.321 57.711C188.321 57.711 189.075 48.0832 186.819 45.0738C184.563 42.0645 179.898 44.3253 178.104 49.7391C176.309 55.1528 174.156 65.2318 174.156 65.2318L126.478 75.0135C126.478 75.0135 128.888 62.3763 125.725 55.1528C122.561 47.9294 107.827 48.3856 105.115 61.474C102.403 74.5623 103.311 76.9667 103.311 76.9667C103.311 76.9667 93.2319 79.0738 62.5437 78.6226C31.8556 78.1715 15.0094 74.5623 10.4929 73.3575C10.4929 73.3575 9.46751 67.79 9.13942 64.4833C8.94006 62.5803 9.25153 60.6585 10.0417 58.9158C10.0417 58.9158 10.3442 52.8971 11.0978 50.79C11.8514 48.683 14.1071 45.525 14.1071 45.525C14.1071 45.525 16.3629 40.2599 20.1207 36.9532C23.8785 33.6465 30.051 30.3347 31.5583 29.5811C33.0655 28.8275 35.0136 28.3763 37.8743 26.4231C40.735 24.4698 58.4834 12.13 64.051 8.82327C69.6185 5.51658 81.6508 3.85555 84.0449 3.4044C86.4391 2.95326 114.133 1 123.761 1C133.389 1 153.26 1.45114 164.241 5.66012Z" fill="#252940" stroke="#263238" stroke-miterlimit="10"/>
<path opacity="0.15" d="M9.14452 64.4832C8.94516 62.5802 9.25662 60.6584 10.0468 58.9157C10.0468 58.9157 10.1442 56.9881 10.3647 54.9374C29.1897 60.4896 62.8667 60.8638 72.2587 60.0333C83.0503 59.0849 102.193 56.4754 103.019 53.3687C103.844 50.2619 111.267 43.2128 116.348 41.3057C120.7 39.6754 171.203 32.6826 185.558 30.714C185.821 32.5285 185.878 34.3671 185.727 36.1944C185.727 36.1944 188.588 43.264 188.736 48.5291C188.838 51.5952 188.687 54.6645 188.285 57.7058C188.285 57.7058 189.039 48.078 186.783 45.0686C184.527 42.0593 179.862 44.3201 178.068 49.7339C176.273 55.1476 174.156 65.2317 174.156 65.2317L126.478 75.0134C126.478 75.0134 128.888 62.3762 125.725 55.1527C122.561 47.9293 107.827 48.3856 105.115 61.4739C102.403 74.5622 103.311 76.9666 103.311 76.9666C103.311 76.9666 93.2319 79.0737 62.5437 78.6225C31.8556 78.1714 15.0094 74.5622 10.4928 73.3575C10.4979 73.3575 9.44698 67.7899 9.14452 64.4832Z" fill="black"/>
<path d="M131.297 10.4741C137.352 6.13691 142.576 5.47557 145.027 5.27563C147.359 9.46411 151.179 17.3899 151.942 25.6079C139.126 27.6073 124.828 29.8836 124.828 29.8836C124.828 29.8836 121.521 31.0832 120.316 29.8836C119.921 29.562 119.611 29.1483 119.414 28.6788C119.111 27.9252 124.376 15.4418 131.297 10.4741Z" fill="white" stroke="#263238" stroke-miterlimit="10"/>
<path d="M149.143 5.29095C152.598 5.47642 156.035 5.90988 159.427 6.588C162.888 7.34161 164.093 7.49029 164.692 8.09523C165.292 8.70018 171.162 16.0569 173.269 21.3066C173.183 21.6841 172.973 22.0221 172.673 22.2671C172.373 22.5122 172.001 22.6505 171.613 22.6601C171.101 22.6601 164.805 23.6136 156.961 24.8286C155.649 20.1582 153.014 11.9556 149.143 5.29095Z" fill="white" stroke="#263238" stroke-miterlimit="10"/>
<path d="M168.255 22.896C168.255 22.896 165.692 13.0169 160.514 7.14178" stroke="#263238" stroke-miterlimit="10"/>
<path d="M151.804 32.7083L156.085 31.9496C156.224 31.9912 156.354 32.06 156.466 32.152C156.578 32.2441 156.671 32.3576 156.74 32.4859C156.808 32.6142 156.85 32.7547 156.863 32.8994C156.877 33.0441 156.861 33.19 156.818 33.3287C156.5 34.3796 155.931 34.2617 155.931 34.2617L152.368 34.8359C152.134 34.8597 151.9 34.7958 151.71 34.6566C151.521 34.5173 151.39 34.3126 151.343 34.0823C151.158 33.221 150.917 33.1133 151.804 32.7083Z" stroke="#263238" stroke-miterlimit="10"/>
<path d="M173.443 28.9762L176.719 28.361C176.941 28.4369 177.125 28.5974 177.229 28.8076C177.334 29.0177 177.351 29.2607 177.278 29.4837C177.037 30.3347 176.601 30.2424 176.601 30.2424L173.879 30.709C173.694 30.7267 173.51 30.6727 173.364 30.5582C173.218 30.4437 173.122 30.2774 173.095 30.0938C172.946 29.3863 172.762 29.3094 173.443 28.9762Z" stroke="#263238" stroke-miterlimit="10"/>
<path d="M147.267 4.77838C147.267 4.77838 153.367 16.1237 154.444 25.5413" stroke="#263238" stroke-miterlimit="10"/>
<path d="M155.828 27.4895C155.828 27.4895 158.612 32.1958 158.72 33.8004C158.827 35.4051 158.504 54.671 157.971 58.2033" stroke="#263238" stroke-miterlimit="10"/>
<path d="M125.54 17.0002C125.54 17.0002 127.683 23.2086 128.324 26.5256" stroke="#263238" stroke-miterlimit="10"/>
<path d="M126.396 34.231C126.396 34.231 128.754 42.044 128.857 47.9294C128.959 53.8148 129.072 64.8473 129.072 64.8473" stroke="#263238" stroke-miterlimit="10"/>
<path d="M173.597 23.4188C173.597 23.4188 178.627 28.0327 179.052 29.5195C179.478 31.0062 178.949 43.8741 178.949 43.8741" stroke="#263238" stroke-miterlimit="10"/>
<path d="M172.618 58.4186C172.618 58.4186 171.87 60.5615 170.265 61.0947C168.66 61.6279 129.698 69.123 129.698 69.123" stroke="#263238" stroke-miterlimit="10"/>
<path d="M59.7754 65.2112C59.7754 65.2112 29.9434 65.6214 18.8596 62.2019C18.8596 62.2019 19.9516 69.5894 22.0073 71.0966C24.0631 72.6039 38.9766 74.1367 46.2256 74.3777C54.4283 74.6545 59.0935 73.8343 59.0935 73.8343L59.7754 65.2112Z" fill="#263238" stroke="#263238" stroke-miterlimit="10"/>
<path d="M65.1121 46.5964L62.1027 52.7484C62.1027 52.7484 45.2719 53.1585 43.3546 53.2918C41.4372 53.4251 39.3865 54.3889 37.2026 53.2918C35.0186 52.1947 25.5702 50.9694 24.4731 50.9694C23.376 50.9694 22.0123 51.9281 22.0123 51.9281C22.0123 51.9281 24.4731 45.7761 25.4318 45.2224C26.15 44.8585 26.9595 44.7141 27.7593 44.8072C28.1643 44.8174 48.1428 43.3153 65.1121 46.5964Z" fill="#263238" stroke="#263238" stroke-miterlimit="10"/>
<path d="M96.8359 34.3078C96.8359 34.3078 104.013 33.2056 106.746 34.1694C109.478 35.1332 108.125 38.85 103.444 42.29C98.7635 45.73 94.9082 49.0315 90.1148 49.5852C85.3214 50.1389 77.0162 51.9435 76.6061 50.4055C76.196 48.8675 77.7083 43.3871 83.2143 39.3934C88.7204 35.3998 96.8359 34.3078 96.8359 34.3078Z" fill="white" stroke="#263238" stroke-miterlimit="10"/>
<path d="M39.325 26.4589L40.699 26.8742L47.3636 27.0639C50.8651 27.1664 55.4893 27.2946 60.6006 27.4279C67.6549 27.6176 75.632 27.8124 82.8349 27.9405C93.847 28.1712 103.065 28.2892 104.449 28.0841C107.231 27.7263 109.844 26.5524 111.959 24.7107C113.553 23.2851 114.878 21.5852 115.871 19.6918C119.137 13.6577 127.503 6.22917 127.503 6.22917C114.292 4.69117 82.7734 5.26536 79.195 5.40378C78.0848 5.46038 76.9799 5.59399 75.8883 5.80366C72.0689 6.48038 67.0858 7.98248 64.1944 9.94599C63.6817 10.2946 62.8564 10.8432 61.8208 11.5352C59.401 13.1501 55.8123 15.5289 52.2083 17.9179L45.923 22.0757L39.325 26.4589Z" fill="white" stroke="#263238" stroke-miterlimit="10"/>
<path d="M64.2201 9.94598C63.7074 10.2946 62.882 10.8431 61.8464 11.5352L82.794 27.9405C93.806 28.1712 103.024 28.2891 104.408 28.0841C107.19 27.7263 109.803 26.5524 111.918 24.7107L75.914 5.80365C72.0946 6.48037 67.1115 7.98248 64.2201 9.94598Z" fill="#263238" stroke="#263238" stroke-miterlimit="10"/>
<path d="M45.9489 22.0756L47.3228 27.0639C50.8243 27.1664 55.4485 27.2945 60.5598 27.4278L52.2341 17.9179L45.9489 22.0756Z" fill="#263238" stroke="#263238" stroke-miterlimit="10"/>
<path d="M68.9724 42.4797C68.1368 43.3308 67.3268 44.2279 66.5578 45.1815" stroke="#263238" stroke-miterlimit="10"/>
<path d="M89.269 30.3141C89.269 30.3141 78.8517 33.3901 70.4183 41.0801" stroke="#263238" stroke-miterlimit="10"/>
<path d="M22.5457 44.9353C21.4451 47.003 20.6474 49.2181 20.1771 51.5128" stroke="#263238" stroke-miterlimit="10"/>
<path d="M38.4792 30.8678C38.4792 30.8678 29.2513 34.4565 23.7196 42.9462" stroke="#263238" stroke-miterlimit="10"/>
<path d="M81.0099 67.8874C81.0099 69.4869 82.5479 70.7788 84.4499 70.7788C86.3519 70.7788 87.8899 69.4869 87.8899 67.8874C87.8899 66.2879 86.3519 64.996 84.4499 64.996C82.5479 64.996 81.0099 66.2981 81.0099 67.8874Z" fill="white" stroke="#263238" stroke-miterlimit="10"/>
<path d="M9.74934 63.1914C10.0416 64.5704 10.9695 65.5394 11.8256 65.3548C12.6818 65.1703 13.138 63.9142 12.851 62.5352C12.5639 61.1561 11.6308 60.1923 10.8003 60.3717C9.96978 60.5511 9.45712 61.8174 9.74934 63.1914Z" fill="white" stroke="#263238" stroke-miterlimit="10"/>
<path d="M127.99 28.3609C127.99 28.3609 130.846 23.547 132.651 23.2343C134.455 22.9215 142.13 22.6344 143.786 23.6905C145.442 24.7466 144.985 28.202 144.386 29.1043C143.786 30.0066 141.376 30.4577 139.259 30.309C137.142 30.1604 130.082 30.7602 130.082 30.7602C130.082 30.7602 125.873 33.7695 124.366 33.4671C122.859 33.1646 120.905 29.8784 122.264 28.0482C123.623 26.218 125.73 26.7204 127.99 28.3609Z" fill="#263238" stroke="#263238" stroke-miterlimit="10"/>
<path d="M127.99 28.3763L123.023 29.4324" stroke="#263238" stroke-miterlimit="10"/>
<path d="M164.241 5.66012C164.241 5.66012 167.83 6.71621 168.307 7.76718C168.783 8.81814 169.055 9.57176 169.055 9.57176L179.888 25.367C179.888 25.367 183.799 25.0696 185.014 28.3763C186.229 31.683 185.763 36.1996 185.763 36.1996C185.763 36.1996 188.623 43.2692 188.772 48.5343C188.874 51.6004 188.723 54.6697 188.321 57.711C188.321 57.711 189.075 48.0832 186.819 45.0738C184.563 42.0645 179.898 44.3253 178.104 49.7391C176.309 55.1528 174.156 65.2318 174.156 65.2318L126.478 75.0135C126.478 75.0135 128.888 62.3763 125.725 55.1528C122.561 47.9294 107.827 48.3856 105.115 61.474C102.403 74.5623 103.311 76.9667 103.311 76.9667C103.311 76.9667 93.2319 79.0738 62.5437 78.6226C31.8556 78.1715 15.0094 74.5623 10.4929 73.3575C10.4929 73.3575 9.46752 67.79 9.13941 64.4833C8.94006 62.5803 9.25152 60.6585 10.0417 58.9158C10.0417 58.9158 10.3442 52.8971 11.0978 50.79C11.8514 48.683 14.1071 45.525 14.1071 45.525C14.1071 45.525 16.3629 40.2599 20.1207 36.9532C23.8785 33.6465 30.051 30.3347 31.5583 29.5811C33.0655 28.8275 35.0136 28.3763 37.8743 26.4231C40.735 24.4698 58.4834 12.13 64.051 8.82327C69.6185 5.51658 81.6508 3.85555 84.0449 3.4044C86.4391 2.95326 114.133 1 123.761 1C133.389 1 153.26 1.45114 164.241 5.66012Z" stroke="#263238" stroke-miterlimit="10"/>
<path d="M25.5447 33.0673C25.5447 33.0673 28.5694 34.1695 27.744 35.2717C26.9186 36.374 22.3764 39.2603 20.3155 42.8387C18.2546 46.4171 17.8342 48.2063 16.8755 48.2063C15.9168 48.2063 13.8252 46.4222 14.1123 45.525C14.3994 44.6279 15.9117 36.5072 25.5447 33.0673Z" fill="white" stroke="#263238" stroke-miterlimit="10"/>
<path d="M176.981 60.6588C177.008 59.2599 177.152 57.8657 177.411 56.4908L179.462 58.9721C179.361 59.5291 179.301 60.0929 179.283 60.6588C179.283 60.746 179.283 60.828 179.283 60.91L176.971 61.6431C176.976 61.2997 176.976 60.9715 176.981 60.6588Z" fill="#263238" stroke="#263238" stroke-miterlimit="10"/>
<path d="M180.59 56.0961C180.351 56.367 180.156 56.673 180.011 57.0035L178.58 52.7125C178.958 51.8132 179.551 51.0208 180.308 50.4055L180.59 56.0961Z" fill="#263238" stroke="#263238" stroke-miterlimit="10"/>
<path d="M179.585 63.4272C179.675 63.7962 179.803 64.1552 179.965 64.4987L178.785 69.6254C178.139 68.4883 177.686 67.2511 177.447 65.9649L179.585 63.4272Z" fill="#263238" stroke="#263238" stroke-miterlimit="10"/>
<path d="M183.046 57.9674L185.096 55.158C185.425 56.6881 185.597 58.2479 185.609 59.813L183.292 59.9411C183.274 59.2768 183.191 58.6158 183.046 57.9674Z" fill="#263238" stroke="#263238" stroke-miterlimit="10"/>
<path d="M182.359 56.2601C182.22 56.0459 182.029 55.8697 181.805 55.7475L182.143 50.0569C182.877 50.3081 183.543 51.0258 184.092 52.0819L182.359 56.2601Z" fill="#263238" stroke="#263238" stroke-miterlimit="10"/>
<path d="M180.974 65.5495C181.046 65.5702 181.12 65.5805 181.195 65.5803C181.419 65.5735 181.634 65.4903 181.805 65.3445L182.943 70.2558C182.723 70.5511 182.442 70.7955 182.119 70.9724C181.796 71.1494 181.439 71.2547 181.072 71.2811C180.898 71.2774 180.726 71.2498 180.559 71.1991L180.974 65.5495Z" fill="#263238" stroke="#263238" stroke-miterlimit="10"/>
<path d="M183.061 62.7454L185.358 63.7348C185.159 65.2054 184.782 66.6463 184.235 68.0258L182.764 63.7963C182.887 63.4535 182.987 63.1023 183.061 62.7454Z" fill="#263238" stroke="#263238" stroke-miterlimit="10"/>
<path d="M20.5861 98.3856C20.7485 98.3862 20.9109 98.3869 21.0782 98.3876C25.5268 98.4467 29.4945 100.179 32.6896 103.228C33.1641 103.025 33.4747 102.753 33.8447 102.397C37.4545 99.1275 42.1517 98.2137 46.8965 98.4284C50.2802 98.6795 53.4153 100.149 55.9999 102.268C56.1 102.345 56.2001 102.422 56.3033 102.501C58.7962 104.498 60.439 107.8 60.8275 110.908C60.8962 111.836 60.8801 112.768 60.8745 113.698C60.8744 113.972 60.8744 114.247 60.8747 114.521C60.8748 115.26 60.8724 116 60.8695 116.739C60.8669 117.513 60.8666 118.288 60.8661 119.063C60.8649 120.527 60.8615 121.992 60.8573 123.456C60.8527 125.124 60.8504 126.793 60.8483 128.461C60.844 131.89 60.8364 135.319 60.8275 138.748C58.4151 138.748 56.0027 138.748 53.5172 138.748C53.5172 127.841 53.5172 116.934 53.5172 105.697C47.873 105.697 42.2289 105.697 36.4137 105.697C36.4137 116.604 36.4137 127.511 36.4137 138.748C34.0468 138.748 31.6799 138.748 29.2413 138.748C29.2413 127.841 29.2413 116.934 29.2413 105.697C23.5972 105.697 17.953 105.697 12.1379 105.697C12.1379 116.604 12.1379 127.511 12.1379 138.748C9.72544 138.748 7.31303 138.748 4.82751 138.748C4.81503 135.141 4.80488 131.533 4.79892 127.926C4.79608 126.251 4.79222 124.576 4.78589 122.9C4.78037 121.439 4.77682 119.978 4.7756 118.517C4.77488 117.745 4.77321 116.972 4.76917 116.199C4.7654 115.47 4.76428 114.741 4.7651 114.012C4.76495 113.746 4.76388 113.48 4.76174 113.214C4.73087 109.167 6.10207 105.718 8.96544 102.817C10.8699 100.962 13.2719 99.7747 15.8016 99.0113C15.891 98.984 15.9803 98.9567 16.0723 98.9287C17.5527 98.5052 19.0513 98.3779 20.5861 98.3856Z" fill="#252940"/>
<path d="M161.379 98.4285C164.329 98.4192 167.279 98.4116 170.228 98.4072C171.598 98.4051 172.968 98.4022 174.337 98.3974C175.532 98.3933 176.727 98.3907 177.921 98.3898C178.553 98.3892 179.185 98.388 179.817 98.385C180.413 98.3822 181.009 98.3813 181.606 98.3819C181.823 98.3818 182.04 98.381 182.258 98.3794C185.716 98.3553 188.844 99.388 191.448 101.72C191.556 101.814 191.664 101.908 191.775 102.005C193.749 103.836 195.078 106.577 195.222 109.258C195.247 110.038 195.241 110.816 195.235 111.596C195.235 111.893 195.235 112.191 195.235 112.489C195.235 113.29 195.232 114.091 195.228 114.892C195.225 115.732 195.225 116.572 195.224 117.411C195.222 118.999 195.218 120.586 195.212 122.173C195.206 123.981 195.203 125.789 195.2 127.598C195.194 131.315 195.184 135.032 195.172 138.748C192.76 138.748 190.348 138.748 187.862 138.748C187.817 138.341 187.771 137.934 187.724 137.514C187.609 137.585 187.493 137.657 187.375 137.73C185.348 138.949 183.232 139.612 180.85 139.613C180.707 139.615 180.564 139.616 180.418 139.617C179.95 139.62 179.482 139.621 179.014 139.622C178.685 139.623 178.356 139.625 178.027 139.626C177.338 139.628 176.65 139.629 175.961 139.63C175.086 139.63 174.21 139.636 173.335 139.642C172.656 139.646 171.976 139.647 171.297 139.647C170.974 139.648 170.652 139.649 170.33 139.652C166.774 139.682 163.641 139.015 160.966 136.554C160.86 136.462 160.754 136.369 160.646 136.274C158.376 134.179 157.072 131.094 156.948 128.036C156.889 124.705 157.881 121.595 160.225 119.18C160.424 118.981 160.626 118.785 160.828 118.588C160.921 118.494 161.014 118.4 161.11 118.303C163.338 116.197 166.538 115.363 169.526 115.387C169.727 115.388 169.929 115.388 170.13 115.387C170.671 115.387 171.211 115.39 171.752 115.392C172.32 115.395 172.887 115.395 173.454 115.396C174.526 115.397 175.598 115.4 176.669 115.405C178.119 115.41 179.57 115.412 181.02 115.415C183.3 115.419 185.581 115.427 187.862 115.434C187.862 112.221 187.862 109.008 187.862 105.697C179.123 105.697 170.383 105.697 161.379 105.697C161.379 103.298 161.379 100.9 161.379 98.4285ZM165.345 124.52C164.55 125.519 164.331 126.582 164.36 127.83C164.361 127.959 164.362 128.087 164.362 128.22C164.365 128.627 164.372 129.033 164.379 129.44C164.382 129.718 164.385 129.996 164.387 130.273C164.393 130.95 164.402 131.626 164.414 132.303C166.887 132.316 169.361 132.325 171.835 132.331C172.983 132.334 174.132 132.338 175.28 132.344C176.282 132.35 177.284 132.353 178.285 132.354C178.815 132.355 179.345 132.357 179.875 132.361C180.375 132.365 180.875 132.366 181.375 132.365C181.643 132.365 181.912 132.368 182.181 132.371C183.734 132.364 185.16 131.972 186.345 130.931C187.917 129.193 187.92 127.512 187.888 125.291C187.886 125.04 187.884 124.788 187.882 124.537C187.878 123.926 187.871 123.314 187.862 122.703C185.353 122.69 182.843 122.68 180.334 122.674C179.168 122.672 178.003 122.668 176.837 122.661C175.821 122.656 174.805 122.652 173.789 122.651C173.251 122.65 172.714 122.649 172.176 122.645C171.669 122.641 171.162 122.64 170.655 122.641C170.382 122.641 170.109 122.638 169.837 122.635C168 122.643 166.608 123.189 165.345 124.52Z" fill="#252940"/>
<path d="M81.2814 98.3662C81.5535 98.3663 81.8257 98.3662 82.0978 98.3659C82.8289 98.3658 83.56 98.369 84.2911 98.3728C85.058 98.3763 85.8249 98.3766 86.5918 98.3772C88.0406 98.3789 89.4894 98.3834 90.9382 98.3889C92.589 98.3951 94.2399 98.3981 95.8908 98.4008C99.2836 98.4065 102.676 98.4166 106.069 98.4284C106.069 100.827 106.069 103.226 106.069 105.697C95.9188 105.697 85.7684 105.697 75.3105 105.697C75.3105 108.865 75.3105 112.033 75.3105 115.297C84.0043 115.297 92.6981 115.297 101.655 115.297C101.655 117.741 101.655 120.185 101.655 122.703C92.9615 122.703 84.2677 122.703 75.3105 122.703C74.975 127.199 74.975 127.199 76.6822 130.814C77.7764 131.796 78.9775 132.208 80.4424 132.204C80.6076 132.205 80.6076 132.205 80.7761 132.206C81.1429 132.208 81.5096 132.209 81.8764 132.209C82.1402 132.211 82.404 132.212 82.6678 132.213C83.3824 132.217 84.0971 132.219 84.8117 132.221C85.5591 132.223 86.3065 132.227 87.0539 132.23C88.4685 132.237 89.8832 132.242 91.2978 132.246C92.9086 132.252 94.5194 132.258 96.1302 132.265C99.4432 132.279 102.756 132.292 106.069 132.303C106.069 134.701 106.069 137.1 106.069 139.571C102.513 139.584 98.9565 139.594 95.4002 139.6C93.7488 139.603 92.0973 139.606 90.4459 139.613C89.0056 139.618 87.5654 139.622 86.1251 139.623C85.3633 139.624 84.6015 139.625 83.8397 139.629C83.1209 139.633 82.4021 139.634 81.6833 139.633C81.4212 139.633 81.159 139.635 80.8969 139.637C78.7632 139.653 76.74 139.426 74.8019 138.466C74.6936 138.413 74.5854 138.361 74.4739 138.307C73.3976 137.765 72.4868 137.072 71.5863 136.28C71.4431 136.158 71.4431 136.158 71.297 136.033C69.2946 134.201 68.0905 131.393 67.8622 128.737C67.8411 128.112 67.8405 127.487 67.84 126.862C67.8393 126.674 67.8386 126.485 67.8379 126.297C67.8361 125.788 67.8352 125.279 67.8346 124.77C67.8342 124.451 67.8336 124.132 67.833 123.813C67.8311 122.811 67.8298 121.809 67.8292 120.807C67.8286 119.657 67.8262 118.506 67.8222 117.356C67.8192 116.463 67.8178 115.57 67.8177 114.677C67.8175 114.145 67.8167 113.614 67.8142 113.082C67.7902 107.64 67.7902 107.64 68.9656 105.286C69.0266 105.159 69.0876 105.033 69.1505 104.903C70.603 102.066 73.1935 100.107 76.1381 98.977C77.8559 98.4419 79.4921 98.3517 81.2814 98.3662Z" fill="#252940"/>
<path d="M125.702 98.4041C125.857 98.4032 126.012 98.4023 126.172 98.4014C126.683 98.3987 127.194 98.3971 127.705 98.3957C127.969 98.3949 127.969 98.3949 128.237 98.394C129.072 98.3915 129.906 98.3895 130.741 98.3883C131.697 98.387 132.654 98.3834 133.61 98.3778C134.444 98.3732 135.277 98.3716 136.111 98.371C136.463 98.3704 136.815 98.3688 137.166 98.3662C141.362 98.3376 144.817 99.1416 147.944 102.065C150.71 104.908 151.31 107.919 151.31 111.868C148.898 111.868 146.485 111.868 144 111.868C144 109.832 144 107.795 144 105.697C136.262 105.697 128.524 105.697 120.552 105.697C120.552 114.477 120.552 123.257 120.552 132.303C128.29 132.303 136.027 132.303 144 132.303C144 130.311 144 128.32 144 126.268C146.412 126.268 148.825 126.268 151.31 126.268C151.31 130.357 150.621 133.213 147.724 136.143C147.631 136.237 147.538 136.331 147.442 136.428C145.202 138.547 142.153 139.639 139.089 139.627C138.844 139.628 138.844 139.628 138.593 139.63C138.058 139.632 137.524 139.632 136.989 139.631C136.708 139.631 136.428 139.632 136.147 139.632C135.267 139.634 134.386 139.634 133.506 139.632C132.604 139.631 131.702 139.633 130.8 139.636C130.02 139.64 129.24 139.64 128.46 139.64C127.997 139.639 127.533 139.64 127.07 139.642C122.945 139.658 119.461 138.8 116.414 135.868C113.931 133.282 113.058 130.185 113.065 126.672C113.065 126.486 113.064 126.301 113.063 126.115C113.061 125.616 113.061 125.118 113.062 124.619C113.062 124.2 113.061 123.781 113.061 123.361C113.059 122.371 113.059 121.381 113.06 120.39C113.061 119.375 113.059 118.36 113.056 117.344C113.054 116.467 113.053 115.59 113.053 114.712C113.053 114.191 113.053 113.669 113.051 113.148C113.037 108.834 113.43 105.38 116.552 102.131C116.626 102.047 116.701 101.963 116.777 101.876C117.531 101.054 118.495 100.5 119.448 99.937C119.563 99.8687 119.679 99.8005 119.797 99.7302C121.622 98.7421 123.652 98.4093 125.702 98.4041Z" fill="#252940"/>
</svg>
