<svg width="16" height="16" viewBox="0 0 16 16" fill="none" xmlns="http://www.w3.org/2000/svg">
<path d="M7.33325 11.333H8.66659V7.33301H7.33325V11.333ZM7.99992 5.99967C8.18881 5.99967 8.34725 5.93567 8.47525 5.80767C8.60325 5.67967 8.66703 5.52145 8.66659 5.33301C8.66614 5.14456 8.60214 4.98634 8.47459 4.85834C8.34703 4.73034 8.18881 4.66634 7.99992 4.66634C7.81103 4.66634 7.65281 4.73034 7.52525 4.85834C7.3977 4.98634 7.3337 5.14456 7.33325 5.33301C7.33281 5.52145 7.39681 5.6799 7.52525 5.80834C7.6537 5.93679 7.81192 6.00056 7.99992 5.99967ZM7.99992 14.6663C7.0777 14.6663 6.21103 14.4912 5.39992 14.141C4.58881 13.7908 3.88325 13.3159 3.28325 12.7163C2.68325 12.1168 2.20836 11.4112 1.85859 10.5997C1.50881 9.78812 1.3337 8.92145 1.33325 7.99967C1.33281 7.0779 1.50792 6.21123 1.85859 5.39967C2.20925 4.58812 2.68414 3.88256 3.28325 3.28301C3.88236 2.68345 4.58792 2.20856 5.39992 1.85834C6.21192 1.50812 7.07859 1.33301 7.99992 1.33301C8.92125 1.33301 9.78792 1.50812 10.5999 1.85834C11.4119 2.20856 12.1175 2.68345 12.7166 3.28301C13.3157 3.88256 13.7908 4.58812 14.1419 5.39967C14.493 6.21123 14.6679 7.0779 14.6666 7.99967C14.6653 8.92145 14.4901 9.78812 14.1413 10.5997C13.7924 11.4112 13.3175 12.1168 12.7166 12.7163C12.1157 13.3159 11.4101 13.791 10.5999 14.1417C9.7897 14.4923 8.92303 14.6672 7.99992 14.6663ZM7.99992 13.333C9.48881 13.333 10.7499 12.8163 11.7833 11.783C12.8166 10.7497 13.3333 9.48856 13.3333 7.99967C13.3333 6.51079 12.8166 5.24967 11.7833 4.21634C10.7499 3.18301 9.48881 2.66634 7.99992 2.66634C6.51103 2.66634 5.24992 3.18301 4.21659 4.21634C3.18325 5.24967 2.66659 6.51079 2.66659 7.99967C2.66659 9.48856 3.18325 10.7497 4.21659 11.783C5.24992 12.8163 6.51103 13.333 7.99992 13.333Z" fill="#252940"/>
</svg>
