<svg width="24" height="25" viewBox="0 0 24 25" fill="none" xmlns="http://www.w3.org/2000/svg">
<path d="M11.5012 22.375C12.5889 22.375 13.4787 21.5442 13.4787 20.5288H9.5237C9.5237 21.5442 10.4037 22.375 11.5012 22.375ZM17.4338 16.8365V12.2212C17.4338 9.38731 15.8122 7.015 12.9844 6.38731V5.75962C12.9844 4.99346 12.3219 4.375 11.5012 4.375C10.6805 4.375 10.0181 4.99346 10.0181 5.75962V6.38731C7.18033 7.015 5.56865 9.37808 5.56865 12.2212V16.8365L4.29315 18.0273C3.67023 18.6088 4.10528 19.6058 4.98528 19.6058H18.0073C18.8873 19.6058 19.3322 18.6088 18.7093 18.0273L17.4338 16.8365Z" fill="white"/>
</svg>
