<svg width="25" height="24" viewBox="0 0 25 24" fill="none" xmlns="http://www.w3.org/2000/svg">
<path d="M19.5 20.75C19.7652 20.75 20.0196 20.6446 20.2071 20.4571C20.3946 20.2696 20.5 20.0152 20.5 19.75V18.504C20.504 15.698 16.526 13.5 12.5 13.5C8.474 13.5 4.5 15.698 4.5 18.504V19.75C4.5 20.0152 4.60536 20.2696 4.79289 20.4571C4.98043 20.6446 5.23478 20.75 5.5 20.75H19.5ZM16.104 6.854C16.104 7.32728 16.0108 7.79593 15.8297 8.23319C15.6485 8.67045 15.3831 9.06775 15.0484 9.40241C14.7138 9.73707 14.3164 10.0025 13.8792 10.1837C13.4419 10.3648 12.9733 10.458 12.5 10.458C12.0267 10.458 11.5581 10.3648 11.1208 10.1837C10.6836 10.0025 10.2862 9.73707 9.95159 9.40241C9.61692 9.06775 9.35146 8.67045 9.17034 8.23319C8.98922 7.79593 8.896 7.32728 8.896 6.854C8.896 5.89816 9.27571 4.98147 9.95159 4.30559C10.6275 3.62971 11.5442 3.25 12.5 3.25C13.4558 3.25 14.3725 3.62971 15.0484 4.30559C15.7243 4.98147 16.104 5.89816 16.104 6.854Z" stroke="#252940" stroke-width="1.5" stroke-linecap="round" stroke-linejoin="round"/>
</svg>
