<svg width="25" height="24" viewBox="0 0 25 24" fill="none" xmlns="http://www.w3.org/2000/svg">
<g clip-path="url(#clip0_3012_3128)">
<path fill-rule="evenodd" clip-rule="evenodd" d="M19.25 8.99999C19.2531 10.4463 18.7885 11.8549 17.9255 13.0155L12.5 20.25L7.0745 13.0155C6.43926 12.1572 6.01668 11.1605 5.84148 10.1073C5.66629 9.05398 5.74346 7.97415 6.06667 6.95648C6.38988 5.93882 6.94991 5.01235 7.70075 4.25317C8.45159 3.49399 9.37182 2.92377 10.3858 2.58934C11.3999 2.25491 12.4788 2.16582 13.5339 2.32937C14.5891 2.49293 15.5904 2.90447 16.4556 3.5302C17.3208 4.15592 18.0252 4.97797 18.511 5.92883C18.9968 6.87969 19.25 7.93223 19.25 8.99999ZM21.5 8.99999C21.5 11.01 20.8415 12.864 19.73 14.361L13.9055 22.125L12.5 24L11.093 22.125L5.27 14.361C4.42203 13.2171 3.85756 11.8884 3.62298 10.484C3.3884 9.07951 3.49039 7.63946 3.92058 6.2821C4.35078 4.92475 5.09689 3.68884 6.09762 2.67591C7.09835 1.66299 8.32514 0.901963 9.67718 0.455364C11.0292 0.00876401 12.4679 -0.110663 13.8751 0.106895C15.2823 0.324453 16.6178 0.872787 17.7718 1.70684C18.9259 2.5409 19.8655 3.63688 20.5137 4.90472C21.1618 6.17256 21.4998 7.57609 21.5 8.99999ZM12.5 12C13.2957 12 14.0587 11.6839 14.6213 11.1213C15.1839 10.5587 15.5 9.79564 15.5 8.99999C15.5 8.20434 15.1839 7.44128 14.6213 6.87867C14.0587 6.31606 13.2957 5.99999 12.5 5.99999C11.7044 5.99999 10.9413 6.31606 10.3787 6.87867C9.81607 7.44128 9.5 8.20434 9.5 8.99999C9.5 9.79564 9.81607 10.5587 10.3787 11.1213C10.9413 11.6839 11.7044 12 12.5 12Z" fill="#252940"/>
</g>
<defs>
<clipPath id="clip0_3012_3128">
<rect width="24" height="24" fill="white" transform="translate(0.5)"/>
</clipPath>
</defs>
</svg>
