<svg width="196" height="196" viewBox="0 0 196 196" fill="none" xmlns="http://www.w3.org/2000/svg">
<path d="M171.034 106.467C168.588 104.578 166.091 102.747 164.621 100.015C157.173 86.189 172.676 70.0151 164.072 55.0329C159.705 47.432 151.093 41.8695 142.688 45.029C133.731 48.4002 125.276 51.9204 115.64 49.1333C98.7842 44.2489 90.0309 21.3953 71.6696 21.7795C56.5972 22.0931 39.8235 37.9691 48.5416 54.4449C55.1468 66.9105 51.019 77.2279 35.7428 79.3761C20.4666 81.5242 13.8966 99.568 18.4242 107.318C22.9518 115.068 31.6307 123.221 23.3752 126.659C15.1197 130.097 12.2306 141.273 13.0578 149.003C13.8849 156.733 15.5313 159.748 15.5313 159.748H173.986C173.986 159.748 180.669 151.151 181.492 131.383C181.853 122.814 180.077 114.421 173.601 108.56C172.782 107.831 171.912 107.145 171.034 106.467Z" fill="#92E3A9"/>
<path opacity="0.7" d="M171.034 106.467C168.588 104.578 166.091 102.747 164.621 100.015C157.173 86.189 172.676 70.0151 164.072 55.0329C159.705 47.432 151.093 41.8695 142.688 45.029C133.731 48.4002 125.276 51.9204 115.64 49.1333C98.7842 44.2489 90.0309 21.3953 71.6696 21.7795C56.5972 22.0931 39.8235 37.9691 48.5416 54.4449C55.1468 66.9105 51.019 77.2279 35.7428 79.3761C20.4666 81.5242 13.8966 99.568 18.4242 107.318C22.9518 115.068 31.6307 123.221 23.3752 126.659C15.1197 130.097 12.2306 141.273 13.0578 149.003C13.8849 156.733 15.5313 159.748 15.5313 159.748H173.986C173.986 159.748 180.669 151.151 181.492 131.383C181.853 122.814 180.077 114.421 173.601 108.56C172.782 107.831 171.912 107.145 171.034 106.467Z" fill="white"/>
<path d="M96.2595 172.48C112.821 172.48 126.247 171.076 126.247 169.344C126.247 167.612 112.821 166.208 96.2595 166.208C79.6976 166.208 66.2715 167.612 66.2715 169.344C66.2715 171.076 79.6976 172.48 96.2595 172.48Z" fill="#92E3A9"/>
<path opacity="0.5" d="M96.2595 172.48C112.821 172.48 126.247 171.076 126.247 169.344C126.247 167.612 112.821 166.208 96.2595 166.208C79.6976 166.208 66.2715 167.612 66.2715 169.344C66.2715 171.076 79.6976 172.48 96.2595 172.48Z" fill="white"/>
<path d="M164.025 143.433V138.646H158.686V129.36H151.014V91.6417H143.676V114.44H137.004V106.279H128V127.388H124.331V134.142H115.66V131.61H118.325V130.203H107.318V131.892H108.655V139.211H102.983V125.416H82.971V135.267H68.6238V127.949H63.2887V136.114H51.9481V121.195H47.2794V116.13H38.9376V139.211H30.5998V144.276H25.2646V159.756H174.366V143.433H164.025Z" stroke="#2E353A" stroke-miterlimit="10"/>
<path d="M42.2182 121.128H40.415V122.931H42.2182V121.128Z" fill="#2E353A"/>
<path d="M45.9741 121.128H44.1709V122.931H45.9741V121.128Z" fill="#2E353A"/>
<path d="M42.2182 124.887H40.415V126.69H42.2182V124.887Z" fill="#2E353A"/>
<path d="M45.9741 124.887H44.1709V126.69H45.9741V124.887Z" fill="#2E353A"/>
<path d="M50.0307 124.887H48.2275V126.69H50.0307V124.887Z" fill="#2E353A"/>
<path d="M50.0307 128.643H48.2275V130.446H50.0307V128.643Z" fill="#2E353A"/>
<path d="M50.0307 132.402H48.2275V134.205H50.0307V132.402Z" fill="#2E353A"/>
<path d="M50.0307 136.157H48.2275V137.96H50.0307V136.157Z" fill="#2E353A"/>
<path d="M50.0307 139.917H48.2275V141.72H50.0307V139.917Z" fill="#2E353A"/>
<path d="M50.0307 143.676H48.2275V145.479H50.0307V143.676Z" fill="#2E353A"/>
<path d="M42.2182 128.643H40.415V130.446H42.2182V128.643Z" fill="#2E353A"/>
<path d="M45.9741 128.643H44.1709V130.446H45.9741V128.643Z" fill="#2E353A"/>
<path d="M42.2182 132.402H40.415V134.205H42.2182V132.402Z" fill="#2E353A"/>
<path d="M45.9741 132.402H44.1709V134.205H45.9741V132.402Z" fill="#2E353A"/>
<path d="M42.2182 136.157H40.415V137.96H42.2182V136.157Z" fill="#2E353A"/>
<path d="M45.9741 136.157H44.1709V137.96H45.9741V136.157Z" fill="#2E353A"/>
<path d="M42.2182 139.917H40.415V141.72H42.2182V139.917Z" fill="#2E353A"/>
<path d="M33.9516 142.022H32.1484V143.825H33.9516V142.022Z" fill="#2E353A"/>
<path d="M59.9526 137.96H58.1494V139.764H59.9526V137.96Z" fill="#2E353A"/>
<path d="M63.5591 137.96H61.7559V139.764H63.5591V137.96Z" fill="#2E353A"/>
<path d="M146.679 93.7703H144.876V95.5735H146.679V93.7703Z" fill="#2E353A"/>
<path d="M148.933 93.7703H147.13V95.5735H148.933V93.7703Z" fill="#2E353A"/>
<path d="M146.679 97.5295H144.876V99.3327H146.679V97.5295Z" fill="#2E353A"/>
<path d="M148.933 97.5295H147.13V99.3327H148.933V97.5295Z" fill="#2E353A"/>
<path d="M146.679 101.289H144.876V103.092H146.679V101.289Z" fill="#2E353A"/>
<path d="M148.933 101.289H147.13V103.092H148.933V101.289Z" fill="#2E353A"/>
<path d="M146.679 105.044H144.876V106.847H146.679V105.044Z" fill="#2E353A"/>
<path d="M148.933 105.044H147.13V106.847H148.933V105.044Z" fill="#2E353A"/>
<path d="M146.679 108.803H144.876V110.607H146.679V108.803Z" fill="#2E353A"/>
<path d="M148.933 108.803H147.13V110.607H148.933V108.803Z" fill="#2E353A"/>
<path d="M146.679 112.559H144.876V114.362H146.679V112.559Z" fill="#2E353A"/>
<path d="M148.933 112.559H147.13V114.362H148.933V112.559Z" fill="#2E353A"/>
<path d="M146.679 116.318H144.876V118.121H146.679V116.318Z" fill="#2E353A"/>
<path d="M148.933 116.318H147.13V118.121H148.933V116.318Z" fill="#2E353A"/>
<path d="M146.679 120.077H144.876V121.881H146.679V120.077Z" fill="#2E353A"/>
<path d="M148.933 120.077H147.13V121.881H148.933V120.077Z" fill="#2E353A"/>
<path d="M146.679 123.833H144.876V125.636H146.679V123.833Z" fill="#2E353A"/>
<path d="M148.933 123.833H147.13V125.636H148.933V123.833Z" fill="#2E353A"/>
<path d="M131.348 123.833H129.545V125.636H131.348V123.833Z" fill="#2E353A"/>
<path d="M135.256 123.833H133.453V125.636H135.256V123.833Z" fill="#2E353A"/>
<path d="M139.165 123.833H137.361V125.636H139.165V123.833Z" fill="#2E353A"/>
<path d="M131.348 131.951H129.545V133.754H131.348V131.951Z" fill="#2E353A"/>
<path d="M135.256 131.951H133.453V133.754H135.256V131.951Z" fill="#2E353A"/>
<path d="M139.165 131.951H137.361V133.754H139.165V131.951Z" fill="#2E353A"/>
<path d="M131.348 140.065H129.545V141.869H131.348V140.065Z" fill="#2E353A"/>
<path d="M135.256 140.065H133.453V141.869H135.256V140.065Z" fill="#2E353A"/>
<path d="M139.165 140.065H137.361V141.869H139.165V140.065Z" fill="#2E353A"/>
<path d="M146.679 127.592H144.876V129.395H146.679V127.592Z" fill="#2E353A"/>
<path d="M148.933 127.592H147.13V129.395H148.933V127.592Z" fill="#2E353A"/>
<path d="M146.679 131.347H144.876V133.151H146.679V131.347Z" fill="#2E353A"/>
<path d="M148.933 131.347H147.13V133.151H148.933V131.347Z" fill="#2E353A"/>
<path d="M146.679 135.107H144.876V136.91H146.679V135.107Z" fill="#2E353A"/>
<path d="M148.933 135.107H147.13V136.91H148.933V135.107Z" fill="#2E353A"/>
<path d="M152.692 131.347H150.889V133.151H152.692V131.347Z" fill="#2E353A"/>
<path d="M156.902 131.347H155.099V133.151H156.902V131.347Z" fill="#2E353A"/>
<path d="M152.692 134.958H150.889V136.761H152.692V134.958Z" fill="#2E353A"/>
<path d="M156.902 134.958H155.099V136.761H156.902V134.958Z" fill="#2E353A"/>
<path d="M152.692 138.564H150.889V140.367H152.692V138.564Z" fill="#2E353A"/>
<path d="M156.902 138.564H155.099V140.367H156.902V138.564Z" fill="#2E353A"/>
<path d="M152.692 142.171H150.889V143.974H152.692V142.171Z" fill="#2E353A"/>
<path d="M156.902 142.171H155.099V143.974H156.902V142.171Z" fill="#2E353A"/>
<path d="M146.679 138.866H144.876V140.669H146.679V138.866Z" fill="#2E353A"/>
<path d="M148.933 138.866H147.13V140.669H148.933V138.866Z" fill="#2E353A"/>
<path d="M146.679 142.621H144.876V144.425H146.679V142.621Z" fill="#2E353A"/>
<path d="M148.933 142.621H147.13V144.425H148.933V142.621Z" fill="#2E353A"/>
<path d="M45.9741 139.917H44.1709V141.72H45.9741V139.917Z" fill="#2E353A"/>
<path d="M42.2182 143.676H40.415V145.479H42.2182V143.676Z" fill="#2E353A"/>
<path d="M45.9741 143.676H44.1709V145.479H45.9741V143.676Z" fill="#2E353A"/>
<path d="M42.2182 147.431H40.415V149.234H42.2182V147.431Z" fill="#2E353A"/>
<path d="M45.9741 147.431H44.1709V149.234H45.9741V147.431Z" fill="#2E353A"/>
<path d="M42.2182 151.19H40.415V152.994H42.2182V151.19Z" fill="#2E353A"/>
<path d="M45.9741 151.19H44.1709V152.994H45.9741V151.19Z" fill="#2E353A"/>
<path d="M140.968 152.319V159.756H125.938V144.969H140.968V150.994" stroke="#2E353A" stroke-miterlimit="10"/>
<path d="M168.627 157.509V159.756H153.594V151.939H156.698" stroke="#2E353A" stroke-miterlimit="10"/>
<path d="M158.529 151.939H168.627V156.29" stroke="#2E353A" stroke-miterlimit="10"/>
<path d="M57.8434 151.939H68.5215V159.756H53.4883V151.939H56.4165" stroke="#2E353A" stroke-miterlimit="10"/>
<path d="M34.328 151.939H35.7549V159.756H30.1924V151.939H33.2069" stroke="#2E353A" stroke-miterlimit="10"/>
<path d="M134.652 144.969H132.249V159.756H134.652V144.969Z" stroke="#2E353A" stroke-miterlimit="10"/>
<path d="M115.973 146.98H113.613V143.072H121.579V146.98H118.113" stroke="#2E353A" stroke-miterlimit="10"/>
<path d="M73.7822 140.367H64.6133V143.676H73.7822V140.367Z" stroke="#2E353A" stroke-miterlimit="10"/>
<path d="M69.8743 140.367H68.9727V159.756H69.8743V140.367Z" stroke="#2E353A" stroke-miterlimit="10"/>
<path d="M97.9996 22.5909C84.5882 22.5909 71.726 27.9186 62.2427 37.402C52.7593 46.8853 47.4316 59.7475 47.4316 73.1589C47.4316 98.3841 94.0796 157.831 94.0796 157.831H97.9996C97.9996 157.831 148.568 101.085 148.568 73.1589C148.568 59.7475 143.24 46.8853 133.757 37.402C124.273 27.9186 111.411 22.5909 97.9996 22.5909ZM97.9996 97.8549C93.1152 97.8549 88.3405 96.4065 84.2793 93.6929C80.218 90.9793 77.0527 87.1223 75.1835 82.6097C73.3143 78.0971 72.8253 73.1315 73.7782 68.341C74.7311 63.5504 77.0831 59.15 80.5369 55.6962C83.9907 52.2424 88.3911 49.8904 93.1817 48.9375C97.9722 47.9846 102.938 48.4736 107.45 50.3428C111.963 52.212 115.82 55.3773 118.534 59.4386C121.247 63.4998 122.696 68.2745 122.696 73.1589C122.696 76.4021 122.057 79.6134 120.816 82.6097C119.575 85.6059 117.756 88.3284 115.462 90.6216C113.169 92.9149 110.447 94.734 107.45 95.9751C104.454 97.2162 101.243 97.8549 97.9996 97.8549Z" fill="#2E353A" stroke="#2E353A" stroke-linecap="round" stroke-linejoin="round"/>
<path d="M94.0797 22.5909C80.6683 22.5909 67.8061 27.9186 58.3227 37.402C48.8394 46.8853 43.5117 59.7475 43.5117 73.1589C43.5117 101.085 94.0797 157.831 94.0797 157.831C94.0797 157.831 144.648 101.085 144.648 73.1589C144.648 59.7475 139.32 46.8853 129.837 37.402C120.353 27.9186 107.491 22.5909 94.0797 22.5909ZM94.0797 97.8549C89.1953 97.8549 84.4206 96.4065 80.3594 93.6929C76.2981 90.9793 73.1328 87.1223 71.2636 82.6097C69.3944 78.0971 68.9053 73.1315 69.8582 68.341C70.8111 63.5504 73.1632 59.15 76.617 55.6962C80.0708 52.2424 84.4712 49.8904 89.2618 48.9375C94.0523 47.9846 99.0179 48.4736 103.53 50.3428C108.043 52.212 111.9 55.3773 114.614 59.4386C117.327 63.4998 118.776 68.2745 118.776 73.1589C118.776 79.7087 116.174 85.9902 111.542 90.6216C106.911 95.253 100.63 97.8549 94.0797 97.8549Z" fill="#92E3A9" stroke="#2E353A" stroke-linecap="round" stroke-linejoin="round"/>
</svg>
