<svg width="25" height="24" viewBox="0 0 25 24" fill="none" xmlns="http://www.w3.org/2000/svg">
<path d="M2.16699 12C2.16699 8.229 2.16699 6.343 3.33899 5.172C4.51099 4.001 6.39599 4 10.167 4H14.167C17.938 4 19.824 4 20.995 5.172C22.166 6.344 22.167 8.229 22.167 12V14C22.167 17.771 22.167 19.657 20.995 20.828C19.823 21.999 17.938 22 14.167 22H10.167C6.39599 22 4.50999 22 3.33899 20.828C2.16799 19.656 2.16699 17.771 2.16699 14V12Z" stroke="#252940" stroke-width="1.5"/>
<path d="M7.16699 4V2.5M17.167 4V2.5M2.66699 9H21.667" stroke="#252940" stroke-width="1.5" stroke-linecap="round"/>
<path d="M18.167 17C18.167 17.2652 18.0616 17.5196 17.8741 17.7071C17.6866 17.8946 17.4322 18 17.167 18C16.9018 18 16.6474 17.8946 16.4599 17.7071C16.2723 17.5196 16.167 17.2652 16.167 17C16.167 16.7348 16.2723 16.4804 16.4599 16.2929C16.6474 16.1054 16.9018 16 17.167 16C17.4322 16 17.6866 16.1054 17.8741 16.2929C18.0616 16.4804 18.167 16.7348 18.167 17ZM18.167 13C18.167 13.2652 18.0616 13.5196 17.8741 13.7071C17.6866 13.8946 17.4322 14 17.167 14C16.9018 14 16.6474 13.8946 16.4599 13.7071C16.2723 13.5196 16.167 13.2652 16.167 13C16.167 12.7348 16.2723 12.4804 16.4599 12.2929C16.6474 12.1054 16.9018 12 17.167 12C17.4322 12 17.6866 12.1054 17.8741 12.2929C18.0616 12.4804 18.167 12.7348 18.167 13ZM13.167 17C13.167 17.2652 13.0616 17.5196 12.8741 17.7071C12.6866 17.8946 12.4322 18 12.167 18C11.9018 18 11.6474 17.8946 11.4599 17.7071C11.2723 17.5196 11.167 17.2652 11.167 17C11.167 16.7348 11.2723 16.4804 11.4599 16.2929C11.6474 16.1054 11.9018 16 12.167 16C12.4322 16 12.6866 16.1054 12.8741 16.2929C13.0616 16.4804 13.167 16.7348 13.167 17ZM13.167 13C13.167 13.2652 13.0616 13.5196 12.8741 13.7071C12.6866 13.8946 12.4322 14 12.167 14C11.9018 14 11.6474 13.8946 11.4599 13.7071C11.2723 13.5196 11.167 13.2652 11.167 13C11.167 12.7348 11.2723 12.4804 11.4599 12.2929C11.6474 12.1054 11.9018 12 12.167 12C12.4322 12 12.6866 12.1054 12.8741 12.2929C13.0616 12.4804 13.167 12.7348 13.167 13ZM8.16699 17C8.16699 17.2652 8.06164 17.5196 7.8741 17.7071C7.68656 17.8946 7.43221 18 7.16699 18C6.90178 18 6.64742 17.8946 6.45989 17.7071C6.27235 17.5196 6.16699 17.2652 6.16699 17C6.16699 16.7348 6.27235 16.4804 6.45989 16.2929C6.64742 16.1054 6.90178 16 7.16699 16C7.43221 16 7.68656 16.1054 7.8741 16.2929C8.06164 16.4804 8.16699 16.7348 8.16699 17ZM8.16699 13C8.16699 13.2652 8.06164 13.5196 7.8741 13.7071C7.68656 13.8946 7.43221 14 7.16699 14C6.90178 14 6.64742 13.8946 6.45989 13.7071C6.27235 13.5196 6.16699 13.2652 6.16699 13C6.16699 12.7348 6.27235 12.4804 6.45989 12.2929C6.64742 12.1054 6.90178 12 7.16699 12C7.43221 12 7.68656 12.1054 7.8741 12.2929C8.06164 12.4804 8.16699 12.7348 8.16699 13Z" fill="#252940"/>
</svg>
