<svg width="226" height="173" viewBox="0 0 226 173" fill="none" xmlns="http://www.w3.org/2000/svg">
<path d="M65.9537 43.2926C66.4727 43.2926 66.8933 42.8961 66.8933 42.407C66.8933 41.918 66.4727 41.5215 65.9537 41.5215C65.4348 41.5215 65.0142 41.918 65.0142 42.407C65.0142 42.8961 65.4348 43.2926 65.9537 43.2926Z" fill="#FFE1ED"/>
<path d="M124.489 53.8427C126.289 56.5199 125.877 59.3795 125.878 62.3642C125.878 62.4152 125.905 62.4407 125.959 62.4407L127.344 62.4436C132.899 62.4436 138.471 62.4436 144.058 62.4436C145.555 62.4436 146.595 62.4725 147.178 62.5304C151.353 62.9413 154.723 64.7913 157.29 68.0805C158.608 69.9172 159.402 71.9271 159.674 74.1101C159.799 75.1103 159.735 76.3504 159.761 77.4683C159.763 77.5291 159.731 77.5595 159.666 77.5595L154.359 77.5537C154.318 77.5537 154.295 77.5733 154.292 77.6125C152.576 101.537 150.864 125.419 149.156 149.259C148.991 151.547 148.372 153.623 147.298 155.487C147.272 155.532 147.286 155.555 147.34 155.556L149.682 155.593C150.442 155.51 151.127 155.877 151.082 156.646C151.033 157.448 150.354 157.574 149.577 157.577C149.11 157.579 148.675 157.583 148.272 157.589L145.812 157.583C145.758 157.583 145.713 157.602 145.677 157.64C144.709 158.693 143.6 159.592 142.349 160.338C142.279 160.379 142.286 160.401 142.369 160.402L145.717 160.406C151.965 160.414 158.162 160.415 164.311 160.41C165.823 160.409 165.822 162.399 164.35 162.399C157.26 162.397 150.215 162.397 143.217 162.398H142.307C115.367 162.398 88.4296 162.398 61.4948 162.398C61.1234 162.398 60.8279 162.215 60.6083 161.85C60.4075 161.356 60.523 160.934 60.9548 160.584C61.2045 160.47 61.3877 160.413 61.5042 160.413C68.8752 160.412 76.2473 160.412 83.6204 160.412C83.6911 160.412 83.6968 160.394 83.6375 160.357C82.3972 159.599 81.2932 158.694 80.3256 157.64C80.2881 157.6 80.2418 157.58 80.1867 157.58C78.9089 157.581 77.6348 157.581 76.3643 157.579C75.8971 157.578 75.5538 157.511 75.3342 157.379C74.7786 157.045 74.7333 156.275 75.2359 155.841C75.7291 155.415 77.9766 155.593 78.6836 155.596C78.7523 155.596 78.77 155.567 78.7367 155.51C77.5115 153.426 77.0074 151.484 76.8279 148.978C75.1558 125.66 73.4826 102.341 71.8084 79.0217L71.7132 77.6699C71.7112 77.6396 71.697 77.6111 71.6735 77.5903C71.65 77.5696 71.619 77.558 71.5868 77.5581L67.7379 77.5595H66.3176C66.3075 77.5596 66.2975 77.5576 66.2882 77.5539C66.2789 77.5502 66.2705 77.5447 66.2635 77.5378C66.2565 77.531 66.2511 77.5228 66.2475 77.5139C66.2439 77.505 66.2423 77.4955 66.2427 77.486C66.2661 76.4887 66.2177 75.3648 66.2958 74.4911C66.8561 68.1672 72.0628 63.1997 78.7164 62.5333C79.297 62.4755 80.336 62.4461 81.8333 62.4451C87.9026 62.4431 93.9714 62.4426 100.04 62.4436C100.094 62.4436 100.121 62.4181 100.121 62.3671C100.126 60.9893 100.129 59.6178 100.13 58.2527C100.135 54.6694 102.62 51.6097 106.348 50.808C106.997 50.6678 108.003 50.5987 109.368 50.6006C111.75 50.6036 114.132 50.6036 116.514 50.6006C117.955 50.5987 118.99 50.6644 119.618 50.7977C121.584 51.2126 123.207 52.2275 124.489 53.8427ZM102.371 62.4083H123.623C123.664 62.4083 123.704 62.3928 123.733 62.3652C123.763 62.3376 123.779 62.3002 123.779 62.2612V58.2925C123.779 56.7725 123.138 55.3148 121.996 54.24C120.855 53.1653 119.306 52.5615 117.692 52.5615H108.302C106.688 52.5615 105.14 53.1653 103.998 54.24C102.857 55.3148 102.215 56.7725 102.215 58.2925V62.2612C102.215 62.3002 102.232 62.3376 102.261 62.3652C102.29 62.3928 102.33 62.4083 102.371 62.4083ZM154.292 67.8039C152.198 65.7857 149.201 64.453 146.148 64.4706C145.282 64.4765 144.247 64.4294 143.554 64.4294C122.848 64.4294 102.141 64.4294 81.4337 64.4294C80.0009 64.4294 78.9635 64.478 78.3215 64.5751C72.5435 65.4533 68.5011 69.9913 68.3404 75.481C68.3393 75.5389 68.3695 75.5678 68.4309 75.5678L157.56 75.5722C157.618 75.5722 157.646 75.5458 157.645 75.4928C157.596 72.4733 156.478 69.9104 154.292 67.8039ZM82.2297 156.634C84.2608 158.681 86.7034 159.897 89.5575 160.284C90.1829 160.368 91.2208 160.41 92.6713 160.41C106.299 160.412 119.927 160.413 133.556 160.412C134.937 160.412 135.973 160.358 136.666 160.252C141.572 159.495 145.588 156.009 146.722 151.415C146.875 150.799 147 149.828 147.095 148.501C148.763 125.3 150.428 102.11 152.088 78.9335L152.162 77.661C152.165 77.6169 152.142 77.5949 152.095 77.5949H73.9061C73.8951 77.5948 73.8842 77.5969 73.8741 77.601C73.864 77.6051 73.855 77.611 73.8475 77.6185C73.84 77.6259 73.8343 77.6348 73.8307 77.6444C73.8271 77.654 73.8256 77.6641 73.8265 77.6743C75.5382 101.644 77.2581 125.615 78.9864 149.59C79.1779 152.255 80.259 154.603 82.2297 156.634Z" fill="#2B2B2B"/>
<path d="M102.371 62.4084C102.33 62.4084 102.29 62.3929 102.261 62.3653C102.232 62.3377 102.215 62.3003 102.215 62.2613V58.2925C102.215 56.7726 102.857 55.3149 103.998 54.2401C105.14 53.1653 106.688 52.5615 108.302 52.5615H117.692C119.306 52.5615 120.855 53.1653 121.996 54.2401C123.138 55.3149 123.779 56.7726 123.779 58.2925V62.2613C123.779 62.3003 123.763 62.3377 123.733 62.3653C123.704 62.3929 123.664 62.4084 123.623 62.4084H102.371Z" fill="#E8867C"/>
<path d="M124.488 53.8428C125.856 54.9039 126.732 56.2268 127.118 57.8115C127.438 59.1266 127.324 60.9286 127.343 62.4437L125.959 62.4407C125.904 62.4407 125.877 62.4152 125.877 62.3642C125.876 59.3796 126.288 56.52 124.488 53.8428Z" fill="#C6638A"/>
<path d="M154.292 67.8041C156.478 69.9106 157.595 72.4736 157.644 75.493C157.645 75.546 157.617 75.5725 157.56 75.5725L68.4304 75.5681C68.369 75.5681 68.3388 75.5391 68.3399 75.4813C68.5006 69.9915 72.543 65.4535 78.321 64.5753C78.963 64.4782 80.0004 64.4297 81.4332 64.4297C102.141 64.4297 122.847 64.4297 143.554 64.4297C144.247 64.4297 145.281 64.4768 146.148 64.4709C149.2 64.4532 152.197 65.7859 154.292 67.8041Z" fill="#E8867C"/>
<path d="M149.682 155.593L147.34 155.556C147.286 155.555 147.272 155.532 147.298 155.487C148.372 153.623 148.991 151.547 149.156 149.259C150.864 125.419 152.576 101.537 154.292 77.6128C154.295 77.5736 154.318 77.5539 154.359 77.5539L159.666 77.5598C159.731 77.5598 159.763 77.5294 159.761 77.4686C159.735 76.3507 159.799 75.1106 159.674 74.1104C159.402 71.9274 158.608 69.9175 157.29 68.0807C157.416 68.0288 157.503 68.0278 157.551 68.0778C159.667 70.3196 160.88 72.9394 161.189 75.9373C161.238 76.41 161.246 77.3823 161.214 78.8543C161.213 78.8975 161.19 78.919 161.144 78.919H155.805C155.79 78.919 155.776 78.9243 155.765 78.9339C155.755 78.9434 155.748 78.9565 155.747 78.9705C154.086 102.197 152.431 125.275 150.78 148.206C150.779 148.212 150.731 148.767 150.635 149.871C150.565 150.671 150.576 151.504 150.434 152.248C150.224 153.354 149.908 154.434 149.487 155.487C149.469 155.53 149.534 155.566 149.682 155.593Z" fill="#C6638A"/>
<path d="M71.8076 79.0222C71.7816 79.0311 71.7634 79.0198 71.753 78.9884C71.7405 78.9521 71.7145 78.934 71.6749 78.934L67.8027 78.9134C67.7922 78.9132 67.7819 78.9111 67.7723 78.9071C67.7627 78.9032 67.7541 78.8975 67.7468 78.8904C67.7396 78.8833 67.7339 78.8749 67.7301 78.8657C67.7263 78.8565 67.7244 78.8467 67.7246 78.8369L67.7371 77.5601L71.586 77.5586C71.6182 77.5585 71.6492 77.5701 71.6727 77.5909C71.6962 77.6116 71.7104 77.6401 71.7124 77.6704L71.8076 79.0222Z" fill="#E8867C"/>
<path d="M152.089 78.9333C149.392 79.0392 146.509 78.9569 144.02 78.9569C121.132 78.9559 98.2447 78.9569 75.3565 78.9598C75.3034 78.9598 75.2784 78.9848 75.2815 79.0348C76.9807 102.752 78.6835 126.469 80.39 150.187C80.5648 152.605 81.0611 154.412 82.2972 156.386C82.308 156.402 82.315 156.421 82.3177 156.44C82.3204 156.459 82.3187 156.479 82.3128 156.497C82.2972 156.548 82.2696 156.594 82.2301 156.634C80.2594 154.603 79.1783 152.255 78.9868 149.59C77.2585 125.615 75.5386 101.644 73.8269 77.6742C73.826 77.664 73.8275 77.6538 73.8311 77.6442C73.8347 77.6346 73.8404 77.6258 73.8479 77.6183C73.8554 77.6109 73.8644 77.6049 73.8745 77.6009C73.8846 77.5968 73.8955 77.5947 73.9065 77.5947H152.095C152.143 77.5947 152.165 77.6168 152.162 77.6609L152.089 78.9333Z" fill="#FFE1ED"/>
<path d="M152.088 78.9336C150.428 102.111 148.763 125.3 147.095 148.501C147 149.828 146.875 150.8 146.722 151.415C145.588 156.009 141.572 159.496 136.666 160.252C135.973 160.359 134.936 160.412 133.556 160.412C119.927 160.413 106.299 160.412 92.6712 160.411C91.2207 160.411 90.1828 160.368 89.5574 160.284C86.7033 159.898 84.2607 158.681 82.2296 156.634C82.2691 156.594 82.2967 156.549 82.3123 156.498C82.3182 156.479 82.3199 156.46 82.3172 156.44C82.3145 156.421 82.3075 156.403 82.2967 156.386C81.0606 154.412 80.5642 152.605 80.3894 150.187C78.683 126.47 76.9802 102.752 75.281 79.0351C75.2779 78.9851 75.3029 78.9601 75.3559 78.9601C98.2442 78.9571 121.132 78.9562 144.019 78.9571C146.508 78.9571 149.391 79.0395 152.088 78.9336ZM110.995 152.917C111.537 153.727 112.272 154.265 113.202 154.529C114.049 154.771 114.926 154.756 115.833 154.484C117.976 153.843 118.814 152.063 118.814 150.005C118.815 131.388 118.815 112.77 118.813 94.1525C118.813 93.6945 118.806 93.1557 118.794 92.5359C118.77 91.3282 118.883 89.8616 118.557 88.8746C118.388 88.3671 117.622 86.8784 116.916 86.9755C115.485 84.6278 112.524 83.8835 110.284 85.5943C109.221 86.4072 108.686 87.5811 108.68 89.1158C108.652 96.4316 108.662 103.747 108.71 111.063C108.71 111.101 108.701 111.138 108.683 111.172C108.673 111.194 108.668 111.218 108.668 111.244C108.664 123.65 108.614 135.677 108.7 148.488C108.705 149.178 108.668 149.856 108.892 150.493C109.261 151.538 109.961 152.347 110.995 152.917ZM91.0604 152.836C91.8294 153.914 92.8392 154.503 94.0899 154.603C96.2687 154.777 98.2135 153.504 98.702 151.464C98.8133 150.997 98.831 150.292 98.7551 149.347C97.1547 129.573 95.5565 109.799 93.9604 90.0249C93.848 88.6255 93.2294 87.6296 92.1046 87.0373C91.3065 85.7193 90.1703 84.9745 88.6959 84.8029C86.4203 84.5381 84.3132 86.0238 83.9402 88.1097C83.8746 88.4754 83.9001 89.3782 84.0167 90.8178C85.5639 109.98 87.1138 129.143 88.6662 148.306C88.841 150.455 89.1485 151.763 91.0604 152.836ZM131.058 152.917C131.927 154.126 133.071 154.697 134.489 154.628C136.925 154.51 138.617 152.829 138.742 150.517C138.763 150.138 138.774 149.943 138.775 149.933C140.35 130.433 141.927 110.934 143.506 91.4341C143.589 90.4025 143.571 89.6616 143.451 89.2114C143.188 88.2239 142.567 87.4207 141.589 86.802C139.107 83.2142 133.829 84.6028 133.485 88.8481C131.878 108.78 130.266 128.713 128.65 148.646C128.497 150.53 129.3 151.954 131.058 152.917Z" fill="white"/>
<path d="M116.915 86.9752C117.18 87.5999 117.315 88.2025 117.321 88.7831C117.363 93.0858 117.329 98.0842 117.329 103.608C117.331 118.204 117.331 132.8 117.329 147.395C117.328 148.932 117.29 149.86 117.217 150.179C116.599 152.817 113.616 153.978 110.994 152.917C109.961 152.346 109.26 151.538 108.891 150.493C108.667 149.856 108.704 149.178 108.699 148.488C108.614 135.677 108.664 123.65 108.667 111.244C108.667 111.218 108.672 111.194 108.682 111.172C108.7 111.137 108.709 111.101 108.709 111.063C108.661 103.747 108.651 96.4313 108.679 89.1155C108.685 87.5808 109.22 86.407 110.284 85.594C112.523 83.8832 115.484 84.6275 116.915 86.9752ZM115.225 88.761C115.225 88.2094 114.993 87.6803 114.579 87.2903C114.165 86.9002 113.603 86.681 113.018 86.681H112.984C112.398 86.681 111.837 86.9002 111.423 87.2903C111.009 87.6803 110.777 88.2094 110.777 88.761V149.266C110.777 149.818 111.009 150.347 111.423 150.737C111.837 151.127 112.398 151.346 112.984 151.346H113.018C113.603 151.346 114.165 151.127 114.579 150.737C114.993 150.347 115.225 149.818 115.225 149.266V88.761Z" fill="#2B2B2B"/>
<path d="M92.1046 87.0375C92.3221 87.6033 92.4521 88.149 92.4948 88.6747C94.1149 108.676 95.7417 128.678 97.3753 148.679C97.6516 152.063 94.3771 154.103 91.0604 152.837C89.1485 151.763 88.841 150.455 88.6662 148.306C87.1138 129.143 85.5639 109.98 84.0167 90.8179C83.9001 89.3783 83.8746 88.4756 83.9402 88.1098C84.3132 86.0239 86.4203 84.5382 88.6959 84.803C90.1703 84.9746 91.3065 85.7194 92.1046 87.0375ZM90.4259 88.6711C90.3823 88.1238 90.1097 87.6152 89.6681 87.2572C89.2266 86.8993 88.6522 86.7213 88.0715 86.7625L88.0372 86.7649C87.7496 86.7853 87.4691 86.8588 87.2117 86.9814C86.9543 87.1039 86.7251 87.273 86.537 87.4791C86.3489 87.6852 86.2058 87.9241 86.1157 88.1823C86.0256 88.4405 85.9904 88.7129 86.012 88.9839L90.8271 149.339C90.8708 149.886 91.1434 150.395 91.585 150.753C92.0265 151.111 92.6008 151.289 93.1816 151.248L93.2159 151.245C93.5034 151.225 93.7839 151.151 94.0413 151.029C94.2988 150.906 94.528 150.737 94.7161 150.531C94.9041 150.325 95.0473 150.086 95.1374 149.828C95.2274 149.57 95.2627 149.297 95.241 149.026L90.4259 88.6711Z" fill="#2B2B2B"/>
<path d="M141.588 86.8019C142.001 87.608 142.167 88.5141 142.086 89.5203C140.487 109.316 138.884 129.112 137.277 148.909C137.152 150.442 136.759 151.587 135.506 152.463C134.26 153.332 132.777 153.484 131.057 152.917C129.299 151.954 128.496 150.53 128.649 148.645C130.265 128.712 131.877 108.78 133.484 88.848C133.828 84.6027 139.106 83.2141 141.588 86.8019ZM132.584 151.258C132.591 151.276 132.605 151.285 132.626 151.286C134.458 151.346 135.08 150.239 135.201 148.717C136.768 129.181 138.344 109.644 139.927 90.1087C140.001 89.1859 140.014 88.6151 139.966 88.3964C139.562 86.5753 136.899 86.1223 135.924 87.7536C135.741 88.0596 135.617 88.6097 135.553 89.4041C133.965 109.086 132.372 128.768 130.775 148.45C130.666 149.797 130.973 150.909 132.534 151.22C132.558 151.224 132.575 151.236 132.584 151.258Z" fill="#2B2B2B"/>
<path d="M113.019 86.6816H112.984C111.765 86.6816 110.777 87.6129 110.777 88.7616V149.267C110.777 150.415 111.765 151.347 112.984 151.347H113.019C114.237 151.347 115.226 150.415 115.226 149.267V88.7616C115.226 87.6129 114.237 86.6816 113.019 86.6816Z" fill="#E8867C"/>
<path d="M88.0712 86.7623L88.037 86.7647C86.8276 86.8504 85.9209 87.8439 86.0118 88.9838L90.8269 149.339C90.9179 150.479 91.972 151.333 93.1814 151.248L93.2156 151.245C94.4251 151.159 95.3318 150.166 95.2408 149.026L90.4257 88.671C90.3348 87.5312 89.2806 86.6766 88.0712 86.7623Z" fill="#E8867C"/>
<path d="M132.535 151.22C130.974 150.909 130.667 149.797 130.776 148.45C132.373 128.768 133.966 109.086 135.554 89.404C135.618 88.6097 135.742 88.0595 135.925 87.7536C136.901 86.1222 139.563 86.5753 139.968 88.3964C140.016 88.6151 140.002 89.1858 139.929 90.1086C138.345 109.644 136.77 129.181 135.203 148.717C135.081 150.238 134.46 151.346 132.627 151.286C132.607 151.285 132.592 151.276 132.585 151.258C132.576 151.236 132.559 151.224 132.535 151.22Z" fill="#E8867C"/>
<path d="M141.589 86.8018C142.567 87.4206 143.188 88.2237 143.451 89.2112C143.571 89.6614 143.589 90.4023 143.506 91.4339C141.927 110.933 140.35 130.433 138.775 149.932C138.774 149.943 138.763 150.138 138.742 150.516C138.617 152.829 136.926 154.51 134.489 154.628C133.071 154.696 131.927 154.126 131.059 152.917C132.779 153.484 134.261 153.332 135.507 152.463C136.76 151.587 137.153 150.441 137.278 148.909C138.885 129.112 140.488 109.316 142.087 89.5202C142.168 88.514 142.002 87.6079 141.589 86.8018Z" fill="#FFE1ED"/>
<path d="M116.916 86.9752C117.621 86.8782 118.388 88.3668 118.556 88.8743C118.882 89.8613 118.77 91.3279 118.793 92.5356C118.806 93.1554 118.812 93.6942 118.812 94.1522C118.814 112.77 118.815 131.388 118.814 150.004C118.814 152.062 117.975 153.842 115.833 154.484C114.925 154.755 114.048 154.77 113.201 154.529C112.272 154.264 111.536 153.727 110.994 152.917C113.616 153.978 116.599 152.817 117.217 150.179C117.291 149.86 117.328 148.932 117.329 147.395C117.331 132.8 117.331 118.204 117.329 103.608C117.329 98.0842 117.364 93.0857 117.322 88.7831C117.315 88.2025 117.18 87.5999 116.916 86.9752Z" fill="#FFE1ED"/>
<path d="M92.1052 87.0371C93.23 87.6294 93.8486 88.6253 93.961 90.0247C95.5571 109.799 97.1553 129.573 98.7556 149.347C98.8316 150.291 98.8139 150.997 98.7026 151.464C98.2141 153.504 96.2693 154.776 94.0905 154.603C92.8398 154.503 91.83 153.914 91.061 152.836C94.3777 154.103 97.6522 152.062 97.3759 148.679C95.7423 128.678 94.1155 108.676 92.4954 88.6743C92.4527 88.1487 92.3227 87.603 92.1052 87.0371Z" fill="#FFE1ED"/>
<path d="M71.6327 155.596H66.8412C66.2809 155.596 65.8267 156.024 65.8267 156.552V156.617C65.8267 157.145 66.2809 157.573 66.8412 157.573H71.6327C72.193 157.573 72.6472 157.145 72.6472 156.617V156.552C72.6472 156.024 72.193 155.596 71.6327 155.596Z" fill="#2B2B2B"/>
<path d="M159.146 155.602L154.335 155.594C153.776 155.594 153.321 156.02 153.32 156.547L153.32 156.612C153.319 157.139 153.772 157.568 154.332 157.569L159.142 157.576C159.701 157.577 160.156 157.151 160.157 156.623L160.157 156.559C160.158 156.031 159.705 155.603 159.146 155.602Z" fill="#2B2B2B"/>
<path d="M148.273 157.589C147.535 158.607 146.683 159.546 145.718 160.406L142.37 160.401C142.286 160.4 142.28 160.379 142.349 160.338C143.6 159.592 144.709 158.693 145.677 157.64C145.713 157.602 145.759 157.583 145.813 157.583L148.273 157.589Z" fill="#C6638A"/>
<path d="M57.2807 160.439L52.4517 160.423C51.8983 160.421 51.4481 160.843 51.4462 161.364L51.446 161.432C51.444 161.954 51.8911 162.378 52.4445 162.38L57.2735 162.396C57.8269 162.397 58.2771 161.976 58.279 161.454L58.2792 161.387C58.2812 160.865 57.8341 160.441 57.2807 160.439Z" fill="#2B2B2B"/>
<path d="M173.509 160.42L168.714 160.428C168.157 160.429 167.705 160.856 167.706 161.381L167.706 161.449C167.707 161.975 168.16 162.4 168.718 162.399L173.513 162.391C174.07 162.39 174.522 161.964 174.521 161.438L174.521 161.37C174.52 160.845 174.067 160.419 173.509 160.42Z" fill="#2B2B2B"/>
</svg>
