<svg width="16" height="16" viewBox="0 0 16 16" fill="none" xmlns="http://www.w3.org/2000/svg">
<path d="M12.7 3.27304C12.0887 2.65578 11.3607 2.16635 10.5583 1.83329C9.756 1.50022 8.89539 1.33017 8.02667 1.33304C4.38667 1.33304 1.42 4.29971 1.42 7.93971C1.42 9.10638 1.72667 10.2397 2.3 11.2397L1.36667 14.6664L4.86667 13.7464C5.83334 14.273 6.92 14.553 8.02667 14.553C11.6667 14.553 14.6333 11.5864 14.6333 7.94638C14.6333 6.17971 13.9467 4.51971 12.7 3.27304ZM8.02667 13.433C7.04 13.433 6.07334 13.1664 5.22667 12.6664L5.02667 12.5464L2.94667 13.093L3.5 11.0664L3.36667 10.8597C2.81837 9.98442 2.52729 8.97256 2.52667 7.93971C2.52667 4.91304 4.99333 2.44638 8.02 2.44638C9.48667 2.44638 10.8667 3.01971 11.9 4.05971C12.4117 4.56895 12.8173 5.17474 13.0931 5.84193C13.3689 6.50912 13.5095 7.22443 13.5067 7.94638C13.52 10.973 11.0533 13.433 8.02667 13.433ZM11.04 9.32638C10.8733 9.24638 10.06 8.84638 9.91333 8.78638C9.76 8.73304 9.65334 8.70638 9.54 8.86638C9.42667 9.03304 9.11333 9.40638 9.02 9.51304C8.92667 9.62638 8.82667 9.63971 8.66 9.55304C8.49333 9.47304 7.96 9.29304 7.33333 8.73304C6.84 8.29304 6.51333 7.75304 6.41333 7.58638C6.32 7.41971 6.4 7.33304 6.48667 7.24638C6.56 7.17304 6.65334 7.05304 6.73334 6.95971C6.81334 6.86638 6.84667 6.79304 6.9 6.68638C6.95334 6.57304 6.92667 6.47971 6.88667 6.39971C6.84667 6.31971 6.51333 5.50638 6.38 5.17304C6.24667 4.85304 6.10667 4.89304 6.00667 4.88638H5.68667C5.57333 4.88638 5.4 4.92638 5.24667 5.09304C5.1 5.25971 4.67334 5.65971 4.67334 6.47304C4.67334 7.28638 5.26667 8.07304 5.34667 8.17971C5.42667 8.29304 6.51333 9.95971 8.16667 10.673C8.56 10.8464 8.86667 10.9464 9.10667 11.0197C9.5 11.1464 9.86 11.1264 10.1467 11.0864C10.4667 11.0397 11.1267 10.6864 11.26 10.2997C11.4 9.91304 11.4 9.58638 11.3533 9.51304C11.3067 9.43971 11.2067 9.40638 11.04 9.32638Z" fill="#252940"/>
</svg>
