<svg width="16" height="18" viewBox="0 0 16 18" fill="none" xmlns="http://www.w3.org/2000/svg">
<g clip-path="url(#clip0_1_467)">
<path d="M12.9031 9.54457C12.9283 12.2634 15.2882 13.1682 15.3143 13.1797C15.2943 13.2435 14.9372 14.469 14.0711 15.7349C13.3223 16.8294 12.5451 17.9198 11.3208 17.9423C10.1179 17.9645 9.73106 17.229 8.35575 17.229C6.98083 17.229 6.55106 17.9198 5.41232 17.9645C4.2306 18.0093 3.33072 16.7811 2.57575 15.6906C1.03289 13.4602 -0.146141 9.38777 1.437 6.63886C2.22346 5.27371 3.629 4.40931 5.15449 4.38714C6.31489 4.36503 7.4102 5.16783 8.11957 5.16783C8.82849 5.16783 10.1595 4.2024 11.5588 4.34417C12.1445 4.36857 13.7888 4.58074 14.8447 6.12623C14.7595 6.17897 12.8827 7.2716 12.9031 9.54463M10.6423 2.86851C11.2697 2.10909 11.692 1.05194 11.5768 0C10.6724 0.0363429 9.57895 0.602629 8.93026 1.3616C8.34895 2.03377 7.83986 3.10954 7.97723 4.14063C8.98523 4.21863 10.0149 3.6284 10.6423 2.86851Z" fill="#010101"/>
</g>
<defs>
<clipPath id="clip0_1_467">
<rect width="14.6286" height="18" fill="white" transform="translate(0.68573)"/>
</clipPath>
</defs>
</svg>
